  0
SECTION
  2
HEADER
  9
$ACADVER
  1
AC1015
  9
$ACADMAINTVER
 70
     6
  9
$DWGCODEPAGE
  3
ANSI_1252
  9
$INSBASE
 10
0.0
 20
0.0
 30
0.0
  9
$EXTMIN
 10
-88.3828904397
 20
24.1613443939
 30
0.0
  9
$EXTMAX
 10
-68.3828904397
 20
44.1613443939
 30
0.0
  9
$LIMMIN
 10
0.0
 20
0.0
  9
$LIMMAX
 10
420.0
 20
297.0
  9
$ORTHOMODE
 70
     0
  9
$REGENMODE
 70
     1
  9
$FILLMODE
 70
     1
  9
$QTEXTMODE
 70
     0
  9
$MIRRTEXT
 70
     1
  9
$LTSCALE
 40
1.0
  9
$ATTMODE
 70
     1
  9
$TEXTSIZE
 40
3.5
  9
$TRACEWID
 40
1.0
  9
$TEXTSTYLE
  7
Standard
  9
$CLAYER
  8
0
  9
$CELTYPE
  6
ByLayer
  9
$CECOLOR
 62
   256
  9
$CELTSCALE
 40
1.0
  9
$DISPSILH
 70
     0
  9
$DIMSCALE
 40
1.0
  9
$DIMASZ
 40
3.302
  9
$DIMEXO
 40
0.0
  9
$DIMDLI
 40
3.75
  9
$DIMRND
 40
0.0
  9
$DIMDLE
 40
0.0
  9
$DIMEXE
 40
1.0
  9
$DIMTP
 40
0.0
  9
$DIMTM
 40
0.0
  9
$DIMTXT
 40
3.5
  9
$DIMCEN
 40
2.5
  9
$DIMTSZ
 40
0.0
  9
$DIMTOL
 70
     0
  9
$DIMLIM
 70
     0
  9
$DIMTIH
 70
     1
  9
$DIMTOH
 70
     1
  9
$DIMSE1
 70
     0
  9
$DIMSE2
 70
     0
  9
$DIMTAD
 70
     1
  9
$DIMZIN
 70
     1
  9
$DIMBLK
  1

  9
$DIMASO
 70
     1
  9
$DIMSHO
 70
     1
  9
$DIMPOST
  1

  9
$DIMAPOST
  1

  9
$DIMALT
 70
     0
  9
$DIMALTD
 70
     3
  9
$DIMALTF
 40
0.0393700787
  9
$DIMLFAC
 40
1.0
  9
$DIMTOFL
 70
     1
  9
$DIMTVP
 40
0.0
  9
$DIMTIX
 70
     0
  9
$DIMSOXD
 70
     0
  9
$DIMSAH
 70
     0
  9
$DIMBLK1
  1

  9
$DIMBLK2
  1

  9
$DIMSTYLE
  2
ISO-25
  9
$DIMCLRD
 70
     0
  9
$DIMCLRE
 70
     0
  9
$DIMCLRT
 70
     0
  9
$DIMTFAC
 40
1.0
  9
$DIMGAP
 40
1.524
  9
$DIMJUST
 70
     0
  9
$DIMSD1
 70
     0
  9
$DIMSD2
 70
     0
  9
$DIMTOLJ
 70
     0
  9
$DIMTZIN
 70
     1
  9
$DIMALTZ
 70
     0
  9
$DIMALTTZ
 70
     0
  9
$DIMUPT
 70
     0
  9
$DIMDEC
 70
     2
  9
$DIMTDEC
 70
     2
  9
$DIMALTU
 70
     2
  9
$DIMALTTD
 70
     3
  9
$DIMTXSTY
  7
Standard
  9
$DIMAUNIT
 70
     0
  9
$DIMADEC
 70
     2
  9
$DIMALTRND
 40
0.0
  9
$DIMAZIN
 70
     0
  9
$DIMDSEP
 70
    44
  9
$DIMATFIT
 70
     3
  9
$DIMFRAC
 70
     0
  9
$DIMLDRBLK
  1

  9
$DIMLUNIT
 70
     2
  9
$DIMLWD
 70
    -2
  9
$DIMLWE
 70
    -2
  9
$DIMTMOVE
 70
     0
  9
$LUNITS
 70
     2
  9
$LUPREC
 70
     2
  9
$SKETCHINC
 40
1.0
  9
$FILLETRAD
 40
10.0
  9
$AUNITS
 70
     0
  9
$AUPREC
 70
     2
  9
$MENU
  1
.
  9
$ELEVATION
 40
0.0
  9
$PELEVATION
 40
0.0
  9
$THICKNESS
 40
0.0
  9
$LIMCHECK
 70
     0
  9
$CHAMFERA
 40
0.0
  9
$CHAMFERB
 40
0.0
  9
$CHAMFERC
 40
0.0
  9
$CHAMFERD
 40
0.0
  9
$SKPOLY
 70
     0
  9
$TDCREATE
 40
2460114.805845671
  9
$TDUCREATE
 40
2460114.722512338
  9
$TDUPDATE
 40
2460114.805970683
  9
$TDUUPDATE
 40
2460114.72263735
  9
$TDINDWG
 40
0.0000000116
  9
$TDUSRTIMER
 40
0.0000000116
  9
$USRTIMER
 70
     1
  9
$ANGBASE
 50
0.0
  9
$ANGDIR
 70
     0
  9
$PDMODE
 70
     0
  9
$PDSIZE
 40
-1.0
  9
$PLINEWID
 40
0.0
  9
$SPLFRAME
 70
     0
  9
$SPLINETYPE
 70
     6
  9
$SPLINESEGS
 70
     8
  9
$HANDSEED
  5
265
  9
$SURFTAB1
 70
     6
  9
$SURFTAB2
 70
     6
  9
$SURFTYPE
 70
     6
  9
$SURFU
 70
     6
  9
$SURFV
 70
     6
  9
$UCSBASE
  2

  9
$UCSNAME
  2

  9
$UCSORG
 10
0.0
 20
0.0
 30
0.0
  9
$UCSXDIR
 10
1.0
 20
0.0
 30
0.0
  9
$UCSYDIR
 10
0.0
 20
1.0
 30
0.0
  9
$UCSORTHOREF
  2

  9
$UCSORTHOVIEW
 70
     0
  9
$UCSORGTOP
 10
0.0
 20
0.0
 30
0.0
  9
$UCSORGBOTTOM
 10
0.0
 20
0.0
 30
0.0
  9
$UCSORGLEFT
 10
0.0
 20
0.0
 30
0.0
  9
$UCSORGRIGHT
 10
0.0
 20
0.0
 30
0.0
  9
$UCSORGFRONT
 10
0.0
 20
0.0
 30
0.0
  9
$UCSORGBACK
 10
0.0
 20
0.0
 30
0.0
  9
$PUCSBASE
  2

  9
$PUCSNAME
  2

  9
$PUCSORG
 10
0.0
 20
0.0
 30
0.0
  9
$PUCSXDIR
 10
1.0
 20
0.0
 30
0.0
  9
$PUCSYDIR
 10
0.0
 20
1.0
 30
0.0
  9
$PUCSORTHOREF
  2

  9
$PUCSORTHOVIEW
 70
     0
  9
$PUCSORGTOP
 10
0.0
 20
0.0
 30
0.0
  9
$PUCSORGBOTTOM
 10
0.0
 20
0.0
 30
0.0
  9
$PUCSORGLEFT
 10
0.0
 20
0.0
 30
0.0
  9
$PUCSORGRIGHT
 10
0.0
 20
0.0
 30
0.0
  9
$PUCSORGFRONT
 10
0.0
 20
0.0
 30
0.0
  9
$PUCSORGBACK
 10
0.0
 20
0.0
 30
0.0
  9
$USERI1
 70
     0
  9
$USERI2
 70
     0
  9
$USERI3
 70
     0
  9
$USERI4
 70
     0
  9
$USERI5
 70
     0
  9
$USERR1
 40
0.0
  9
$USERR2
 40
0.0
  9
$USERR3
 40
0.0
  9
$USERR4
 40
0.0
  9
$USERR5
 40
0.0
  9
$WORLDVIEW
 70
     1
  9
$SHADEDGE
 70
     3
  9
$SHADEDIF
 70
    70
  9
$TILEMODE
 70
     1
  9
$MAXACTVP
 70
    64
  9
$PINSBASE
 10
0.0
 20
0.0
 30
0.0
  9
$PLIMCHECK
 70
     0
  9
$PEXTMIN
 10
1.0000000000E+20
 20
1.0000000000E+20
 30
1.0000000000E+20
  9
$PEXTMAX
 10
-1.0000000000E+20
 20
-1.0000000000E+20
 30
-1.0000000000E+20
  9
$PLIMMIN
 10
0.0
 20
0.0
  9
$PLIMMAX
 10
420.0
 20
297.0
  9
$UNITMODE
 70
     0
  9
$VISRETAIN
 70
     1
  9
$PLINEGEN
 70
     0
  9
$PSLTSCALE
 70
     1
  9
$TREEDEPTH
 70
  3020
  9
$CMLSTYLE
  2
Standard
  9
$CMLJUST
 70
     0
  9
$CMLSCALE
 40
20.0
  9
$PROXYGRAPHICS
 70
     1
  9
$MEASUREMENT
 70
     1
  9
$CELWEIGHT
370
    -1
  9
$ENDCAPS
280
     0
  9
$JOINSTYLE
280
     0
  9
$LWDISPLAY
290
     1
  9
$INSUNITS
 70
     4
  9
$HYPERLINKBASE
  1

  9
$STYLESHEET
  1

  9
$XEDIT
290
     1
  9
$CEPSNTYPE
380
     0
  9
$PSTYLEMODE
290
     1
  9
$FINGERPRINTGUID
  2
{aca32daa-5f8a-49ce-bb77-3877f82c3ee1}
  9
$VERSIONGUID
  2
{FAEB1C32-E019-11D5-929B-00C0DF256EC4}
  9
$EXTNAMES
290
     1
  9
$PSVPSCALE
 40
0.0
  9
$OLESTARTUP
290
     0
  0
ENDSEC
  0
SECTION
  2
CLASSES
  0
CLASS
  1
ACDBDICTIONARYWDFLT
  2
AcDbDictionaryWithDefault
  3
ObjectDBX Classes
 90
        0
280
     0
281
     0
  0
CLASS
  1
VISUALSTYLE
  2
AcDbVisualStyle
  3
ObjectDBX Classes
 90
     4095
280
     0
281
     0
  0
CLASS
  1
MATERIAL
  2
AcDbMaterial
  3
ObjectDBX Classes
 90
     1153
280
     0
281
     0
  0
CLASS
  1
SCALE
  2
AcDbScale
  3
ObjectDBX Classes
 90
     1153
280
     0
281
     0
  0
CLASS
  1
TABLESTYLE
  2
AcDbTableStyle
  3
ObjectDBX Classes
 90
     4095
280
     0
281
     0
  0
CLASS
  1
MLEADERSTYLE
  2
AcDbMLeaderStyle
  3
ACDB_MLEADERSTYLE_CLASS
 90
     4095
280
     0
281
     0
  0
CLASS
  1
SUN
  2
AcDbSun
  3
SCENEOE
 90
     1153
280
     0
281
     0
  0
CLASS
  1
ACDBPLACEHOLDER
  2
AcDbPlaceHolder
  3
ObjectDBX Classes
 90
        0
280
     0
281
     0
  0
CLASS
  1
LAYOUT
  2
AcDbLayout
  3
ObjectDBX Classes
 90
        0
280
     0
281
     0
  0
ENDSEC
  0
SECTION
  2
TABLES
  0
TABLE
  2
VPORT
  5
8
330
0
100
AcDbSymbolTable
 70
     1
  0
VPORT
  5
29
330
8
100
AcDbSymbolTableRecord
100
AcDbViewportTableRecord
  2
*Active
 70
     0
 10
0.0
 20
0.0
 11
1.0
 21
1.0
 12
-78.3828904397
 22
34.1613443939
 13
0.0
 23
0.0
 14
10.0
 24
10.0
 15
10.0
 25
10.0
 16
0.0
 26
0.0
 36
1.0
 17
0.0
 27
0.0
 37
0.0
 40
20.4
 41
1.0
 42
50.0
 43
0.0
 44
0.0
 50
0.0
 51
0.0
 71
     0
 72
   100
 73
     1
 74
     3
 75
     0
 76
     0
 77
     0
 78
     0
281
     0
 65
     1
110
0.0
120
0.0
130
0.0
111
1.0
121
0.0
131
0.0
112
0.0
122
1.0
132
0.0
 79
     0
146
0.0
  0
ENDTAB
  0
TABLE
  2
LTYPE
  5
5
330
0
100
AcDbSymbolTable
 70
     6
  0
LTYPE
  5
14
330
5
100
AcDbSymbolTableRecord
100
AcDbLinetypeTableRecord
  2
ByBlock
 70
     0
  3

 72
    65
 73
     0
 40
0.0
  0
LTYPE
  5
15
330
5
100
AcDbSymbolTableRecord
100
AcDbLinetypeTableRecord
  2
ByLayer
 70
     0
  3

 72
    65
 73
     0
 40
0.0
  0
LTYPE
  5
16
330
5
100
AcDbSymbolTableRecord
100
AcDbLinetypeTableRecord
  2
Continuous
 70
     0
  3
Solid line
 72
    65
 73
     0
 40
0.0
  0
LTYPE
  5
6E
330
5
100
AcDbSymbolTableRecord
100
AcDbLinetypeTableRecord
  2
HIDDEN
 70
     0
  3
Hidden __ __ __ __ __ __ __ __ __ __ __ __ __ __
 72
    65
 73
     2
 40
1.905
 49
1.27
 74
     0
 49
-0.635
 74
     0
  0
LTYPE
  5
6F
330
5
100
AcDbSymbolTableRecord
100
AcDbLinetypeTableRecord
  2
PHANTOM
 70
     0
  3
Phantom ______  __  __  ______  __  __  ______
 72
    65
 73
     6
 40
12.7
 49
6.35
 74
     0
 49
-1.27
 74
     0
 49
1.27
 74
     0
 49
-1.27
 74
     0
 49
1.27
 74
     0
 49
-1.27
 74
     0
  0
LTYPE
  5
70
330
5
100
AcDbSymbolTableRecord
100
AcDbLinetypeTableRecord
  2
CENTER
 70
     0
  3
Center ____ _ ____ _ ____ _ ____ _ ____ _ ____
 72
    65
 73
     4
 40
10.16
 49
6.35
 74
     0
 49
-1.27
 74
     0
 49
1.27
 74
     0
 49
-1.27
 74
     0
  0
LTYPE
  5
71
330
5
100
AcDbSymbolTableRecord
100
AcDbLinetypeTableRecord
  2
CENTERX2
 70
     0
  3
Center (2x) ________  __  ________  __  _____
 72
    65
 73
     4
 40
20.32
 49
12.7
 74
     0
 49
-2.54
 74
     0
 49
2.54
 74
     0
 49
-2.54
 74
     0
  0
LTYPE
  5
72
330
5
100
AcDbSymbolTableRecord
100
AcDbLinetypeTableRecord
  2
DOT2
 70
     0
  3
Dot (.5x) ........................................
 72
    65
 73
     2
 40
0.635
 49
0.0
 74
     0
 49
-0.635
 74
     0
  0
ENDTAB
  0
TABLE
  2
LAYER
  5
2
330
0
100
AcDbSymbolTable
 70
     1
  0
LAYER
  5
10
330
2
100
AcDbSymbolTableRecord
100
AcDbLayerTableRecord
  2
0
 70
     0
 62
     7
  6
Continuous
370
    -3
390
F
  0
ENDTAB
  0
TABLE
  2
STYLE
  5
3
330
0
100
AcDbSymbolTable
 70
     1
  0
STYLE
  5
11
330
3
100
AcDbSymbolTableRecord
100
AcDbTextStyleTableRecord
  2
Standard
 70
     0
 40
0.0
 41
1.0
 50
0.0
 71
     0
 42
3.5
  3
txt
  4

  0
ENDTAB
  0
TABLE
  2
VIEW
  5
6
330
0
100
AcDbSymbolTable
 70
     0
  0
ENDTAB
  0
TABLE
  2
UCS
  5
7
330
0
100
AcDbSymbolTable
 70
     0
  0
ENDTAB
  0
TABLE
  2
APPID
  5
9
330
0
100
AcDbSymbolTable
 70
     1
  0
APPID
  5
12
330
9
100
AcDbSymbolTableRecord
100
AcDbRegAppTableRecord
  2
ACAD
 70
     0
  0
ENDTAB
  0
TABLE
  2
DIMSTYLE
  5
A
330
0
100
AcDbSymbolTable
 70
     1
100
AcDbDimStyleTable
  0
DIMSTYLE
105
27
330
A
100
AcDbSymbolTableRecord
100
AcDbDimStyleTableRecord
  2
ISO-25
 70
     0
 41
2.5
 42
0.625
 43
3.75
 44
1.25
 73
     0
 74
     0
 77
     1
 78
     8
140
2.5
141
2.5
143
0.0393700787
147
0.625
171
     3
172
     1
178
     0
271
     2
272
     2
274
     3
278
    44
283
     0
284
     8
340
11
  0
ENDTAB
  0
TABLE
  2
BLOCK_RECORD
  5
1
330
0
100
AcDbSymbolTable
 70
     1
  0
BLOCK_RECORD
  5
1F
330
1
100
AcDbSymbolTableRecord
100
AcDbBlockTableRecord
  2
*Model_Space
340
22
  0
BLOCK_RECORD
  5
1B
330
1
100
AcDbSymbolTableRecord
100
AcDbBlockTableRecord
  2
*Paper_Space
340
1E
  0
BLOCK_RECORD
  5
23
330
1
100
AcDbSymbolTableRecord
100
AcDbBlockTableRecord
  2
*Paper_Space0
340
26
  0
ENDTAB
  0
ENDSEC
  0
SECTION
  2
BLOCKS
  0
BLOCK
  5
20
330
1F
100
AcDbEntity
  8
0
100
AcDbBlockBegin
  2
*Model_Space
 70
     0
 10
0.0
 20
0.0
 30
0.0
  3
*Model_Space
  1

  0
ENDBLK
  5
21
330
1F
100
AcDbEntity
  8
0
100
AcDbBlockEnd
  0
BLOCK
  5
1C
330
1B
100
AcDbEntity
 67
     1
  8
0
100
AcDbBlockBegin
  2
*Paper_Space
 70
     0
 10
0.0
 20
0.0
 30
0.0
  3
*Paper_Space
  1

  0
ENDBLK
  5
1D
330
1B
100
AcDbEntity
 67
     1
  8
0
100
AcDbBlockEnd
  0
BLOCK
  5
24
330
23
100
AcDbEntity
  8
0
100
AcDbBlockBegin
  2
*Paper_Space0
 70
     0
 10
0.0
 20
0.0
 30
0.0
  3
*Paper_Space0
  1

  0
ENDBLK
  5
25
330
23
100
AcDbEntity
  8
0
100
AcDbBlockEnd
  0
ENDSEC
  0
SECTION
  2
ENTITIES
  0
SPLINE
  5
E1
330
1F
100
AcDbEntity
  8
0
  6
Continuous
 62
     7
370
    25
100
AcDbSpline
210
0.0
220
0.0
230
1.0
 70
     8
 71
     3
 72
    23
 73
    19
 74
     0
 42
0.00000001
 43
0.00000001
 40
0.0
 40
0.0
 40
0.0
 40
0.0
 40
0.0686150505849026
 40
0.1346068931054457
 40
0.1983517153338637
 40
0.2601205067672971
 40
0.3210435625054168
 40
0.3816194225073839
 40
0.4416785647071305
 40
0.502745188767173
 40
0.5635026440525764
 40
0.6238994808837496
 40
0.6835985181560547
 40
0.7443807648146377
 40
0.8052373249966346
 40
0.8682272868123248
 40
0.9328581482405975
 40
1.0
 40
1.0
 40
1.0
 40
1.0
 10
-72.56126625008156
 20
31.55668967253832
 30
0.0
 10
-72.57196603510752
 20
31.55690601054985
 30
0.0
 10
-72.59295654385113
 20
31.55733041579834
 30
0.0
 10
-72.62367376686214
 20
31.56117990754895
 30
0.0
 10
-72.65303082366441
 20
31.56681507710957
 30
0.0
 10
-72.68078279466367
 20
31.57559121231997
 30
0.0
 10
-72.70734799449032
 20
31.58619979756631
 30
0.0
 10
-72.73229190389925
 20
31.59969438902953
 30
0.0
 10
-72.75584425491593
 20
31.61548275852789
 30
0.0
 10
-72.77788722468101
 20
31.63339269037714
 30
0.0
 10
-72.79792627196294
 20
31.65357966407337
 30
0.0
 10
-72.81606119305955
 20
31.67521616771844
 30
0.0
 10
-72.83181283526562
 20
31.69865621224038
 30
0.0
 10
-72.8453794463538
 20
31.72350010929469
 30
0.0
 10
-72.8566235351656
 20
31.75003868571193
 30
0.0
 10
-72.8656970190706
 20
31.77800944432705
 30
0.0
 10
-72.8727270265942
 20
31.80759459436364
 30
0.0
 10
-72.87543188227072
 20
31.82796581489037
 30
0.0
 10
-72.8768100812504
 20
31.83834551669417
 30
0.0
  0
SPLINE
  5
E3
330
1F
100
AcDbEntity
  8
0
  6
Continuous
 62
     7
370
    25
100
AcDbSpline
210
0.0
220
0.0
230
1.0
 70
     8
 71
     3
 72
    23
 73
    19
 74
     0
 42
0.00000001
 43
0.00000001
 40
0.0
 40
0.0
 40
0.0
 40
0.0
 40
0.0807127674176645
 40
0.1569354178244333
 40
0.2287401920982504
 40
0.2972579128447213
 40
0.3628400693683925
 40
0.4243807341065869
 40
0.4834565688579754
 40
0.5409258227788049
 40
0.5968852711939306
 40
0.6518940579000311
 40
0.7067157322758368
 40
0.762088600365009
 40
0.8182923432262339
 40
0.8764920088953939
 40
0.9370942081086243
 40
1.0
 40
1.0
 40
1.0
 40
1.0
 10
-72.74693995138026
 20
31.85539097123962
 30
0.0
 10
-72.74541721523232
 20
31.84745436707244
 30
0.0
 10
-72.74245645398899
 20
31.83202267849411
 30
0.0
 10
-72.73647732387842
 20
31.80990463621199
 30
0.0
 10
-72.72984172491107
 20
31.78925893764161
 30
0.0
 10
-72.7221180673782
 20
31.7701315384933
 30
0.0
 10
-72.7134922214362
 20
31.75252726688879
 30
0.0
 10
-72.70384042168203
 20
31.73655932666959
 30
0.0
 10
-72.69348601184006
 20
31.72202833047574
 30
0.0
 10
-72.68214843258214
 20
31.708954666965
 30
0.0
 10
-72.66964791949647
 20
31.69760021372891
 30
0.0
 10
-72.6564412035103
 20
31.68750751700442
 30
0.0
 10
-72.6421268477856
 20
31.67913671748399
 30
0.0
 10
-72.62682204419158
 20
31.67249226512166
 30
0.0
 10
-72.6106604950658
 20
31.66716885079959
 30
0.0
 10
-72.59354951829816
 20
31.66328940624996
 30
0.0
 10
-72.57546051398499
 20
31.66109013080435
 30
0.0
 10
-72.56309833806016
 20
31.66075597206335
 30
0.0
 10
-72.55680196436727
 20
31.66058577643443
 30
0.0
  0
SPLINE
  5
E4
330
1F
100
AcDbEntity
  8
0
  6
Continuous
 62
     7
370
    25
100
AcDbSpline
210
0.0
220
0.0
230
1.0
 70
     8
 71
     3
 72
    23
 73
    19
 74
     0
 42
0.00000001
 43
0.00000001
 40
0.0
 40
0.0
 40
0.0
 40
0.0
 40
0.0649634136804098
 40
0.1278348468315093
 40
0.1893794492562046
 40
0.2499234796280417
 40
0.3105492526523188
 40
0.3719158976446826
 40
0.434233502850225
 40
0.4978877605065634
 40
0.562016779345272
 40
0.6244600850340576
 40
0.6858267300264026
 40
0.7470317595203416
 40
0.8081828222633588
 40
0.870827382886909
 40
0.9344232629573717
 40
1.0
 40
1.0
 40
1.0
 40
1.0
 10
-72.55680196436727
 20
31.66058577643443
 30
0.0
 10
-72.54996403257708
 20
31.66081397589659
 30
0.0
 10
-72.53650836709517
 20
31.66126302624105
 30
0.0
 10
-72.51668170174159
 20
31.66382136931518
 30
0.0
 10
-72.49778694544565
 20
31.66864332423932
 30
0.0
 10
-72.4795156450524
 20
31.67479763744199
 30
0.0
 10
-72.46227436772804
 20
31.68336726954279
 30
0.0
 10
-72.44547028808054
 20
31.69314261119018
 30
0.0
 10
-72.42990737364076
 20
31.70533654112263
 30
0.0
 10
-72.41510268158943
 20
31.71883268056009
 30
0.0
 10
-72.40164173613641
 20
31.73370771063264
 30
0.0
 10
-72.38977164375942
 20
31.74958408205694
 30
0.0
 10
-72.37982735492002
 20
31.76636758188974
 30
0.0
 10
-72.37137671365583
 20
31.7838044070749
 30
0.0
 10
-72.36505953929378
 20
31.80228625616414
 30
0.0
 10
-72.36074457690069
 20
31.82155494417797
 30
0.0
 10
-72.35765853697905
 20
31.84156168591204
 30
0.0
 10
-72.35744033554307
 20
31.85517590401277
 30
0.0
 10
-72.35732956176986
 20
31.86208739981105
 30
0.0
  0
SPLINE
  5
E5
330
1F
100
AcDbEntity
  8
0
  6
Continuous
 62
     7
370
    25
100
AcDbSpline
210
0.0
220
0.0
230
1.0
 70
     8
 71
     3
 72
    23
 73
    19
 74
     0
 42
0.00000001
 43
0.00000001
 40
0.0
 40
0.0
 40
0.0
 40
0.0
 40
0.0649700495919372
 40
0.1271729605940219
 40
0.1883910855045558
 40
0.2480997485772479
 40
0.306766826126488
 40
0.3661808117035624
 40
0.426197328995825
 40
0.4880536241605861
 40
0.5499949841766587
 40
0.6112131090871764
 40
0.67259229222109
 40
0.7340000637045022
 40
0.7972661102024353
 40
0.8623609822909852
 40
0.9297347616171976
 40
1.0
 40
1.0
 40
1.0
 40
1.0
 10
-72.35732956176986
 20
31.86208739981105
 30
0.0
 10
-72.35745526076886
 20
31.86872702459786
 30
0.0
 10
-72.35770130512232
 20
31.88172348599316
 30
0.0
 10
-72.36053245229887
 20
31.90079161855335
 30
0.0
 10
-72.3646396806698
 20
31.9190598047603
 30
0.0
 10
-72.3707947568687
 20
31.93638488796747
 30
0.0
 10
-72.37864605507964
 20
31.95277742965737
 30
0.0
 10
-72.38789324472893
 20
31.9684778709552
 30
0.0
 10
-72.39921817111403
 20
31.98317691487874
 30
0.0
 10
-72.41213883763646
 20
31.99682640233881
 30
0.0
 10
-72.4262728904553
 20
32.00939571832721
 30
0.0
 10
-72.44154249630547
 20
32.02051717395986
 30
0.0
 10
-72.4580679925704
 20
32.0295372005947
 30
0.0
 10
-72.47548329925036
 20
32.03719861758734
 30
0.0
 10
-72.49400466149872
 20
32.04301293001773
 30
0.0
 10
-72.51354739688675
 20
32.04732245079079
 30
0.0
 10
-72.53414879155059
 20
32.04973979829556
 30
0.0
 10
-72.54820550467942
 20
32.05004192779451
 30
0.0
 10
-72.55538150982181
 20
32.05019616604482
 30
0.0
  0
SPLINE
  5
E6
330
1F
100
AcDbEntity
  8
0
  6
Continuous
 62
     7
370
    25
100
AcDbSpline
210
0.0
220
0.0
230
1.0
 70
     8
 71
     3
 72
    11
 73
     7
 74
     0
 42
0.00000001
 43
0.00000001
 40
0.0
 40
0.0
 40
0.0
 40
0.0
 40
0.2126777060559869
 40
0.4495981330797819
 40
0.7117869009696288
 40
1.0
 40
1.0
 40
1.0
 40
1.0
 10
-72.55538150982181
 20
32.05019616604482
 30
0.0
 10
-72.56167879964414
 20
32.05002261987404
 30
0.0
 10
-72.57499119519365
 20
32.04965574533964
 30
0.0
 10
-72.59592455690692
 20
32.04701572651162
 30
0.0
 10
-72.61888904621476
 20
32.04297519229982
 30
0.0
 10
-72.63474238565365
 20
32.03919081103739
 30
0.0
 10
-72.64304384748415
 20
32.03720915305781
 30
0.0
  0
SPLINE
  5
E7
330
1F
100
AcDbEntity
  8
0
  6
Continuous
 62
     7
370
    25
100
AcDbSpline
210
0.0
220
0.0
230
1.0
 70
     8
 71
     3
 72
    23
 73
    19
 74
     0
 42
0.00000001
 43
0.00000001
 40
0.0
 40
0.0
 40
0.0
 40
0.0
 40
0.0743422855806203
 40
0.1402115253320427
 40
0.1982385441308128
 40
0.2480154853492758
 40
0.296537621280465
 40
0.3481458800208287
 40
0.4048297433058829
 40
0.4660364601218196
 40
0.5288794583328034
 40
0.5912523890180136
 40
0.6540540522114475
 40
0.7182731387436873
 40
0.7839614412979775
 40
0.8518019019599843
 40
0.9228915068388834
 40
1.0
 40
1.0
 40
1.0
 40
1.0
 10
-72.62904222410752
 20
32.15409226994092
 30
0.0
 10
-72.62139626120349
 20
32.15407381190146
 30
0.0
 10
-72.60697577206953
 20
32.15403899954876
 30
0.0
 10
-72.58662600853296
 20
32.155288806472
 30
0.0
 10
-72.56879219515945
 20
32.15624266660483
 30
0.0
 10
-72.55282803229316
 20
32.15829923602641
 30
0.0
 10
-72.53777885148371
 20
32.16170353001296
 30
0.0
 10
-72.52233283801435
 20
32.16639751803503
 30
0.0
 10
-72.50619700275813
 20
32.17302133724717
 30
0.0
 10
-72.4893407543599
 20
32.18087619947907
 30
0.0
 10
-72.47282673143394
 20
32.19068095884084
 30
0.0
 10
-72.45742363315526
 20
32.20246773387677
 30
0.0
 10
-72.44384096536781
 20
32.21649013712557
 30
0.0
 10
-72.43149510970665
 20
32.23204318953717
 30
0.0
 10
-72.42141553412002
 20
32.2498258671249
 30
0.0
 10
-72.41438270907865
 20
32.26974074401306
 30
0.0
 10
-72.40999019632586
 20
32.29161763536182
 30
0.0
 10
-72.4095214866151
 20
32.30687042430493
 30
0.0
 10
-72.40927761371792
 20
32.3148065556552
 30
0.0
  0
SPLINE
  5
E8
330
1F
100
AcDbEntity
  8
0
  6
Continuous
 62
     7
370
    25
100
AcDbSpline
210
0.0
220
0.0
230
1.0
 70
     8
 71
     3
 72
    19
 73
    15
 74
     0
 42
0.00000001
 43
0.00000001
 40
0.0
 40
0.0
 40
0.0
 40
0.0
 40
0.0721144464022156
 40
0.1404779458173168
 40
0.2058992934620555
 40
0.2689504204587523
 40
0.3307596756971636
 40
0.3921131882743025
 40
0.45335223524317
 40
0.5155688046434951
 40
0.6380640832635236
 40
0.7575907436001296
 40
0.8764581363283819
 40
1.0
 40
1.0
 40
1.0
 40
1.0
 10
-72.40927761371792
 20
32.3148065556552
 30
0.0
 10
-72.40946472587645
 20
32.32062775329796
 30
0.0
 10
-72.40982921777757
 20
32.33196736592549
 30
0.0
 10
-72.41175587229544
 20
32.34851951965255
 30
0.0
 10
-72.4154859850239
 20
32.36399657606221
 30
0.0
 10
-72.42046395823807
 20
32.37857945197424
 30
0.0
 10
-72.42736921418872
 20
32.39197013608141
 30
0.0
 10
-72.43512566608801
 20
32.40471947759517
 30
0.0
 10
-72.44484982353401
 20
32.41611700874246
 30
0.0
 10
-72.45935787169812
 20
32.42970665485608
 30
0.0
 10
-72.47944574076065
 20
32.44411757253993
 30
0.0
 10
-72.50592648693433
 20
32.4565607800054
 30
0.0
 10
-72.53429287600966
 20
32.4645339698076
 30
0.0
 10
-72.55390770331275
 20
32.46535973649645
 30
0.0
 10
-72.56390423709455
 20
32.46578058162923
 30
0.0
  0
SPLINE
  5
E9
330
1F
100
AcDbEntity
  8
0
  6
Continuous
 62
     7
370
    25
100
AcDbSpline
210
0.0
220
0.0
230
1.0
 70
     8
 71
     3
 72
    23
 73
    19
 74
     0
 42
0.00000001
 43
0.00000001
 40
0.0
 40
0.0
 40
0.0
 40
0.0
 40
0.061959414575654
 40
0.1221861628050624
 40
0.1797303019142241
 40
0.236581627416603
 40
0.2922704828140822
 40
0.3485025623410939
 40
0.4046573601555268
 40
0.463016440154881
 40
0.5220736256283264
 40
0.5819523570149958
 40
0.6446433953157886
 40
0.7095843607029679
 40
0.7771914479536578
 40
0.8476298147167646
 40
0.9216310069063025
 40
1.0
 40
1.0
 40
1.0
 40
1.0
 10
-72.56390423709456
 20
32.46578058162924
 30
0.0
 10
-72.56959276213385
 20
32.46561172872753
 30
0.0
 10
-72.58081073524303
 20
32.46527874481736
 30
0.0
 10
-72.59719676639112
 20
32.46304346786412
 30
0.0
 10
-72.61280548569208
 20
32.45932188821778
 30
0.0
 10
-72.62766216921297
 20
32.45438688331848
 30
0.0
 10
-72.64157011751495
 20
32.44747983247925
 30
0.0
 10
-72.65478448993963
 20
32.43946462943775
 30
0.0
 10
-72.66711545718019
 20
32.4297250746346
 30
0.0
 10
-72.67857551646773
 20
32.4186245074934
 30
0.0
 10
-72.6891987395166
 20
32.4062502466653
 30
0.0
 10
-72.69856236389172
 20
32.39242102410328
 30
0.0
 10
-72.70708367705376
 20
32.37744226013119
 30
0.0
 10
-72.71456099637393
 20
32.36113277274008
 30
0.0
 10
-72.72112675560679
 20
32.34366713991106
 30
0.0
 10
-72.7262425127943
 20
32.32486899141537
 30
0.0
 10
-72.73085524384467
 20
32.3049270129266
 30
0.0
 10
-72.73290082750165
 20
32.29108288811313
 30
0.0
 10
-72.73395293839324
 20
32.28396239981105
 30
0.0
  0
SPLINE
  5
EB
330
1F
100
AcDbEntity
  8
0
  6
Continuous
 62
     7
370
    25
100
AcDbSpline
210
0.0
220
0.0
230
1.0
 70
     8
 71
     3
 72
    23
 73
    19
 74
     0
 42
0.00000001
 43
0.00000001
 40
0.0
 40
0.0
 40
0.0
 40
0.0
 40
0.0747873766192313
 40
0.1466329699100008
 40
0.2146181788681022
 40
0.2796746922362769
 40
0.3427588993339247
 40
0.4041089385880137
 40
0.4638819333854608
 40
0.5236185610617533
 40
0.5829152112542383
 40
0.6408793905548251
 40
0.6988360712552018
 40
0.7572725819024202
 40
0.8156756141678368
 40
0.8755575778114603
 40
0.9370243968727161
 40
1.0
 40
1.0
 40
1.0
 40
1.0
 10
-72.86382306826337
 20
32.30668967253833
 30
0.0
 10
-72.8617726284999
 20
32.31735321029586
 30
0.0
 10
-72.8577524036207
 20
32.33826083243505
 30
0.0
 10
-72.8488011534167
 20
32.36812026425095
 30
0.0
 10
-72.83892837054145
 20
32.39620155900158
 30
0.0
 10
-72.8264723827376
 20
32.42183030646932
 30
0.0
 10
-72.81290277572282
 20
32.44579669738357
 30
0.0
 10
-72.79684471536072
 20
32.46722443830701
 30
0.0
 10
-72.77959839741384
 20
32.48705886198103
 30
0.0
 10
-72.76021308618708
 20
32.50438756314364
 30
0.0
 10
-72.73961621207121
 20
32.51978538985791
 30
0.0
 10
-72.7178693676329
 20
32.5330043397489
 30
0.0
 10
-72.69533135335907
 20
32.54459409985692
 30
0.0
 10
-72.67153396992752
 20
32.55346499411779
 30
0.0
 10
-72.6470120664786
 20
32.56106285841893
 30
0.0
 10
-72.62135286042731
 20
32.5659604843249
 30
0.0
 10
-72.59476030589086
 20
32.56911725326898
 30
0.0
 10
-72.57669765761321
 20
32.56948870689471
 30
0.0
 10
-72.56755683449714
 20
32.56967668552534
 30
0.0
  0
SPLINE
  5
EC
330
1F
100
AcDbEntity
  8
0
  6
Continuous
 62
     7
370
    25
100
AcDbSpline
210
0.0
220
0.0
230
1.0
 70
     8
 71
     3
 72
    23
 73
    19
 74
     0
 42
0.00000001
 43
0.00000001
 40
0.0
 40
0.0
 40
0.0
 40
0.0
 40
0.0702350694341265
 40
0.137593882719323
 40
0.2030892326250454
 40
0.2671514227869184
 40
0.3300481608655129
 40
0.3926355268260681
 40
0.4557312249202162
 40
0.5196564873129685
 40
0.582934746232716
 40
0.6437824349614275
 40
0.7032192649384248
 40
0.7615712938448631
 40
0.8197348350290657
 40
0.8786844696580649
 40
0.9382350258923068
 40
1.0
 40
1.0
 40
1.0
 40
1.0
 10
-72.56755683449714
 20
32.56967668552534
 30
0.0
 10
-72.55746916760356
 20
32.56943361323332
 30
0.0
 10
-72.53770694245523
 20
32.56895742290974
 30
0.0
 10
-72.50869421191189
 20
32.56548839550675
 30
0.0
 10
-72.48101598418947
 20
32.55954694173728
 30
0.0
 10
-72.45451460837316
 20
32.55153736924959
 30
0.0
 10
-72.42944049209511
 20
32.54082829589451
 30
0.0
 10
-72.40551264763913
 20
32.52805084471645
 30
0.0
 10
-72.38298001404075
 20
32.51268830556936
 30
0.0
 10
-72.36173135692053
 20
32.49543090623941
 30
0.0
 10
-72.34271024965665
 20
32.47620639972187
 30
0.0
 10
-72.32559287510882
 20
32.45610830408666
 30
0.0
 10
-72.3113452435799
 20
32.43469620351241
 30
0.0
 10
-72.2997367898511
 20
32.41220655650248
 30
0.0
 10
-72.29044920990657
 20
32.38872101982749
 30
0.0
 10
-72.28405347675069
 20
32.3641207320066
 30
0.0
 10
-72.2800187959047
 20
32.33847929998612
 30
0.0
 10
-72.27961371920573
 20
32.32104489135663
 30
0.0
 10
-72.2794074838478
 20
32.31216856864222
 30
0.0
  0
SPLINE
  5
ED
330
1F
100
AcDbEntity
  8
0
  6
Continuous
 62
     7
370
    25
100
AcDbSpline
210
0.0
220
0.0
230
1.0
 70
     8
 71
     3
 72
    15
 73
    11
 74
     0
 42
0.00000001
 43
0.00000001
 40
0.0
 40
0.0
 40
0.0
 40
0.0
 40
0.1299484420341316
 40
0.2526222755170701
 40
0.3702569650571176
 40
0.4871227233323182
 40
0.6060521486685474
 40
0.7290050409399264
 40
0.859775357538104
 40
1.0
 40
1.0
 40
1.0
 40
1.0
 10
-72.2794074838478
 20
32.31216856864222
 30
0.0
 10
-72.27984985223291
 20
32.30098015040004
 30
0.0
 10
-72.28070982489832
 20
32.27922964972815
 30
0.0
 10
-72.28698326720554
 20
32.2478112894762
 30
0.0
 10
-72.29794901504232
 20
32.21896122509457
 30
0.0
 10
-72.31306693512911
 20
32.19239690985964
 30
0.0
 10
-72.3328882343104
 20
32.16853771358171
 30
0.0
 10
-72.3567655139966
 20
32.14697919288818
 30
0.0
 10
-72.38502340172784
 20
32.12797837794595
 30
0.0
 10
-72.40608859862212
 20
32.11790735415923
 30
0.0
 10
-72.41698865267897
 20
32.11269616604481
 30
0.0
  0
SPLINE
  5
EF
330
1F
100
AcDbEntity
  8
0
  6
Continuous
 62
     7
370
    25
100
AcDbSpline
210
0.0
220
0.0
230
1.0
 70
     8
 71
     3
 72
    23
 73
    19
 74
     0
 42
0.00000001
 43
0.00000001
 40
0.0
 40
0.0
 40
0.0
 40
0.0
 40
0.069293567100458
 40
0.1358084242306861
 40
0.2003050242832927
 40
0.2628808680066235
 40
0.3242523441300609
 40
0.3861629651000558
 40
0.4475817683762067
 40
0.5108617712268759
 40
0.573914649007526
 40
0.63538665177676
 40
0.6966396500365802
 40
0.756679894061426
 40
0.8172021548055318
 40
0.8772514722371032
 40
0.9384807474138039
 40
1.0
 40
1.0
 40
1.0
 40
1.0
 10
-72.41698865267897
 20
32.11005817903182
 30
0.0
 10
-72.40938104325838
 20
32.10842860865741
 30
0.0
 10
-72.39447089371917
 20
32.10523481457256
 30
0.0
 10
-72.37302114767118
 20
32.09833024989271
 30
0.0
 10
-72.35314801917002
 20
32.08949133726617
 30
0.0
 10
-72.33447847153244
 20
32.07946866592204
 30
0.0
 10
-72.31749551606681
 20
32.06726849001907
 30
0.0
 10
-72.30191793232744
 20
32.05354109194104
 30
0.0
 10
-72.2877303456235
 20
32.0380834322957
 30
0.0
 10
-72.27507756090387
 20
32.02118583110067
 30
0.0
 10
-72.26412041506174
 20
32.00315766866728
 30
0.0
 10
-72.25421340538053
 20
31.98479694113039
 30
0.0
 10
-72.24592926178724
 20
31.96600409339132
 30
0.0
 10
-72.23918095320496
 20
31.9467281188153
 30
0.0
 10
-72.23388470281458
 20
31.92713689396954
 30
0.0
 10
-72.23025925683
 20
31.90703891645131
 30
0.0
 10
-72.22796942981226
 20
31.88662624342667
 30
0.0
 10
-72.2276296987274
 20
31.87284821027287
 30
0.0
 10
-72.22745943189975
 20
31.86594291929157
 30
0.0
  0
SPLINE
  5
F0
330
1F
100
AcDbEntity
  8
0
  6
Continuous
 62
     7
370
    25
100
AcDbSpline
210
0.0
220
0.0
230
1.0
 70
     8
 71
     3
 72
    23
 73
    19
 74
     0
 42
0.00000001
 43
0.00000001
 40
0.0
 40
0.0
 40
0.0
 40
0.0
 40
0.0652179824827587
 40
0.1281770379289189
 40
0.1892406032060628
 40
0.2490636535297756
 40
0.3091145208081488
 40
0.3696316449823063
 40
0.4309301412718137
 40
0.4945164238968569
 40
0.5581767557278443
 40
0.6206890481895723
 40
0.682563227242111
 40
0.7441683868507343
 40
0.8062242668066797
 40
0.8691642946831651
 40
0.9336025820432361
 40
1.0
 40
1.0
 40
1.0
 40
1.0
 10
-72.22745943189975
 20
31.86594291929157
 30
0.0
 10
-72.22779825933442
 20
31.85490375776639
 30
0.0
 10
-72.22846417838457
 20
31.8332077933767
 30
0.0
 10
-72.23290835182391
 20
31.80141074314001
 30
0.0
 10
-72.2406439799826
 20
31.77120194192273
 30
0.0
 10
-72.25155368011686
 20
31.74252807772909
 30
0.0
 10
-72.26528880175391
 20
31.71517970739972
 30
0.0
 10
-72.28253169442522
 20
31.68959761549681
 30
0.0
 10
-72.30257371425556
 20
31.66538029332905
 30
0.0
 10
-72.32556939396434
 20
31.64316843412347
 30
0.0
 10
-72.35060192696983
 20
31.62298240745801
 30
0.0
 10
-72.37708068445622
 20
31.60524908961879
 30
0.0
 10
-72.40474010085939
 20
31.5901071359478
 30
0.0
 10
-72.43374475232648
 20
31.5779490800605
 30
0.0
 10
-72.46386996197236
 20
31.56829744762036
 30
0.0
 10
-72.4952914282334
 20
31.56170781861189
 30
0.0
 10
-72.52787379519519
 20
31.55751325225206
 30
0.0
 10
-72.55002486857886
 20
31.55696692600147
 30
0.0
 10
-72.56126625008156
 20
31.55668967253832
 30
0.0
  0
SPLINE
  5
108
330
1F
100
AcDbEntity
  8
0
  6
Continuous
 62
     7
370
    25
100
AcDbSpline
210
0.0
220
0.0
230
1.0
 70
     8
 71
     3
 72
    15
 73
    11
 74
     0
 42
0.00000001
 43
0.00000001
 40
0.0
 40
0.0
 40
0.0
 40
0.0
 40
0.1109034990493328
 40
0.2249739854344752
 40
0.3425397141267297
 40
0.4641355178786818
 40
0.5911450022459803
 40
0.7227906438497378
 40
0.8590102347892316
 40
1.0
 40
1.0
 40
1.0
 40
1.0
 10
-71.18812919432638
 20
37.19242743158175
 30
0.0
 10
-71.19609842407834
 20
37.18543103216839
 30
0.0
 10
-71.2122644548485
 20
37.17123844245565
 30
0.0
 10
-71.23838239324047
 20
37.15145332793632
 30
0.0
 10
-71.26616486468785
 20
37.13223154847875
 30
0.0
 10
-71.2962536396183
 20
37.11431726787413
 30
0.0
 10
-71.32795989418467
 20
37.09652071979266
 30
0.0
 10
-71.36193821953084
 20
37.08004274471681
 30
0.0
 10
-71.39764360380201
 20
37.0641241106046
 30
0.0
 10
-71.42232790747035
 20
37.05447689857856
 30
0.0
 10
-71.43488244107962
 20
37.0495702887246
 30
0.0
  0
SPLINE
  5
10A
330
1F
100
AcDbEntity
  8
0
  6
Continuous
 62
     7
370
    25
100
AcDbSpline
210
0.0
220
0.0
230
1.0
 70
     8
 71
     3
 72
    15
 73
    11
 74
     0
 42
0.00000001
 43
0.00000001
 40
0.0
 40
0.0
 40
0.0
 40
0.0
 40
0.1482820931701753
 40
0.2888970774456519
 40
0.4216957692128188
 40
0.5480396459897264
 40
0.6676239038638784
 40
0.7823658955009931
 40
0.8925439064837953
 40
0.9999999999999999
 40
0.9999999999999999
 40
0.9999999999999999
 40
0.9999999999999999
 10
-71.43488244107962
 20
37.16645340560773
 30
0.0
 10
-71.41725115481466
 20
37.17475465325374
 30
0.0
 10
-71.38290022973223
 20
37.19092792227639
 30
0.0
 10
-71.33462649414848
 20
37.21821709407742
 30
0.0
 10
-71.29051389885154
 20
37.24679651767267
 30
0.0
 10
-71.25093348554397
 20
37.27702882724299
 30
0.0
 10
-71.21547475740795
 20
37.30855429675777
 30
0.0
 10
-71.18456887316869
 20
37.34169203721977
 30
0.0
 10
-71.15770418919347
 20
37.37626791711303
 30
0.0
 10
-71.14329542187812
 20
37.40099683424462
 30
0.0
 10
-71.13618114237832
 20
37.41320665236097
 30
0.0
  0
SPLINE
  5
10E
330
1F
100
AcDbEntity
  8
0
  6
Continuous
 62
     7
370
    25
100
AcDbSpline
210
0.0
220
0.0
230
1.0
 70
     8
 71
     3
 72
    19
 73
    15
 74
     0
 42
0.00000001
 43
0.00000001
 40
0.0
 40
0.0
 40
0.0
 40
0.0
 40
0.1192150130378088
 40
0.2262640388374353
 40
0.3203470436466492
 40
0.4026100640183143
 40
0.4777036332020787
 40
0.5508164939135346
 40
0.6235533266053735
 40
0.6985625788612605
 40
0.7743203449245939
 40
0.8485309144189048
 40
0.9233266084172116
 40
1.0
 40
1.0
 40
1.0
 40
1.0
 10
-72.8305235472812
 20
39.49605314267419
 30
0.0
 10
-72.81692291187348
 20
39.49624482841335
 30
0.0
 10
-72.79110959675744
 20
39.49660863820898
 30
0.0
 10
-72.75463712979546
 20
39.49936546674933
 30
0.0
 10
-72.72261710620535
 20
39.50395114973889
 30
0.0
 10
-72.69455764373411
 20
39.51019107581336
 30
0.0
 10
-72.66990706362286
 20
39.51966395990532
 30
0.0
 10
-72.64811600791107
 20
39.5325686541312
 30
0.0
 10
-72.62888543506227
 20
39.54906758050442
 30
0.0
 10
-72.6128411355853
 20
39.56903357645932
 30
0.0
 10
-72.59971773447174
 20
39.59118879710841
 30
0.0
 10
-72.59001032094305
 20
39.61501610420972
 30
0.0
 10
-72.58413500361775
 20
39.6402491863563
 30
0.0
 10
-72.58348869474044
 20
39.65754809044323
 30
0.0
 10
-72.58316153429419
 20
39.66630476605082
 30
0.0
  0
SPLINE
  5
10F
330
1F
100
AcDbEntity
  8
0
  6
Continuous
 62
     7
370
    25
100
AcDbSpline
210
0.0
220
0.0
230
1.0
 70
     8
 71
     3
 72
    23
 73
    19
 74
     0
 42
0.00000001
 43
0.00000001
 40
0.0
 40
0.0
 40
0.0
 40
0.0
 40
0.0553033043216398
 40
0.1097117953138181
 40
0.1620293579112896
 40
0.2144501477165471
 40
0.2662192582018513
 40
0.3196856263593398
 40
0.3730953435393988
 40
0.4289278781425828
 40
0.486352729377484
 40
0.5458198558921136
 40
0.6093515721617601
 40
0.676326338763294
 40
0.7487400537622738
 40
0.8266904122639547
 40
0.9098666413626526
 40
1.0
 40
1.0
 40
1.0
 40
1.0
 10
-72.5831615342942
 20
39.66630476605083
 30
0.0
 10
-72.58334287174836
 20
39.67199091873835
 30
0.0
 10
-72.58370261259742
 20
39.68327122155984
 30
0.0
 10
-72.58578970239789
 20
39.69985511049435
 30
0.0
 10
-72.59007006458286
 20
39.71568904055298
 30
0.0
 10
-72.59545636684568
 20
39.73087744733192
 30
0.0
 10
-72.6024597549095
 20
39.74553950704861
 30
0.0
 10
-72.6111123589896
 20
39.75942012600625
 30
0.0
 10
-72.62152109000918
 20
39.77254910681259
 30
0.0
 10
-72.63312582104469
 20
39.78520912397651
 30
0.0
 10
-72.64683625547416
 20
39.79659150891362
 30
0.0
 10
-72.66246842175916
 20
39.80667752995024
 30
0.0
 10
-72.68014964158394
 20
39.81510215622433
 30
0.0
 10
-72.69986367446626
 20
39.82207573814717
 30
0.0
 10
-72.72165801448685
 20
39.82719004124656
 30
0.0
 10
-72.74538329844671
 20
39.83105408433089
 30
0.0
 10
-72.77116207649121
 20
39.83323932736978
 30
0.0
 10
-72.7889881210659
 20
39.83355257118787
 30
0.0
 10
-72.7982589368916
 20
39.83371548033654
 30
0.0
  0
SPLINE
  5
113
330
1F
100
AcDbEntity
  8
0
  6
Continuous
 62
     7
370
    25
100
AcDbSpline
210
0.0
220
0.0
230
1.0
 70
     8
 71
     3
 72
    35
 73
    31
 74
     0
 42
0.00000001
 43
0.00000001
 40
0.0
 40
0.0
 40
0.0
 40
0.0
 40
0.052583743878536
 40
0.1025323799149442
 40
0.1500442508773238
 40
0.194853861073023
 40
0.2372947123358228
 40
0.2767661071836294
 40
0.3138015841464457
 40
0.3484686868602814
 40
0.3801663713432761
 40
0.4095948429286664
 40
0.4363202703450148
 40
0.4604157710178622
 40
0.4820706319498004
 40
0.5010220255807307
 40
0.5173474051225196
 40
0.5312292424100251
 40
0.5803013780980557
 40
0.6274553115029474
 40
0.6727607752091522
 40
0.716394133658752
 40
0.75717418982386
 40
0.7933722241173293
 40
0.8263625934384189
 40
0.8557641189528412
 40
0.885539006813626
 40
0.9195933772439175
 40
0.9574961645057658
 40
1.0
 40
1.0
 40
1.0
 40
1.0
 10
-72.54014205377472
 20
38.93761158423265
 30
0.0
 10
-72.54606317463178
 20
38.94723617945711
 30
0.0
 10
-72.55760869361652
 20
38.96600305646691
 30
0.0
 10
-72.57502600393573
 20
38.99313876777779
 30
0.0
 10
-72.59120023466055
 20
39.0190831412981
 30
0.0
 10
-72.60637704460233
 20
39.04374756123626
 30
0.0
 10
-72.62096047091248
 20
39.06674535841924
 30
0.0
 10
-72.63469619909996
 20
39.08830269412817
 30
0.0
 10
-72.64714756812839
 20
39.10869338243138
 30
0.0
 10
-72.65913373885266
 20
39.12740405521415
 30
0.0
 10
-72.67014437730408
 20
39.14479698360787
 30
0.0
 10
-72.68031072288699
 20
39.1607045180775
 30
0.0
 10
-72.68928828814971
 20
39.17543192210437
 30
0.0
 10
-72.69797958438349
 20
39.18835902404047
 30
0.0
 10
-72.70546374336186
 20
39.2000767850832
 30
0.0
 10
-72.71180268243008
 20
39.21054610008905
 30
0.0
 10
-72.71787924567158
 20
39.21919306556951
 30
0.0
 10
-72.72699096988117
 20
39.23359102639056
 30
0.0
 10
-72.74066610775702
 20
39.25291475913571
 30
0.0
 10
-72.75898241509742
 20
39.27721043229387
 30
0.0
 10
-72.77817480997307
 20
39.29930141289761
 30
0.0
 10
-72.79739506772076
 20
39.31950799639846
 30
0.0
 10
-72.81653957971272
 20
39.33701992454899
 30
0.0
 10
-72.83536735923556
 20
39.35137232400624
 30
0.0
 10
-72.85375057842839
 20
39.36204659223979
 30
0.0
 10
-72.87226502898605
 20
39.36931228665368
 30
0.0
 10
-72.89185779118394
 20
39.37371422899621
 30
0.0
 10
-72.91349994630895
 20
39.3768557438277
 30
0.0
 10
-72.93803284388012
 20
39.37893536500646
 30
0.0
 10
-72.95531603275566
 20
39.37908887742073
 30
0.0
 10
-72.96445211870977
 20
39.37917002579108
 30
0.0
  0
SPLINE
  5
119
330
1F
100
AcDbEntity
  8
0
  6
Continuous
 62
     7
370
    25
100
AcDbSpline
210
0.0
220
0.0
230
1.0
 70
     8
 71
     3
 72
    23
 73
    19
 74
     0
 42
0.00000001
 43
0.00000001
 40
0.0
 40
0.0
 40
0.0
 40
0.0
 40
0.0845520943052842
 40
0.1616506302280812
 40
0.2322621629022434
 40
0.2961426736745085
 40
0.355438622540961
 40
0.4135973052805557
 40
0.4707726303459639
 40
0.5282598019028815
 40
0.5855795840276475
 40
0.6430064418775361
 40
0.7005771256410891
 40
0.7600375499858372
 40
0.8198216157983521
 40
0.8794156726223555
 40
0.9391931510219488
 40
1.0
 40
1.0
 40
1.0
 40
1.0
 10
-72.80637582000847
 20
39.93761158423264
 30
0.0
 10
-72.79196671613454
 20
39.93742869378003
 30
0.0
 10
-72.76441872053039
 20
39.93707903529825
 30
0.0
 10
-72.72486310918428
 20
39.93519533140205
 30
0.0
 10
-72.68897626281718
 20
39.93152309521167
 30
0.0
 10
-72.65629010431789
 20
39.92665335064378
 30
0.0
 10
-72.62618542972689
 20
39.91939740510367
 30
0.0
 10
-72.59826959331875
 20
39.90883918559592
 30
0.0
 10
-72.57222391563369
 20
39.89490265354036
 30
0.0
 10
-72.54834766527345
 20
39.87778461991334
 30
0.0
 10
-72.52647295567212
 20
39.85810322031608
 30
0.0
 10
-72.50738945191274
 20
39.83567301332724
 30
0.0
 10
-72.49094064881022
 20
39.8108174514833
 30
0.0
 10
-72.47754644473571
 20
39.78374428428842
 30
0.0
 10
-72.46687572755644
 20
39.7551542825867
 30
0.0
 10
-72.45875101600541
 20
39.72566272822536
 30
0.0
 10
-72.45433312283465
 20
39.69518577702126
 30
0.0
 10
-72.45364061443165
 20
39.6746374263269
 30
0.0
 10
-72.45329140442405
 20
39.6642755452716
 30
0.0
  0
SPLINE
  5
11A
330
1F
100
AcDbEntity
  8
0
  6
Continuous
 62
     7
370
    25
100
AcDbSpline
210
0.0
220
0.0
230
1.0
 70
     8
 71
     3
 72
    23
 73
    19
 74
     0
 42
0.00000001
 43
0.00000001
 40
0.0
 40
0.0
 40
0.0
 40
0.0
 40
0.0640122824652184
 40
0.1252134315243284
 40
0.184445282424487
 40
0.2415626537367737
 40
0.2977742102860085
 40
0.3536759502061848
 40
0.4098382873034375
 40
0.4667363898150069
 40
0.5247454332613514
 40
0.5841265018079838
 40
0.6458513855290284
 40
0.7098152628909108
 40
0.7770883650311993
 40
0.8476424812535754
 40
0.9218224167957767
 40
1.0
 40
1.0
 40
1.0
 40
1.0
 10
-72.45329140442405
 20
39.6642755452716
 30
0.0
 10
-72.45343370104179
 20
39.65506219534348
 30
0.0
 10
-72.45371204524565
 20
39.6370401046461
 30
0.0
 10
-72.45743461140891
 20
39.61073308726469
 30
0.0
 10
-72.4626241085371
 20
39.58568911714127
 30
0.0
 10
-72.47080762751996
 20
39.56221257259954
 30
0.0
 10
-72.4805848596391
 20
39.53987337718298
 30
0.0
 10
-72.49322642048439
 20
39.51918131419702
 30
0.0
 10
-72.50751389319917
 20
39.49947015221197
 30
0.0
 10
-72.52459030517252
 20
39.48167571113443
 30
0.0
 10
-72.54347619272308
 20
39.46515639996099
 30
0.0
 10
-72.56453600746617
 20
39.45023151576523
 30
0.0
 10
-72.58777238327129
 20
39.43719217236213
 30
0.0
 10
-72.61285616549547
 20
39.42526244240691
 30
0.0
 10
-72.64011846049887
 20
39.41521459023416
 30
0.0
 10
-72.66941697362289
 20
39.40671147766785
 30
0.0
 10
-72.70075178337021
 20
39.39982149585988
 30
0.0
 10
-72.72241234290946
 20
39.39649957003924
 30
0.0
 10
-72.73352679403445
 20
39.39479502579108
 30
0.0
  0
SPLINE
  5
11C
330
1F
100
AcDbEntity
  8
0
  6
Continuous
 62
     7
370
    25
100
AcDbSpline
210
0.0
220
0.0
230
1.0
 70
     8
 71
     3
 72
    15
 73
    11
 74
     0
 42
0.00000001
 43
0.00000001
 40
0.0
 40
0.0
 40
0.0
 40
0.0
 40
0.1052385094365222
 40
0.2144083432741556
 40
0.3288640533138829
 40
0.4489737875632324
 40
0.5754098571445652
 40
0.7088408152707515
 40
0.8501851523532905
 40
1.0
 40
1.0
 40
1.0
 40
1.0
 10
-72.73352679403445
 20
39.39215703877809
 30
0.0
 10
-72.72512078336918
 20
39.38812356817748
 30
0.0
 10
-72.70799474433711
 20
39.37990595132075
 30
0.0
 10
-72.68337297490656
 20
39.36424080094783
 30
0.0
 10
-72.65921852466924
 20
39.34568213032946
 30
0.0
 10
-72.63546833239384
 20
39.32425518614731
 30
0.0
 10
-72.61202604162186
 20
39.30008102959266
 30
0.0
 10
-72.58942971029659
 20
39.27264687970852
 30
0.0
 10
-72.56673218645541
 20
39.24265606643365
 30
0.0
 10
-72.55265921933832
 20
39.22105021911128
 30
0.0
 10
-72.54541802780068
 20
39.20993301280406
 30
0.0
  0
SPLINE
  5
11E
330
1F
100
AcDbEntity
  8
0
  6
Continuous
 62
     7
370
    25
100
AcDbSpline
210
0.0
220
0.0
230
1.0
 70
     8
 71
     3
 72
    23
 73
    19
 74
     0
 42
0.00000001
 43
0.00000001
 40
0.0
 40
0.0
 40
0.0
 40
0.0
 40
0.0692935671004199
 40
0.1358084242306499
 40
0.2003050242832584
 40
0.2628808680065911
 40
0.3242523441300302
 40
0.3861629651000579
 40
0.4475817683761826
 40
0.5108617712268538
 40
0.5739146490075057
 40
0.6353866517767416
 40
0.6966396500365636
 40
0.7566798940614111
 40
0.8172021548055293
 40
0.8772514722370951
 40
0.9384807474138022
 40
1.0
 40
1.0
 40
1.0
 40
1.0
 10
-71.24815748384779
 20
32.11005817903182
 30
0.0
 10
-71.24054987442722
 20
32.10842860865741
 30
0.0
 10
-71.22563972488798
 20
32.10523481457255
 30
0.0
 10
-71.20418997883998
 20
32.0983302498927
 30
0.0
 10
-71.18431685033885
 20
32.08949133726617
 30
0.0
 10
-71.16564730270123
 20
32.07946866592204
 30
0.0
 10
-71.14866434723568
 20
32.06726849001909
 30
0.0
 10
-71.13308676349627
 20
32.05354109194104
 30
0.0
 10
-71.11889917679234
 20
32.03808343229569
 30
0.0
 10
-71.10624639207266
 20
32.02118583110065
 30
0.0
 10
-71.09528924623059
 20
32.0031576686673
 30
0.0
 10
-71.08538223654936
 20
31.98479694113039
 30
0.0
 10
-71.07709809295612
 20
31.96600409339134
 30
0.0
 10
-71.07034978437378
 20
31.9467281188153
 30
0.0
 10
-71.06505353398339
 20
31.92713689396955
 30
0.0
 10
-71.06142808799883
 20
31.9070389164513
 30
0.0
 10
-71.05913826098107
 20
31.88662624342668
 30
0.0
 10
-71.05879852989622
 20
31.87284821027288
 30
0.0
 10
-71.05862826306857
 20
31.86594291929157
 30
0.0
  0
SPLINE
  5
11F
330
1F
100
AcDbEntity
  8
0
  6
Continuous
 62
     7
370
    25
100
AcDbSpline
210
0.0
220
0.0
230
1.0
 70
     8
 71
     3
 72
    23
 73
    19
 74
     0
 42
0.00000001
 43
0.00000001
 40
0.0
 40
0.0
 40
0.0
 40
0.0
 40
0.0652179824827582
 40
0.1281770379289218
 40
0.1892406032060652
 40
0.2490636535297776
 40
0.3091145208081502
 40
0.3696316449822922
 40
0.4309301412718167
 40
0.4945164238968593
 40
0.5581767557278462
 40
0.6206890481895737
 40
0.682563227242112
 40
0.7441683868507096
 40
0.8062242668066807
 40
0.8691642946831389
 40
0.9336025820432365
 40
1.0
 40
1.0
 40
1.0
 40
1.0
 10
-71.05862826306857
 20
31.86594291929157
 30
0.0
 10
-71.05896709050326
 20
31.8549037577664
 30
0.0
 10
-71.05963300955341
 20
31.8332077933767
 30
0.0
 10
-71.06407718299275
 20
31.80141074314
 30
0.0
 10
-71.07181281115147
 20
31.77120194192275
 30
0.0
 10
-71.08272251128567
 20
31.74252807772907
 30
0.0
 10
-71.09645763292279
 20
31.71517970739975
 30
0.0
 10
-71.113700525594
 20
31.68959761549678
 30
0.0
 10
-71.13374254542438
 20
31.66538029332906
 30
0.0
 10
-71.15673822513318
 20
31.64316843412347
 30
0.0
 10
-71.18177075813867
 20
31.62298240745801
 30
0.0
 10
-71.208249515625
 20
31.60524908961877
 30
0.0
 10
-71.23590893202825
 20
31.59010713594781
 30
0.0
 10
-71.26491358349533
 20
31.5779490800605
 30
0.0
 10
-71.29503879314116
 20
31.56829744762035
 30
0.0
 10
-71.32646025940224
 20
31.56170781861189
 30
0.0
 10
-71.35904262636403
 20
31.55751325225206
 30
0.0
 10
-71.38119369974767
 20
31.55696692600147
 30
0.0
 10
-71.39243508125038
 20
31.55668967253832
 30
0.0
  0
SPLINE
  5
120
330
1F
100
AcDbEntity
  8
0
  6
Continuous
 62
     7
370
    25
100
AcDbSpline
210
0.0
220
0.0
230
1.0
 70
     8
 71
     3
 72
    23
 73
    19
 74
     0
 42
0.00000001
 43
0.00000001
 40
0.0
 40
0.0
 40
0.0
 40
0.0
 40
0.068615050584903
 40
0.1346068931054466
 40
0.1983517153338651
 40
0.2601205067672989
 40
0.3210435625054191
 40
0.3816194225073866
 40
0.4416785647071336
 40
0.5027451887671766
 40
0.5635026440525804
 40
0.623899480883754
 40
0.6835985181560594
 40
0.7443807648146288
 40
0.8052373249966377
 40
0.8682272868123283
 40
0.9328581482406015
 40
1.0
 40
1.0
 40
1.0
 40
1.0
 10
-71.39243508125038
 20
31.55668967253832
 30
0.0
 10
-71.40313486627637
 20
31.55690601054986
 30
0.0
 10
-71.42412537501997
 20
31.55733041579834
 30
0.0
 10
-71.45484259803095
 20
31.56117990754893
 30
0.0
 10
-71.48419965483328
 20
31.56681507710959
 30
0.0
 10
-71.5119516258325
 20
31.57559121231997
 30
0.0
 10
-71.53851682565914
 20
31.58619979756631
 30
0.0
 10
-71.56346073506809
 20
31.59969438902954
 30
0.0
 10
-71.58701308608475
 20
31.61548275852789
 30
0.0
 10
-71.6090560558498
 20
31.63339269037713
 30
0.0
 10
-71.62909510313182
 20
31.65357966407337
 30
0.0
 10
-71.64723002422835
 20
31.67521616771842
 30
0.0
 10
-71.66298166643445
 20
31.69865621224036
 30
0.0
 10
-71.67654827752263
 20
31.72350010929471
 30
0.0
 10
-71.68779236633445
 20
31.75003868571193
 30
0.0
 10
-71.69686585023942
 20
31.77800944432705
 30
0.0
 10
-71.70389585776306
 20
31.80759459436364
 30
0.0
 10
-71.70660071343956
 20
31.82796581489038
 30
0.0
 10
-71.70797891241922
 20
31.83834551669417
 30
0.0
  0
SPLINE
  5
122
330
1F
100
AcDbEntity
  8
0
  6
Continuous
 62
     7
370
    25
100
AcDbSpline
210
0.0
220
0.0
230
1.0
 70
     8
 71
     3
 72
    23
 73
    19
 74
     0
 42
0.00000001
 43
0.00000001
 40
0.0
 40
0.0
 40
0.0
 40
0.0
 40
0.0807127674176648
 40
0.1569354178244338
 40
0.2287401920982511
 40
0.2972579128447221
 40
0.3628400693683936
 40
0.4243807341065882
 40
0.4834565688579769
 40
0.5409258227788064
 40
0.5968852711939325
 40
0.6518940579000331
 40
0.706715732275839
 40
0.7620886003650535
 40
0.8182923432262786
 40
0.8764920088953937
 40
0.9370942081086702
 40
1.0
 40
1.0
 40
1.0
 40
1.0
 10
-71.57810878254911
 20
31.85539097123963
 30
0.0
 10
-71.57658604640118
 20
31.84745436707244
 30
0.0
 10
-71.57362528515785
 20
31.83202267849412
 30
0.0
 10
-71.56764615504726
 20
31.80990463621199
 30
0.0
 10
-71.56101055607985
 20
31.78925893764161
 30
0.0
 10
-71.55328689854706
 20
31.77013153849331
 30
0.0
 10
-71.54466105260497
 20
31.75252726688877
 30
0.0
 10
-71.5350092528509
 20
31.7365593266696
 30
0.0
 10
-71.52465484300886
 20
31.72202833047572
 30
0.0
 10
-71.51331726375099
 20
31.708954666965
 30
0.0
 10
-71.50081675066532
 20
31.69760021372892
 30
0.0
 10
-71.48761003467911
 20
31.68750751700443
 30
0.0
 10
-71.47329567895446
 20
31.67913671748399
 30
0.0
 10
-71.45799087536044
 20
31.67249226512167
 30
0.0
 10
-71.44182932623463
 20
31.66716885079958
 30
0.0
 10
-71.42471834946706
 20
31.66328940624998
 30
0.0
 10
-71.40662934515377
 20
31.66109013080434
 30
0.0
 10
-71.39426716922897
 20
31.66075597206333
 30
0.0
 10
-71.3879707955361
 20
31.66058577643443
 30
0.0
  0
SPLINE
  5
123
330
1F
100
AcDbEntity
  8
0
  6
Continuous
 62
     7
370
    25
100
AcDbSpline
210
0.0
220
0.0
230
1.0
 70
     8
 71
     3
 72
    23
 73
    19
 74
     0
 42
0.00000001
 43
0.00000001
 40
0.0
 40
0.0
 40
0.0
 40
0.0
 40
0.0649634136804094
 40
0.1278348468315083
 40
0.1893794492562033
 40
0.2499234796280398
 40
0.3105492526523165
 40
0.3719158976446799
 40
0.4342335028502218
 40
0.4978877605065921
 40
0.5620167793452708
 40
0.6244600850340558
 40
0.6858267300264004
 40
0.7470317595203577
 40
0.8081828222633602
 40
0.87082738288691
 40
0.9344232629573722
 40
1.0
 40
1.0
 40
1.0
 40
1.0
 10
-71.3879707955361
 20
31.66058577643443
 30
0.0
 10
-71.38113286374589
 20
31.66081397589658
 30
0.0
 10
-71.367677198264
 20
31.66126302624104
 30
0.0
 10
-71.34785053291041
 20
31.66382136931518
 30
0.0
 10
-71.32895577661454
 20
31.66864332423933
 30
0.0
 10
-71.31068447622124
 20
31.67479763744199
 30
0.0
 10
-71.29344319889688
 20
31.6833672695428
 30
0.0
 10
-71.27663911924937
 20
31.69314261119017
 30
0.0
 10
-71.26107620480964
 20
31.70533654112266
 30
0.0
 10
-71.24627151275824
 20
31.71883268056008
 30
0.0
 10
-71.23281056730524
 20
31.73370771063264
 30
0.0
 10
-71.22094047492824
 20
31.74958408205695
 30
0.0
 10
-71.21099618608886
 20
31.76636758188974
 30
0.0
 10
-71.20254554482466
 20
31.78380440707491
 30
0.0
 10
-71.19622837046262
 20
31.80228625616414
 30
0.0
 10
-71.19191340806951
 20
31.82155494417797
 30
0.0
 10
-71.1888273681479
 20
31.84156168591205
 30
0.0
 10
-71.1886091667119
 20
31.85517590401276
 30
0.0
 10
-71.1884983929387
 20
31.86208739981105
 30
0.0
  0
SPLINE
  5
124
330
1F
100
AcDbEntity
  8
0
  6
Continuous
 62
     7
370
    25
100
AcDbSpline
210
0.0
220
0.0
230
1.0
 70
     8
 71
     3
 72
    23
 73
    19
 74
     0
 42
0.00000001
 43
0.00000001
 40
0.0
 40
0.0
 40
0.0
 40
0.0
 40
0.0649700495919365
 40
0.1271729605940142
 40
0.1883910855045475
 40
0.248099748577254
 40
0.3067668261264936
 40
0.3661808117035673
 40
0.4261973289958293
 40
0.4880536241605897
 40
0.5499949841766616
 40
0.6112131090871787
 40
0.672592292221052
 40
0.7340000637045052
 40
0.7972661102024375
 40
0.8623609822909868
 40
0.9297347616171985
 40
1.0
 40
1.0
 40
1.0
 40
1.0
 10
-71.1884983929387
 20
31.86208739981105
 30
0.0
 10
-71.18862409193768
 20
31.86872702459785
 30
0.0
 10
-71.18887013629114
 20
31.88172348599315
 30
0.0
 10
-71.19170128346772
 20
31.90079161855337
 30
0.0
 10
-71.1958085118386
 20
31.9190598047603
 30
0.0
 10
-71.20196358803753
 20
31.93638488796747
 30
0.0
 10
-71.2098148862485
 20
31.95277742965738
 30
0.0
 10
-71.21906207589778
 20
31.96847787095521
 30
0.0
 10
-71.23038700228285
 20
31.98317691487874
 30
0.0
 10
-71.2433076688053
 20
31.9968264023388
 30
0.0
 10
-71.25744172162415
 20
32.00939571832723
 30
0.0
 10
-71.27271132747425
 20
32.02051717395983
 30
0.0
 10
-71.28923682373924
 20
32.02953720059472
 30
0.0
 10
-71.30665213041914
 20
32.03719861758731
 30
0.0
 10
-71.32517349266753
 20
32.04301293001773
 30
0.0
 10
-71.3447162280556
 20
32.04732245079079
 30
0.0
 10
-71.36531762271945
 20
32.04973979829557
 30
0.0
 10
-71.37937433584824
 20
32.05004192779451
 30
0.0
 10
-71.38655034099065
 20
32.05019616604482
 30
0.0
  0
SPLINE
  5
125
330
1F
100
AcDbEntity
  8
0
  6
Continuous
 62
     7
370
    25
100
AcDbSpline
210
0.0
220
0.0
230
1.0
 70
     8
 71
     3
 72
    11
 73
     7
 74
     0
 42
0.00000001
 43
0.00000001
 40
0.0
 40
0.0
 40
0.0
 40
0.0
 40
0.2126777060559869
 40
0.4495981330797819
 40
0.7117869009696288
 40
1.0
 40
1.0
 40
1.0
 40
1.0
 10
-71.38655034099065
 20
32.05019616604482
 30
0.0
 10
-71.39284763081297
 20
32.05002261987404
 30
0.0
 10
-71.40616002636247
 20
32.04965574533964
 30
0.0
 10
-71.42709338807576
 20
32.04701572651162
 30
0.0
 10
-71.4500578773836
 20
32.04297519229982
 30
0.0
 10
-71.46591121682248
 20
32.03919081103739
 30
0.0
 10
-71.47421267865299
 20
32.03720915305781
 30
0.0
  0
SPLINE
  5
127
330
1F
100
AcDbEntity
  8
0
  6
Continuous
 62
     7
370
    25
100
AcDbSpline
210
0.0
220
0.0
230
1.0
 70
     8
 71
     3
 72
    23
 73
    19
 74
     0
 42
0.00000001
 43
0.00000001
 40
0.0
 40
0.0
 40
0.0
 40
0.0
 40
0.0743422855806198
 40
0.1402115253320418
 40
0.1982385441308115
 40
0.2480154853492741
 40
0.296537621280463
 40
0.3481458800208264
 40
0.4048297433058802
 40
0.4660364601218165
 40
0.5288794583327999
 40
0.5912523890180097
 40
0.6540540522114432
 40
0.7182731387436825
 40
0.7839614412979944
 40
0.8518019019599853
 40
0.9228915068388841
 40
1.0
 40
1.0
 40
1.0
 40
1.0
 10
-71.46021105527636
 20
32.15409226994092
 30
0.0
 10
-71.45256509237231
 20
32.15407381190147
 30
0.0
 10
-71.43814460323834
 20
32.15403899954875
 30
0.0
 10
-71.4177948397018
 20
32.15528880647201
 30
0.0
 10
-71.39996102632828
 20
32.15624266660483
 30
0.0
 10
-71.38399686346196
 20
32.1582992360264
 30
0.0
 10
-71.36894768265253
 20
32.16170353001296
 30
0.0
 10
-71.35350166918316
 20
32.16639751803501
 30
0.0
 10
-71.33736583392695
 20
32.17302133724718
 30
0.0
 10
-71.32050958552877
 20
32.18087619947907
 30
0.0
 10
-71.30399556260276
 20
32.19068095884085
 30
0.0
 10
-71.2885924643241
 20
32.20246773387677
 30
0.0
 10
-71.27500979653666
 20
32.21649013712558
 30
0.0
 10
-71.26266394087547
 20
32.23204318953718
 30
0.0
 10
-71.25258436528885
 20
32.2498258671249
 30
0.0
 10
-71.24555154024748
 20
32.26974074401306
 30
0.0
 10
-71.24115902749472
 20
32.29161763536182
 30
0.0
 10
-71.24069031778393
 20
32.30687042430492
 30
0.0
 10
-71.24044644488676
 20
32.3148065556552
 30
0.0
  0
SPLINE
  5
128
330
1F
100
AcDbEntity
  8
0
  6
Continuous
 62
     7
370
    25
100
AcDbSpline
210
0.0
220
0.0
230
1.0
 70
     8
 71
     3
 72
    19
 73
    15
 74
     0
 42
0.00000001
 43
0.00000001
 40
0.0
 40
0.0
 40
0.0
 40
0.0
 40
0.0721144464022192
 40
0.1404779458173239
 40
0.2058992934620659
 40
0.268950420458766
 40
0.3307596756971804
 40
0.3921131882742919
 40
0.4533522352431993
 40
0.5155688046435276
 40
0.6380640832635623
 40
0.7575907436001743
 40
0.8764581363284326
 40
0.9999999999999999
 40
0.9999999999999999
 40
0.9999999999999999
 40
0.9999999999999999
 10
-71.24044644488676
 20
32.3148065556552
 30
0.0
 10
-71.24063355704527
 20
32.32062775329795
 30
0.0
 10
-71.2409980489464
 20
32.33196736592549
 30
0.0
 10
-71.24292470346427
 20
32.34851951965255
 30
0.0
 10
-71.24665481619273
 20
32.36399657606221
 30
0.0
 10
-71.25163278940697
 20
32.37857945197427
 30
0.0
 10
-71.25853804535751
 20
32.39197013608138
 30
0.0
 10
-71.26629449725681
 20
32.40471947759519
 30
0.0
 10
-71.27601865470288
 20
32.41611700874248
 30
0.0
 10
-71.29052670286691
 20
32.42970665485605
 30
0.0
 10
-71.31061457192952
 20
32.44411757253994
 30
0.0
 10
-71.33709531810314
 20
32.45656078000539
 30
0.0
 10
-71.36546170717848
 20
32.46453396980761
 30
0.0
 10
-71.38507653448157
 20
32.46535973649645
 30
0.0
 10
-71.39507306826339
 20
32.46578058162924
 30
0.0
  0
SPLINE
  5
129
330
1F
100
AcDbEntity
  8
0
  6
Continuous
 62
     7
370
    25
100
AcDbSpline
210
0.0
220
0.0
230
1.0
 70
     8
 71
     3
 72
    15
 73
    11
 74
     0
 42
0.00000001
 43
0.00000001
 40
0.0
 40
0.0
 40
0.0
 40
0.0
 40
0.1299484420341391
 40
0.2526222755170815
 40
0.3702569650571136
 40
0.4871227233323445
 40
0.6060521486685433
 40
0.7290050409399658
 40
0.8597753575381476
 40
1.0
 40
1.0
 40
1.0
 40
1.0
 10
-71.11057631501662
 20
32.31216856864222
 30
0.0
 10
-71.11101868340175
 20
32.30098015040004
 30
0.0
 10
-71.11187865606719
 20
32.27922964972815
 30
0.0
 10
-71.11815209837434
 20
32.24781128947619
 30
0.0
 10
-71.12911784621113
 20
32.21896122509455
 30
0.0
 10
-71.14423576629797
 20
32.19239690985966
 30
0.0
 10
-71.16405706547923
 20
32.16853771358171
 30
0.0
 10
-71.18793434516543
 20
32.14697919288817
 30
0.0
 10
-71.21619223289669
 20
32.12797837794596
 30
0.0
 10
-71.23725742979094
 20
32.11790735415922
 30
0.0
 10
-71.24815748384779
 20
32.11269616604481
 30
0.0
  0
SPLINE
  5
12B
330
1F
100
AcDbEntity
  8
0
  6
Continuous
 62
     7
370
    25
100
AcDbSpline
210
0.0
220
0.0
230
1.0
 70
     8
 71
     3
 72
    23
 73
    19
 74
     0
 42
0.00000001
 43
0.00000001
 40
0.0
 40
0.0
 40
0.0
 40
0.0
 40
0.0619594145757019
 40
0.122186162805058
 40
0.1797303019142665
 40
0.2365816274165955
 40
0.2922704828141179
 40
0.3485025623411274
 40
0.4046573601555581
 40
0.46301644015491
 40
0.5220736256283204
 40
0.581952357015016
 40
0.6446433953158064
 40
0.7095843607029831
 40
0.7771914479536528
 40
0.8476298147167705
 40
0.9216310069063055
 40
1.0
 40
1.0
 40
1.0
 40
1.0
 10
-71.39507306826337
 20
32.46578058162923
 30
0.0
 10
-71.40076159330266
 20
32.46561172872753
 30
0.0
 10
-71.41197956641183
 20
32.46527874481735
 30
0.0
 10
-71.42836559755996
 20
32.46304346786411
 30
0.0
 10
-71.4439743168609
 20
32.45932188821779
 30
0.0
 10
-71.45883100038179
 20
32.45438688331848
 30
0.0
 10
-71.47273894868374
 20
32.44747983247924
 30
0.0
 10
-71.48595332110848
 20
32.43946462943776
 30
0.0
 10
-71.49828428834904
 20
32.4297250746346
 30
0.0
 10
-71.50974434763657
 20
32.41862450749341
 30
0.0
 10
-71.52036757068542
 20
32.40625024666529
 30
0.0
 10
-71.52973119506059
 20
32.39242102410329
 30
0.0
 10
-71.53825250822258
 20
32.37744226013119
 30
0.0
 10
-71.54572982754279
 20
32.36113277274008
 30
0.0
 10
-71.5522955867756
 20
32.34366713991104
 30
0.0
 10
-71.55741134396315
 20
32.32486899141539
 30
0.0
 10
-71.5620240750135
 20
32.3049270129266
 30
0.0
 10
-71.56406965867048
 20
32.29108288811312
 30
0.0
 10
-71.56512176956208
 20
32.28396239981105
 30
0.0
  0
SPLINE
  5
12D
330
1F
100
AcDbEntity
  8
0
  6
Continuous
 62
     7
370
    25
100
AcDbSpline
210
0.0
220
0.0
230
1.0
 70
     8
 71
     3
 72
    23
 73
    19
 74
     0
 42
0.00000001
 43
0.00000001
 40
0.0
 40
0.0
 40
0.0
 40
0.0
 40
0.0747873766192317
 40
0.1466329699100015
 40
0.2146181788681141
 40
0.2796746922362754
 40
0.3427588993339235
 40
0.4041089385880128
 40
0.4638819333854601
 40
0.523618561061753
 40
0.5829152112542637
 40
0.6408793905548237
 40
0.6988360712552005
 40
0.7572725819024192
 40
0.8156756141678362
 40
0.8755575778114598
 40
0.9370243968727476
 40
1.0
 40
1.0
 40
1.0
 40
1.0
 10
-71.69499189943221
 20
32.30668967253833
 30
0.0
 10
-71.69294145966876
 20
32.31735321029586
 30
0.0
 10
-71.68892123478952
 20
32.33826083243505
 30
0.0
 10
-71.67996998458555
 20
32.36812026425096
 30
0.0
 10
-71.67009720171028
 20
32.39620155900157
 30
0.0
 10
-71.65764121390644
 20
32.42183030646932
 30
0.0
 10
-71.64407160689167
 20
32.44579669738357
 30
0.0
 10
-71.62801354652957
 20
32.46722443830702
 30
0.0
 10
-71.61076722858266
 20
32.48705886198103
 30
0.0
 10
-71.59138191735587
 20
32.50438756314364
 30
0.0
 10
-71.57078504324004
 20
32.5197853898579
 30
0.0
 10
-71.54903819880174
 20
32.53300433974891
 30
0.0
 10
-71.52650018452789
 20
32.5445940998569
 30
0.0
 10
-71.50270280109638
 20
32.5534649941178
 30
0.0
 10
-71.47818089764739
 20
32.56106285841891
 30
0.0
 10
-71.45252169159616
 20
32.56596048432491
 30
0.0
 10
-71.42592913705967
 20
32.56911725326896
 30
0.0
 10
-71.40786648878205
 20
32.56948870689472
 30
0.0
 10
-71.39872566566598
 20
32.56967668552534
 30
0.0
  0
SPLINE
  5
12E
330
1F
100
AcDbEntity
  8
0
  6
Continuous
 62
     7
370
    25
100
AcDbSpline
210
0.0
220
0.0
230
1.0
 70
     8
 71
     3
 72
    23
 73
    19
 74
     0
 42
0.00000001
 43
0.00000001
 40
0.0
 40
0.0
 40
0.0
 40
0.0
 40
0.070235069434126
 40
0.137593882719354
 40
0.2030892326250445
 40
0.2671514227869171
 40
0.3300481608655408
 40
0.3926355268260672
 40
0.4557312249202148
 40
0.5196564873129668
 40
0.5829347462327138
 40
0.6437824349614248
 40
0.7032192649384218
 40
0.7615712938448597
 40
0.819734835029062
 40
0.878684469658069
 40
0.9382350258923057
 40
1.0
 40
1.0
 40
1.0
 40
1.0
 10
-71.39872566566598
 20
32.56967668552534
 30
0.0
 10
-71.38863799877241
 20
32.56943361323333
 30
0.0
 10
-71.36887577362408
 20
32.56895742290975
 30
0.0
 10
-71.33986304308071
 20
32.56548839550675
 30
0.0
 10
-71.31218481535828
 20
32.55954694173726
 30
0.0
 10
-71.28568343954198
 20
32.55153736924959
 30
0.0
 10
-71.26060932326392
 20
32.54082829589452
 30
0.0
 10
-71.23668147880797
 20
32.52805084471644
 30
0.0
 10
-71.2141488452096
 20
32.51268830556938
 30
0.0
 10
-71.19290018808937
 20
32.4954309062394
 30
0.0
 10
-71.17387908082546
 20
32.47620639972187
 30
0.0
 10
-71.15676170627768
 20
32.45610830408667
 30
0.0
 10
-71.14251407474873
 20
32.4346962035124
 30
0.0
 10
-71.13090562101993
 20
32.41220655650248
 30
0.0
 10
-71.12161804107542
 20
32.38872101982749
 30
0.0
 10
-71.11522230791948
 20
32.3641207320066
 30
0.0
 10
-71.11118762707355
 20
32.33847929998612
 30
0.0
 10
-71.11078255037457
 20
32.32104489135663
 30
0.0
 10
-71.11057631501662
 20
32.31216856864222
 30
0.0
  0
SPLINE
  5
12F
330
1F
100
AcDbEntity
  8
0
  6
Continuous
 62
     7
370
    25
100
AcDbSpline
210
0.0
220
0.0
230
1.0
 70
     8
 71
     3
 72
    15
 73
    11
 74
     0
 42
0.00000001
 43
0.00000001
 40
0.0
 40
0.0
 40
0.0
 40
0.0
 40
0.1327709772202877
 40
0.2616704945440908
 40
0.3873638535253954
 40
0.5103202155827921
 40
0.6322472540887819
 40
0.7540653936893534
 40
0.8761372071341456
 40
0.9999999999999999
 40
0.9999999999999999
 40
0.9999999999999999
 40
0.9999999999999999
 10
-72.48450278144935
 20
34.0852721839607
 30
0.0
 10
-72.50040196122652
 20
34.07295143237659
 30
0.0
 10
-72.53173671767885
 20
34.04866918916605
 30
0.0
 10
-72.58156112694166
 20
34.01756519100435
 30
0.0
 10
-72.63207683071273
 20
33.9906874472122
 30
0.0
 10
-72.68396795369264
 20
33.96912743093026
 30
0.0
 10
-72.73691388313873
 20
33.95220004680511
 30
0.0
 10
-72.79099862831995
 20
33.93994369567657
 30
0.0
 10
-72.84631798135868
 20
33.93269626079277
 30
0.0
 10
-72.8835618129653
 20
33.93173729930403
 30
0.0
 10
-72.90231933989092
 20
33.93125432681784
 30
0.0
  0
SPLINE
  5
130
330
1F
100
AcDbEntity
  8
0
  6
Continuous
 62
     7
370
    25
100
AcDbSpline
210
0.0
220
0.0
230
1.0
 70
     8
 71
     3
 72
    23
 73
    19
 74
     0
 42
0.00000001
 43
0.00000001
 40
0.0
 40
0.0
 40
0.0
 40
0.0
 40
0.0695213792607612
 40
0.1357452948276306
 40
0.1996341059511149
 40
0.2615441929569705
 40
0.3221053188507507
 40
0.3817467503018159
 40
0.441563888325246
 40
0.5018499664729635
 40
0.5620808843492224
 40
0.6214761787923188
 40
0.6808383013490998
 40
0.7409182918750932
 40
0.8021947911326524
 40
0.8654605888700299
 40
0.9312223386143771
 40
0.9999999999999999
 40
0.9999999999999999
 40
0.9999999999999999
 40
0.9999999999999999
 10
-72.90231933989091
 20
33.93125432681784
 30
0.0
 10
-72.92127882256
 20
33.93167257827109
 30
0.0
 10
-72.95829852199718
 20
33.93248924312206
 30
0.0
 10
-73.01240371508716
 20
33.93917039201034
 30
0.0
 10
-73.06373563223157
 20
33.94976376893487
 30
0.0
 10
-73.11231113011803
 20
33.96499520098514
 30
0.0
 10
-73.15792295640236
 20
33.98481722903622
 30
0.0
 10
-73.2009157210556
 20
34.00866004279055
 30
0.0
 10
-73.24105467488997
 20
34.03694878145239
 30
0.0
 10
-73.27792077290378
 20
34.06963116221244
 30
0.0
 10
-73.31104527623692
 20
34.10590486619336
 30
0.0
 10
-73.34045501892244
 20
34.14497676875176
 30
0.0
 10
-73.36475855498078
 20
34.18736317539763
 30
0.0
 10
-73.3850670650849
 20
34.232350878624
 30
0.0
 10
-73.40037528372041
 20
34.28040628793534
 30
0.0
 10
-73.41153470734392
 20
34.33113288137542
 30
0.0
 10
-73.41835672888337
 20
34.38473511084131
 30
0.0
 10
-73.41915806622674
 20
34.42142614014664
 30
0.0
 10
-73.4195677165143
 20
34.44018289824641
 30
0.0
  0
SPLINE
  5
131
330
1F
100
AcDbEntity
  8
0
  6
Continuous
 62
     7
370
    25
100
AcDbSpline
210
0.0
220
0.0
230
1.0
 70
     8
 71
     3
 72
    31
 73
    27
 74
     0
 42
0.00000001
 43
0.00000001
 40
0.0
 40
0.0
 40
0.0
 40
0.0
 40
0.0426263376019898
 40
0.0846151859588186
 40
0.1261300255658016
 40
0.1672326219057733
 40
0.2081489161428507
 40
0.2488916141599065
 40
0.2897448678475018
 40
0.3306679106693383
 40
0.3714422266087196
 40
0.4113817343237256
 40
0.4505760061185482
 40
0.4895905929087305
 40
0.5284791429076179
 40
0.5674669809710802
 40
0.6067558636760423
 40
0.6466169334042778
 40
0.6870686489146585
 40
0.7282182482299698
 40
0.7699777457123682
 40
0.8131931453232947
 40
0.8574524303885047
 40
0.903206789111993
 40
0.950687585465955
 40
1.0
 40
1.0
 40
1.0
 40
1.0
 10
-73.4195677165143
 20
34.44018289824641
 30
0.0
 10
-73.41933606855463
 20
34.45182068421001
 30
0.0
 10
-73.41887623699769
 20
34.4749222096719
 30
0.0
 10
-73.41631317695007
 20
34.50929485766057
 30
0.0
 10
-73.41148870618525
 20
34.542988414376
 30
0.0
 10
-73.40537435157795
 20
34.57618176986617
 30
0.0
 10
-73.39686775206329
 20
34.60862447662799
 30
0.0
 10
-73.38707451883968
 20
34.6406300123968
 30
0.0
 10
-73.37493791824002
 20
34.67182945338514
 30
0.0
 10
-73.36145977811343
 20
34.70246834840149
 30
0.0
 10
-73.34619953707865
 20
34.73200468820016
 30
0.0
 10
-73.32888164486387
 20
34.75982568234232
 30
0.0
 10
-73.30995223766949
 20
34.78598749182242
 30
0.0
 10
-73.28916727866363
 20
34.81031840072873
 30
0.0
 10
-73.26686944575269
 20
34.83320206994145
 30
0.0
 10
-73.2425649785514
 20
34.85405482200705
 30
0.0
 10
-73.21677704972174
 20
34.87347975271864
 30
0.0
 10
-73.18909770230175
 20
34.89087642447021
 30
0.0
 10
-73.15984481789653
 20
34.90655749840269
 30
0.0
 10
-73.12899394013701
 20
34.92017422048129
 30
0.0
 10
-73.09644427131789
 20
34.93150766963112
 30
0.0
 10
-73.06245406045151
 20
34.94107115306718
 30
0.0
 10
-73.02678391854627
 20
34.94840193642253
 30
0.0
 10
-72.9895435079858
 20
34.9532775971914
 30
0.0
 10
-72.95074757614199
 20
34.95674919868374
 30
0.0
 10
-72.92431065877501
 20
34.95706663248892
 30
0.0
 10
-72.91084206716366
 20
34.95722835279187
 30
0.0
  0
SPLINE
  5
132
330
1F
100
AcDbEntity
  8
0
  6
Continuous
 62
     7
370
    25
100
AcDbSpline
210
0.0
220
0.0
230
1.0
 70
     8
 71
     3
 72
    23
 73
    19
 74
     0
 42
0.00000001
 43
0.00000001
 40
0.0
 40
0.0
 40
0.0
 40
0.0
 40
0.0752312868384982
 40
0.1470025071808743
 40
0.2153314429623884
 40
0.2807425903243087
 40
0.3437436156752292
 40
0.4041640148967284
 40
0.4632273649211581
 40
0.5206210883181934
 40
0.5773415033037937
 40
0.6341614694495346
 40
0.6913767322648808
 40
0.749286275505238
 40
0.8084349977978227
 40
0.869975256857458
 40
0.9336898847586821
 40
1.0
 40
1.0
 40
1.0
 40
1.0
 10
-72.91084206716364
 20
34.95722835279187
 30
0.0
 10
-72.89697167055094
 20
34.95695820513757
 30
0.0
 10
-72.86986880998127
 20
34.95643033456457
 30
0.0
 10
-72.83023617064082
 20
34.95338030072602
 30
0.0
 10
-72.79280576670757
 20
34.94729745143061
 30
0.0
 10
-72.75731779404408
 20
34.93960447797301
 30
0.0
 10
-72.72407287000873
 20
34.9291327696322
 30
0.0
 10
-72.69267962811907
 20
34.91689469453514
 30
0.0
 10
-72.66372529275051
 20
34.90175836713565
 30
0.0
 10
-72.63671208145506
 20
34.88466300099623
 30
0.0
 10
-72.61176729692463
 20
34.86530124868234
 30
0.0
 10
-72.58901163810171
 20
34.84346654840603
 30
0.0
 10
-72.56821818389238
 20
34.81946982581538
 30
0.0
 10
-72.54967614943959
 20
34.79315390514785
 30
0.0
 10
-72.53342660244137
 20
34.76446030832077
 30
0.0
 10
-72.51901259162139
 20
34.7336303102859
 30
0.0
 10
-72.50673620677873
 20
34.70044553566887
 30
0.0
 10
-72.50061267680702
 20
34.67725376248303
 30
0.0
 10
-72.49748979443638
 20
34.66542640473991
 30
0.0
  0
SPLINE
  5
134
330
1F
100
AcDbEntity
  8
0
  6
Continuous
 62
     7
370
    25
100
AcDbSpline
210
0.0
220
0.0
230
1.0
 70
     8
 71
     3
 72
    23
 73
    19
 74
     0
 42
0.00000001
 43
0.00000001
 40
0.0
 40
0.0
 40
0.0
 40
0.0
 40
0.0673017838097104
 40
0.1315765365218258
 40
0.1937795949963096
 40
0.2540320342883615
 40
0.3127887607901489
 40
0.3705400368736874
 40
0.4278019559897125
 40
0.4851038353998318
 40
0.5425371520779896
 40
0.601488343114255
 40
0.6617251373562408
 40
0.7237634651615639
 40
0.7887196278551433
 40
0.8559493497734654
 40
0.9262818953881421
 40
1.0
 40
1.0
 40
1.0
 40
1.0
 10
-72.62735992430649
 20
34.63255302811654
 30
0.0
 10
-72.62977233807796
 20
34.64099420992552
 30
0.0
 10
-72.63448866253083
 20
34.65749691466385
 30
0.0
 10
-72.64410165817952
 20
34.68089386164304
 30
0.0
 10
-72.65451371932052
 20
34.70291033957318
 30
0.0
 10
-72.66653844962187
 20
34.72328209560965
 30
0.0
 10
-72.67995993302942
 20
34.74204637040078
 30
0.0
 10
-72.69483334555052
 20
34.75917326354289
 30
0.0
 10
-72.71113117400746
 20
34.7746830256484
 30
0.0
 10
-72.72885484606398
 20
34.78845826836118
 30
0.0
 10
-72.7478607094368
 20
34.80083040984202
 30
0.0
 10
-72.76844046589909
 20
34.81121366594834
 30
0.0
 10
-72.79017895433319
 20
34.82052168075717
 30
0.0
 10
-72.8135247014228
 20
34.82776497847674
 30
0.0
 10
-72.83822733120434
 20
34.83339545765638
 30
0.0
 10
-72.8643330357361
 20
34.83742955681637
 30
0.0
 10
-72.89178684620279
 20
34.83990670526789
 30
0.0
 10
-72.91056614999721
 20
34.84019678647815
 30
0.0
 10
-72.92017648274805
 20
34.84034523590874
 30
0.0
  0
SPLINE
  5
135
330
1F
100
AcDbEntity
  8
0
  6
Continuous
 62
     7
370
    25
100
AcDbSpline
210
0.0
220
0.0
230
1.0
 70
     8
 71
     3
 72
    23
 73
    19
 74
     0
 42
0.00000001
 43
0.00000001
 40
0.0
 40
0.0
 40
0.0
 40
0.0
 40
0.0724241203650447
 40
0.140388077004432
 40
0.2050184816480665
 40
0.2666782024675002
 40
0.3264143763623347
 40
0.3842867142271925
 40
0.4420939055057963
 40
0.5000558181397167
 40
0.5584906519706258
 40
0.6168179148426249
 40
0.6757895122165454
 40
0.7361305534343713
 40
0.7981884219229626
 40
0.862746965667377
 40
0.9298993543191727
 40
1.0
 40
1.0
 40
1.0
 40
1.0
 10
-72.92017648274805
 20
34.84034523590874
 30
0.0
 10
-72.93500880851154
 20
34.84009747037508
 30
0.0
 10
-72.96376002676512
 20
34.83961719768909
 30
0.0
 10
-73.00543442581493
 20
34.83408658034749
 30
0.0
 10
-73.04436578731548
 20
34.82577515296333
 30
0.0
 10
-73.08057665083761
 20
34.81373874842457
 30
0.0
 10
-73.11396527237687
 20
34.79834149820442
 30
0.0
 10
-73.14463979443376
 20
34.77950141184088
 30
0.0
 10
-73.17231281436162
 20
34.75704608135545
 30
0.0
 10
-73.19712853939077
 20
34.73133343643525
 30
0.0
 10
-73.21896242443283
 20
34.70292282944525
 30
0.0
 10
-73.23789429251015
 20
34.67227973569792
 30
0.0
 10
-73.25408434511463
 20
34.63965511294246
 30
0.0
 10
-73.2669742232618
 20
34.60478150362531
 30
0.0
 10
-73.27717742713529
 20
34.56785329325135
 30
0.0
 10
-73.28435491324835
 20
34.52881202081321
 30
0.0
 10
-73.28898596856065
 20
34.48771053276535
 30
0.0
 10
-73.28945700790388
 20
34.4596086911255
 30
0.0
 10
-73.28969758664417
 20
34.44525595019446
 30
0.0
  0
SPLINE
  5
136
330
1F
100
AcDbEntity
  8
0
  6
Continuous
 62
     7
370
    25
100
AcDbSpline
210
0.0
220
0.0
230
1.0
 70
     8
 71
     3
 72
    31
 73
    27
 74
     0
 42
0.00000001
 43
0.00000001
 40
0.0
 40
0.0
 40
0.0
 40
0.0
 40
0.0519359869396476
 40
0.1020029162899939
 40
0.1497143697784503
 40
0.1957747669534332
 40
0.2401262884974637
 40
0.2828840822675012
 40
0.3244276362137581
 40
0.3645931514666444
 40
0.4040826679267292
 40
0.4428472944852053
 40
0.4809418526792928
 40
0.5190573976850948
 40
0.5574308363091575
 40
0.5958972477632943
 40
0.6348429927759055
 40
0.6747421555202151
 40
0.7150639934985464
 40
0.755084566424995
 40
0.7949436227801339
 40
0.8354145936688581
 40
0.8756954225659404
 40
0.9165648993791016
 40
0.9578651941139377
 40
1.0
 40
1.0
 40
1.0
 40
1.0
 10
-73.28969758664418
 20
34.44525595019446
 30
0.0
 10
-73.28950523620115
 20
34.43449923304817
 30
0.0
 10
-73.28912745756834
 20
34.41337290844584
 30
0.0
 10
-73.28724455340975
 20
34.38239620176635
 30
0.0
 10
-73.28342550118931
 20
34.35283392109611
 30
0.0
 10
-73.27874778716604
 20
34.32459405957482
 30
0.0
 10
-73.27221769428887
 20
34.29776265437128
 30
0.0
 10
-73.26420503057555
 20
34.27233772907442
 30
0.0
 10
-73.2552884415098
 20
34.24811685479926
 30
0.0
 10
-73.24434101415369
 20
34.22549021075518
 30
0.0
 10
-73.23224229361566
 20
34.20412687028313
 30
0.0
 10
-73.21858351713554
 20
34.18423726241071
 30
0.0
 10
-73.20369914572296
 20
34.16561425294017
 30
0.0
 10
-73.18738417875319
 20
34.14834591984884
 30
0.0
 10
-73.16981208028996
 20
34.1322264876933
 30
0.0
 10
-73.15055076747406
 20
34.11788482514126
 30
0.0
 10
-73.13019196527397
 20
34.10459003113321
 30
0.0
 10
-73.1085411431811
 20
34.09268033061674
 30
0.0
 10
-73.08590876347674
 20
34.08224253731346
 30
0.0
 10
-73.06274245934405
 20
34.07308463211815
 30
0.0
 10
-73.0390459269774
 20
34.06528061711961
 30
0.0
 10
-73.01482498260451
 20
34.05909679777935
 30
0.0
 10
-72.99010954792764
 20
34.05412702017185
 30
0.0
 10
-72.96495261509035
 20
34.05081949613361
 30
0.0
 10
-72.93929944395059
 20
34.04836215271871
 30
0.0
 10
-72.92200888231724
 20
34.04821284449647
 30
0.0
 10
-72.9132771320987
 20
34.04813744370096
 30
0.0
  0
SPLINE
  5
137
330
1F
100
AcDbEntity
  8
0
  6
Continuous
 62
     7
370
    25
100
AcDbSpline
210
0.0
220
0.0
230
1.0
 70
     8
 71
     3
 72
    15
 73
    11
 74
     0
 42
0.00000001
 43
0.00000001
 40
0.0
 40
0.0
 40
0.0
 40
0.0
 40
0.1238582141915415
 40
0.246581440326008
 40
0.3685601172321975
 40
0.4910280677233634
 40
0.6147397412569265
 40
0.7404034009554044
 40
0.8682981600835844
 40
1.0
 40
1.0
 40
1.0
 40
1.0
 10
-72.91327713209871
 20
34.04813744370097
 30
0.0
 10
-72.90000771710044
 20
34.04847095037121
 30
0.0
 10
-72.87359048281432
 20
34.0491349075875
 30
0.0
 10
-72.83431560465708
 20
34.05381714747691
 30
0.0
 10
-72.79581037192378
 20
34.06206953982408
 30
0.0
 10
-72.7579665536253
 20
34.07328596722169
 30
0.0
 10
-72.72066107040601
 20
34.08740724274121
 30
0.0
 10
-72.68436652394536
 20
34.10528195645359
 30
0.0
 10
-72.648575828021
 20
34.12593630426117
 30
0.0
 10
-72.62588480764103
 20
34.14203822048518
 30
0.0
 10
-72.61437291131949
 20
34.15020724889576
 30
0.0
  0
SPLINE
  5
149
330
1F
100
AcDbEntity
  8
0
  6
Continuous
 62
     7
370
    25
100
AcDbSpline
210
0.0
220
0.0
230
1.0
 70
     8
 71
     3
 72
    31
 73
    27
 74
     0
 42
0.00000001
 43
0.00000001
 40
0.0
 40
0.0
 40
0.0
 40
0.0
 40
0.0534028933776159
 40
0.1038652078036263
 40
0.1514849233751206
 40
0.1962805342361069
 40
0.2404530950552663
 40
0.2869214034240499
 40
0.3354278404189736
 40
0.3870717843441346
 40
0.4138688267631365
 40
0.4418229303758375
 40
0.4702065216250319
 40
0.5001440324870169
 40
0.5313338222986548
 40
0.5639238436603319
 40
0.5983375186541542
 40
0.6341005822256446
 40
0.6717921636245769
 40
0.7117555049324797
 40
0.7537426885036105
 40
0.7979712356353457
 40
0.8444974956207976
 40
0.8937989426481917
 40
0.9456023638770652
 40
1.0
 40
1.0
 40
1.0
 40
1.0
 10
-70.91449466456625
 20
34.06112445668797
 30
0.0
 10
-70.9036040689114
 20
34.06127809396461
 30
0.0
 10
-70.88242255777496
 20
34.06157690862902
 30
0.0
 10
-70.85153718105919
 20
34.06282844846914
 30
0.0
 10
-70.82253015290235
 20
34.06566944968921
 30
0.0
 10
-70.79483009699007
 20
34.0687531069709
 30
0.0
 10
-70.76776524640997
 20
34.07465805103575
 30
0.0
 10
-70.74103671807862
 20
34.08439706178424
 30
0.0
 10
-70.71401341962095
 20
34.09729662610398
 30
0.0
 10
-70.69184582681933
 20
34.11077238957547
 30
0.0
 10
-70.67427983370627
 20
34.12355047624912
 30
0.0
 10
-70.66163112402695
 20
34.1348847796598
 30
0.0
 10
-70.64950110447242
 20
34.14765407248828
 30
0.0
 10
-70.63798335709936
 20
34.16184301442736
 30
0.0
 10
-70.62703156085628
 20
34.17752520278505
 30
0.0
 10
-70.61661720432605
 20
34.19465113355314
 30
0.0
 10
-70.60701622985968
 20
34.21329555613284
 30
0.0
 10
-70.59775898398091
 20
34.23326405306207
 30
0.0
 10
-70.58942368376772
 20
34.25486183179409
 30
0.0
 10
-70.58212661460979
 20
34.278167823232
 30
0.0
 10
-70.57614076811728
 20
34.30321112194167
 30
0.0
 10
-70.57100810874803
 20
34.32980616071831
 30
0.0
 10
-70.56725917539235
 20
34.35813714459372
 30
0.0
 10
-70.5643822409059
 20
34.38811699277387
 30
0.0
 10
-70.56281377961363
 20
34.41980636232758
 30
0.0
 10
-70.56255659358021
 20
34.44146651707628
 30
0.0
 10
-70.56242485937143
 20
34.45256114499966
 30
0.0
  0
SPLINE
  5
14A
330
1F
100
AcDbEntity
  8
0
  6
Continuous
 62
     7
370
    25
100
AcDbSpline
210
0.0
220
0.0
230
1.0
 70
     8
 71
     3
 72
    27
 73
    23
 74
     0
 42
0.00000001
 43
0.00000001
 40
0.0
 40
0.0
 40
0.0
 40
0.0
 40
0.061357022876393
 40
0.1211746961386
 40
0.1789078765427421
 40
0.2350408140677586
 40
0.2900576853507188
 40
0.3441079941254033
 40
0.3977701902962869
 40
0.4514704777855809
 40
0.5039153896004539
 40
0.5530315473112802
 40
0.5997253730854438
 40
0.6448138964382865
 40
0.6882286556224636
 40
0.72972902390474
 40
0.7692223121966406
 40
0.8075685074235599
 40
0.8478802858207193
 40
0.8931247469652941
 40
0.9440464515813487
 40
1.0
 40
1.0
 40
1.0
 40
1.0
 10
-70.56242485937143
 20
34.45256114499966
 30
0.0
 10
-70.56256027793508
 20
34.46487659555321
 30
0.0
 10
-70.56282771762709
 20
34.48919852169431
 30
0.0
 10
-70.5655572802575
 20
34.52502483676268
 30
0.0
 10
-70.56983590618692
 20
34.55962195015706
 30
0.0
 10
-70.57549959972236
 20
34.59306782777539
 30
0.0
 10
-70.58385803058447
 20
34.62518579627174
 30
0.0
 10
-70.59463339991413
 20
34.65608528634881
 30
0.0
 10
-70.60912524733465
 20
34.68512844929568
 30
0.0
 10
-70.62574274702273
 20
34.71260370472078
 30
0.0
 10
-70.64458512899736
 20
34.73749596334654
 30
0.0
 10
-70.66493601520472
 20
34.7592778405358
 30
0.0
 10
-70.686759813553
 20
34.77741974465232
 30
0.0
 10
-70.71007035871824
 20
34.79145323832577
 30
0.0
 10
-70.73361186968191
 20
34.80274674527308
 30
0.0
 10
-70.75691589755913
 20
34.81180930251838
 30
0.0
 10
-70.78006245301763
 20
34.81811629068983
 30
0.0
 10
-70.80343977760866
 20
34.82226115581025
 30
0.0
 10
-70.82821732600523
 20
34.82453406792882
 30
0.0
 10
-70.85556187712442
 20
34.82610939514714
 30
0.0
 10
-70.88607853909012
 20
34.82710708521984
 30
0.0
 10
-70.90752692467218
 20
34.82727192341306
 30
0.0
 10
-70.91875602820261
 20
34.82735822292173
 30
0.0
  0
SPLINE
  5
14F
330
1F
100
AcDbEntity
  8
0
  6
Continuous
 62
     7
370
    25
100
AcDbSpline
210
0.0
220
0.0
230
1.0
 70
     8
 71
     3
 72
    27
 73
    23
 74
     0
 42
0.00000001
 43
0.00000001
 40
0.0
 40
0.0
 40
0.0
 40
0.0
 40
0.0551940989338533
 40
0.1066083018657285
 40
0.1538130873243989
 40
0.1973467517472191
 40
0.2387957105872073
 40
0.2804757623618236
 40
0.3226548556564529
 40
0.3658903407863657
 40
0.409694322739124
 40
0.4542740452440678
 40
0.5001410169675831
 40
0.547408107251744
 40
0.5960802237312927
 40
0.6458093241907951
 40
0.6969390486384487
 40
0.7495458938666922
 40
0.8053124267686605
 40
0.8651440259606934
 40
0.9300306565586552
 40
1.0
 40
1.0
 40
1.0
 40
1.0
 10
-70.91672680742337
 20
34.94424133980485
 30
0.0
 10
-70.90204828134841
 20
34.94410318090002
 30
0.0
 10
-70.87369646894508
 20
34.94383632472307
 30
0.0
 10
-70.8327988442675
 20
34.94240550864973
 30
0.0
 10
-70.79512287583991
 20
34.93918905090717
 30
0.0
 10
-70.76015260231523
 20
34.93544114621328
 30
0.0
 10
-70.72700755850212
 20
34.92915135848233
 30
0.0
 10
-70.69500250600532
 20
34.91961531185082
 30
0.0
 10
-70.66382249253789
 20
34.9064200041155
 30
0.0
 10
-70.63342476428059
 20
34.89028879905816
 30
0.0
 10
-70.60426979715736
 20
34.87078418293297
 30
0.0
 10
-70.57696802327017
 20
34.84766510463435
 30
0.0
 10
-70.55155805484397
 20
34.82119651292607
 30
0.0
 10
-70.5282955688854
 20
34.79144296407488
 30
0.0
 10
-70.50700583556733
 20
34.75902283341048
 30
0.0
 10
-70.48810547665555
 20
34.72397537451807
 30
0.0
 10
-70.47172231029907
 20
34.68654877175666
 30
0.0
 10
-70.45752669984569
 20
34.64653720299195
 30
0.0
 10
-70.4459681168613
 20
34.60324672599439
 30
0.0
 10
-70.43836074004207
 20
34.55579619426632
 30
0.0
 10
-70.4333726537372
 20
34.50421027180079
 30
0.0
 10
-70.43283413647343
 20
34.46833430218901
 30
0.0
 10
-70.4325547295013
 20
34.44972023590875
 30
0.0
  0
SPLINE
  5
150
330
1F
100
AcDbEntity
  8
0
  6
Continuous
 62
     7
370
    25
100
AcDbSpline
210
0.0
220
0.0
230
1.0
 70
     8
 71
     3
 72
    31
 73
    27
 74
     0
 42
0.00000001
 43
0.00000001
 40
0.0
 40
0.0
 40
0.0
 40
0.0
 40
0.0683486142753583
 40
0.1338995602408465
 40
0.1968965944391922
 40
0.257755307689497
 40
0.3168828309402034
 40
0.374281537919233
 40
0.4310597625669357
 40
0.4871207081015707
 40
0.5150778391675384
 40
0.5428788103585036
 40
0.570679781549469
 40
0.5989979369759079
 40
0.6274242017610338
 40
0.6565416965559626
 40
0.6861756584943353
 40
0.7166621361157173
 40
0.74801897764595
 40
0.7801231712502451
 40
0.813698694078333
 40
0.8481565305241037
 40
0.8841883643950424
 40
0.9213467738316691
 40
0.9599265584066354
 40
1.0
 40
1.0
 40
1.0
 40
1.0
 10
-70.4325547295013
 20
34.44972023590875
 30
0.0
 10
-70.43282725512368
 20
34.43171382076499
 30
0.0
 10
-70.43336115125865
 20
34.39643803507679
 30
0.0
 10
-70.43869386405615
 20
34.34480258396045
 30
0.0
 10
-70.44658960018484
 20
34.29551622509295
 30
0.0
 10
-70.45815394109319
 20
34.24866547575823
 30
0.0
 10
-70.47322180092374
 20
34.2043934463753
 30
0.0
 10
-70.49130592106107
 20
34.16242539561998
 30
0.0
 10
-70.51284721976351
 20
34.12303098154815
 30
0.0
 10
-70.53353452981207
 20
34.0921922678278
 30
0.0
 10
-70.55179748055033
 20
34.06905475027106
 30
0.0
 10
-70.56695206130642
 20
34.05306963320376
 30
0.0
 10
-70.58301736299693
 20
34.03786586665337
 30
0.0
 10
-70.60045808815212
 20
34.02398956652073
 30
0.0
 10
-70.61901141191507
 20
34.01102317931817
 30
0.0
 10
-70.63895455243052
 20
33.99960247620399
 30
0.0
 10
-70.6599260355199
 20
33.98897459292363
 30
0.0
 10
-70.68206111271056
 20
33.97941969260376
 30
0.0
 10
-70.7053906324835
 20
33.9711201925439
 30
0.0
 10
-70.72996920982526
 20
33.96409276138104
 30
0.0
 10
-70.75556371889695
 20
33.95767867350156
 30
0.0
 10
-70.78257378375113
 20
33.95292758387541
 30
0.0
 10
-70.81066854593814
 20
33.94910233712014
 30
0.0
 10
-70.83997212398454
 20
33.94621451986397
 30
0.0
 10
-70.87044297375583
 20
33.94463407612282
 30
0.0
 10
-70.89115691825661
 20
33.94437389886843
 30
0.0
 10
-70.90171057365716
 20
33.94424133980485
 30
0.0
  0
SPLINE
  5
153
330
1F
100
AcDbEntity
  8
0
  6
Continuous
 62
     7
370
    25
100
AcDbSpline
210
0.0
220
0.0
230
1.0
 70
     8
 71
     3
 72
    23
 73
    19
 74
     0
 42
0.00000001
 43
0.00000001
 40
0.0
 40
0.0
 40
0.0
 40
0.0
 40
0.0780366287445473
 40
0.1516755730927855
 40
0.2216760896824844
 40
0.2881976632747229
 40
0.3522616415778711
 40
0.414106519974156
 40
0.4744641440731457
 40
0.5346013418604186
 40
0.5936250438401884
 40
0.65118431445839
 40
0.7077885997433421
 40
0.7643067605043535
 40
0.8210747310333328
 40
0.8788160737061683
 40
0.9382978161913056
 40
1.0
 40
1.0
 40
1.0
 40
1.0
 10
-72.64267464887185
 20
36.89879918482851
 30
0.0
 10
-72.6429813700244
 20
36.91430144135891
 30
0.0
 10
-72.64357752733333
 20
36.94443233862226
 30
0.0
 10
-72.64833143650227
 20
36.98826141493668
 30
0.0
 10
-72.65593229759222
 20
37.0293450104145
 30
0.0
 10
-72.66664145368871
 20
37.06778421745089
 30
0.0
 10
-72.68065444854024
 20
37.10341701789164
 30
0.0
 10
-72.69774270168158
 20
37.13630629233833
 30
0.0
 10
-72.71796079504901
 20
37.16645804801799
 30
0.0
 10
-72.74132337669475
 20
37.19348954886737
 30
0.0
 10
-72.76685620802733
 20
37.21766517715633
 30
0.0
 10
-72.79421964389299
 20
37.23858333724874
 30
0.0
 10
-72.82290902541753
 20
37.25678240472514
 30
0.0
 10
-72.85357553556045
 20
37.27101853747561
 30
0.0
 10
-72.88555829203663
 20
37.28264975531527
 30
0.0
 10
-72.91930767935976
 20
37.29035579053427
 30
0.0
 10
-72.95454529437289
 20
37.29545777433052
 30
0.0
 10
-72.97862730374136
 20
37.29603144466014
 30
0.0
 10
-72.99088893458612
 20
37.29632353547785
 30
0.0
  0
SPLINE
  5
154
330
1F
100
AcDbEntity
  8
0
  6
Continuous
 62
     7
370
    25
100
AcDbSpline
210
0.0
220
0.0
230
1.0
 70
     8
 71
     3
 72
    23
 73
    19
 74
     0
 42
0.00000001
 43
0.00000001
 40
0.0
 40
0.0
 40
0.0
 40
0.0
 40
0.0614947663753969
 40
0.1204514614956318
 40
0.1777412514798482
 40
0.2335199247063332
 40
0.2889345630520976
 40
0.344167765744874
 40
0.3998583472360183
 40
0.4568961952918801
 40
0.5149728346949775
 40
0.5740626234206129
 40
0.6356646371116753
 40
0.7001498954704465
 40
0.7682590020217971
 40
0.8407020000133218
 40
0.9177099631894702
 40
1.0
 40
1.0
 40
1.0
 40
1.0
 10
-72.99088893458612
 20
37.29632353547785
 30
0.0
 10
-73.00348405993911
 20
37.29600657523288
 30
0.0
 10
-73.0281544724947
 20
37.29538573663161
 30
0.0
 10
-73.06432172260752
 20
37.29066234175926
 30
0.0
 10
-73.09868575257723
 20
37.28272472050087
 30
0.0
 10
-73.13150562095417
 20
37.27183945472233
 30
0.0
 10
-73.16234557700075
 20
37.25719273599938
 30
0.0
 10
-73.19182646728238
 20
37.24001825613637
 30
0.0
 10
-73.21933874240108
 20
37.21925543393543
 30
0.0
 10
-73.24515858896793
 20
37.19558483259849
 30
0.0
 10
-73.26865666986363
 20
37.16860494561241
 30
0.0
 10
-73.2887808723446
 20
37.13792401809729
 30
0.0
 10
-73.30622627962268
 20
37.10415343226217
 30
0.0
 10
-73.31975035752063
 20
37.06667324356085
 30
0.0
 10
-73.33086472878063
 20
37.02613219285346
 30
0.0
 10
-73.33831998195211
 20
36.98215204534044
 30
0.0
 10
-73.34308825067686
 20
36.93488934025618
 30
0.0
 10
-73.34367186640968
 20
36.90226129691305
 30
0.0
 10
-73.34397335017054
 20
36.88540632768564
 30
0.0
  0
SPLINE
  5
155
330
1F
100
AcDbEntity
  8
0
  6
Continuous
 62
     7
370
    25
100
AcDbSpline
210
0.0
220
0.0
230
1.0
 70
     8
 71
     3
 72
    23
 73
    19
 74
     0
 42
0.00000001
 43
0.00000001
 40
0.0
 40
0.0
 40
0.0
 40
0.0
 40
0.0715330450179885
 40
0.1399562683346345
 40
0.205808102479633
 40
0.2694632531508112
 40
0.3316890274209858
 40
0.3928307833447855
 40
0.4538531177751109
 40
0.5150147546111564
 40
0.5756683948037833
 40
0.6350263719468457
 40
0.6934595655549058
 40
0.7522536661754519
 40
0.8114763099072766
 40
0.8721119076687947
 40
0.9347378956496148
 40
1.0
 40
1.0
 40
1.0
 40
1.0
 10
-73.34397335017054
 20
36.88540632768564
 30
0.0
 10
-73.34363526007783
 20
36.87152967460813
 30
0.0
 10
-73.34297377799328
 20
36.84437964092489
 30
0.0
 10
-73.33857231745303
 20
36.80462917628121
 30
0.0
 10
-73.33075368349166
 20
36.76699614633689
 30
0.0
 10
-73.32036115717753
 20
36.73121957398089
 30
0.0
 10
-73.30638354360588
 20
36.69767384920848
 30
0.0
 10
-73.28979142119756
 20
36.66591629599315
 30
0.0
 10
-73.26972277135873
 20
36.63646732031702
 30
0.0
 10
-73.24706788230623
 20
36.60911903400309
 30
0.0
 10
-73.2220576115983
 20
36.58431620959468
 30
0.0
 10
-73.19468607076254
 20
36.56301276575849
 30
0.0
 10
-73.1656671837078
 20
36.5446860593926
 30
0.0
 10
-73.13470427601544
 20
36.52991982254711
 30
0.0
 10
-73.10200260781117
 20
36.51826249781766
 30
0.0
 10
-73.06753307549242
 20
36.5099369401002
 30
0.0
 10
-73.03121083247046
 20
36.50501110920807
 30
0.0
 10
-73.00639402028062
 20
36.50441827190468
 30
0.0
 10
-72.99372984367703
 20
36.50411574327006
 30
0.0
  0
SPLINE
  5
156
330
1F
100
AcDbEntity
  8
0
  6
Continuous
 62
     7
370
    25
100
AcDbSpline
210
0.0
220
0.0
230
1.0
 70
     8
 71
     3
 72
    23
 73
    19
 74
     0
 42
0.00000001
 43
0.00000001
 40
0.0
 40
0.0
 40
0.0
 40
0.0
 40
0.0640786158739436
 40
0.1255799349716571
 40
0.1847204758699369
 40
0.2428813116128959
 40
0.2998485385848833
 40
0.3570270796042604
 40
0.4147315250840132
 40
0.4734933942427374
 40
0.5332270527556351
 40
0.5936737870182431
 40
0.6548982483783978
 40
0.7178816722312503
 40
0.7834150774327797
 40
0.8520716335348739
 40
0.9240117276759138
 40
1.0
 40
1.0
 40
1.0
 40
1.0
 10
-72.99372984367703
 20
36.50411574327006
 30
0.0
 10
-72.98099707296086
 20
36.50441375043977
 30
0.0
 10
-72.9560436544649
 20
36.50499777867577
 30
0.0
 10
-72.91961529507728
 20
36.50997733138987
 30
0.0
 10
-72.88496824158644
 20
36.51803824734424
 30
0.0
 10
-72.8522822312458
 20
36.52965699968526
 30
0.0
 10
-72.82134116365978
 20
36.54440619221846
 30
0.0
 10
-72.79213106154353
 20
36.56222909154125
 30
0.0
 10
-72.76513966108804
 20
36.58381173349758
 30
0.0
 10
-72.73985512364973
 20
36.60809539484548
 30
0.0
 10
-72.71717693977399
 20
36.63555858727011
 30
0.0
 10
-72.69717145622565
 20
36.66561781873425
 30
0.0
 10
-72.68057216521412
 20
36.6984026828382
 30
0.0
 10
-72.66665646781723
 20
36.73348510392983
 30
0.0
 10
-72.6559495778897
 20
36.77122658938826
 30
0.0
 10
-72.64834446940883
 20
36.81149773160288
 30
0.0
 10
-72.6435812178188
 20
36.85431330521179
 30
0.0
 10
-72.64298230179298
 20
36.88370247226096
 30
0.0
 10
-72.64267464887183
 20
36.8987991848285
 30
0.0
  0
SPLINE
  5
157
330
1F
100
AcDbEntity
  8
0
  6
Continuous
 62
     7
370
    25
100
AcDbSpline
210
0.0
220
0.0
230
1.0
 70
     8
 71
     3
 72
    23
 73
    19
 74
     0
 42
0.00000001
 43
0.00000001
 40
0.0
 40
0.0
 40
0.0
 40
0.0
 40
0.0652639981715696
 40
0.1279613539254543
 40
0.1888587256405852
 40
0.2481235067451933
 40
0.3069155083607341
 40
0.3656918159664841
 40
0.4251525252462726
 40
0.4857967001206402
 40
0.546968846516871
 40
0.6078516081222166
 40
0.6688425097090536
 40
0.730965471625064
 40
0.7945499308256533
 40
0.8600995540190586
 40
0.9285900601046416
 40
1.0
 40
1.0
 40
1.0
 40
1.0
 10
-72.99230938913158
 20
37.41320665236097
 30
0.0
 10
-72.97510435247837
 20
37.41280389913684
 30
0.0
 10
-72.94137090300912
 20
37.41201423179651
 30
0.0
 10
-72.89199718350334
 20
37.40503952335604
 30
0.0
 10
-72.84495897888667
 20
37.39429075667171
 30
0.0
 10
-72.8003519234817
 20
37.37870079274364
 30
0.0
 10
-72.75813961562928
 20
37.35877006355278
 30
0.0
 10
-72.71833297403661
 20
37.33426237030087
 30
0.0
 10
-72.68108823514802
 20
37.30523764210938
 30
0.0
 10
-72.64644810938543
 20
37.27223153485207
 30
0.0
 10
-72.61510624378968
 20
37.23559157128606
 30
0.0
 10
-72.58746277756053
 20
37.19594181458717
 30
0.0
 10
-72.56459060462215
 20
37.15309771240631
 30
0.0
 10
-72.5452754068984
 20
37.10776607625582
 30
0.0
 10
-72.53084653769248
 20
37.05938377434979
 30
0.0
 10
-72.52023890388406
 20
37.00835226073455
 30
0.0
 10
-72.51387431763544
 20
36.9544937723924
 30
0.0
 10
-72.51316604527416
 20
36.91762053681243
 30
0.0
 10
-72.5128045190017
 20
36.8987991848285
 30
0.0
  0
SPLINE
  5
158
330
1F
100
AcDbEntity
  8
0
  6
Continuous
 62
     7
370
    25
100
AcDbSpline
210
0.0
220
0.0
230
1.0
 70
     8
 71
     3
 72
    23
 73
    19
 74
     0
 42
0.00000001
 43
0.00000001
 40
0.0
 40
0.0
 40
0.0
 40
0.0
 40
0.0713837557260378
 40
0.1398707221008085
 40
0.2053804392614337
 40
0.2689243772135533
 40
0.3307741537823193
 40
0.3918594476491029
 40
0.4527277454262862
 40
0.5140709077294469
 40
0.5749212238148704
 40
0.6344169000307949
 40
0.6932489265864379
 40
0.7521215238494586
 40
0.811578170050086
 40
0.8721712567460589
 40
0.9347820079417264
 40
1.0
 40
1.0
 40
1.0
 40
1.0
 10
-72.5128045190017
 20
36.8987991848285
 30
0.0
 10
-72.51314193915583
 20
36.88004254909706
 30
0.0
 10
-72.51380308678146
 20
36.84329043151437
 30
0.0
 10
-72.52050700995868
 20
36.7896661492988
 30
0.0
 10
-72.5310354569043
 20
36.73881987589871
 30
0.0
 10
-72.5454524154069
 20
36.69069726544566
 30
0.0
 10
-72.56480061855171
 20
36.64560638159028
 30
0.0
 10
-72.58791336659523
 20
36.60313431235156
 30
0.0
 10
-72.61549569323999
 20
36.56355533557561
 30
0.0
 10
-72.64707407112351
 20
36.52718404837812
 30
0.0
 10
-72.68188842919848
 20
36.49444002089199
 30
0.0
 10
-72.71914680335581
 20
36.46555791239487
 30
0.0
 10
-72.75895708580643
 20
36.44124992239038
 30
0.0
 10
-72.80120988082915
 20
36.42156279905317
 30
0.0
 10
-72.84564880836508
 20
36.40601968172337
 30
0.0
 10
-72.89244397371786
 20
36.39509976690195
 30
0.0
 10
-72.94159277032034
 20
36.38850093844336
 30
0.0
 10
-72.97517552754358
 20
36.38766110690741
 30
0.0
 10
-72.99230938913158
 20
36.38723262638694
 30
0.0
  0
SPLINE
  5
159
330
1F
100
AcDbEntity
  8
0
  6
Continuous
 62
     7
370
    25
100
AcDbSpline
210
0.0
220
0.0
230
1.0
 70
     8
 71
     3
 72
    23
 73
    19
 74
     0
 42
0.00000001
 43
0.00000001
 40
0.0
 40
0.0
 40
0.0
 40
0.0
 40
0.0680963821042722
 40
0.1333483120022162
 40
0.1963220579941951
 40
0.2574138969809665
 40
0.3179229030844389
 40
0.3782423883887429
 40
0.4390639020121587
 40
0.5013666885033532
 40
0.5637463190419637
 40
0.6249131906793365
 40
0.6855780917215428
 40
0.7461964905724059
 40
0.8074505068053589
 40
0.8698802257301438
 40
0.933737441507451
 40
1.0
 40
1.0
 40
1.0
 40
1.0
 10
-72.99230938913158
 20
36.38723262638694
 30
0.0
 10
-73.00998800923816
 20
36.38762184324243
 30
0.0
 10
-73.04460679627051
 20
36.38838401898627
 30
0.0
 10
-73.09516106190367
 20
36.39551580832368
 30
0.0
 10
-73.14305080058772
 20
36.40675783737328
 30
0.0
 10
-73.18833510191989
 20
36.42267359581769
 30
0.0
 10
-73.230900173628
 20
36.44329089414271
 30
0.0
 10
-73.27097650470625
 20
36.46830422695933
 30
0.0
 10
-73.30807035107955
 20
36.49829881771119
 30
0.0
 10
-73.34233084028077
 20
36.53221272953061
 30
0.0
 10
-73.37321991520001
 20
36.56934819151902
 30
0.0
 10
-73.4001333716955
 20
36.60893393862317
 30
0.0
 10
-73.42303046693252
 20
36.65046119694629
 30
0.0
 10
-73.44151686145828
 20
36.69415359332955
 30
0.0
 10
-73.45599296368174
 20
36.73981050435856
 30
0.0
 10
-73.46623541292549
 20
36.78743835368146
 30
0.0
 10
-73.47279724412776
 20
36.83706324156947
 30
0.0
 10
-73.4734904632117
 20
36.87084248043627
 30
0.0
 10
-73.47384348004067
 20
36.88804431469863
 30
0.0
  0
SPLINE
  5
15A
330
1F
100
AcDbEntity
  8
0
  6
Continuous
 62
     7
370
    25
100
AcDbSpline
210
0.0
220
0.0
230
1.0
 70
     8
 71
     3
 72
    23
 73
    19
 74
     0
 42
0.00000001
 43
0.00000001
 40
0.0
 40
0.0
 40
0.0
 40
0.0
 40
0.0740374934847793
 40
0.1444279617150065
 40
0.2116365208781421
 40
0.2761254348850316
 40
0.3385443701055066
 40
0.3994365241179648
 40
0.4596053607504059
 40
0.5197853259720097
 40
0.5792719179372376
 40
0.6378139781389551
 40
0.6955050088741526
 40
0.753464600996776
 40
0.8124840586258395
 40
0.872639644253497
 40
0.9350376300069457
 40
1.0
 40
1.0
 40
1.0
 40
1.0
 10
-73.47384348004067
 20
36.88804431469863
 30
0.0
 10
-73.47348842117597
 20
36.9078801354316
 30
0.0
 10
-73.47279579335046
 20
36.94657468089181
 30
0.0
 10
-73.46640515102551
 20
37.00298944492089
 30
0.0
 10
-73.45589510249863
 20
37.05614206231288
 30
0.0
 10
-73.44137414781005
 20
37.10615204130868
 30
0.0
 10
-73.42240888294272
 20
37.15283350974499
 30
0.0
 10
-73.39943680346647
 20
37.19637732492205
 30
0.0
 10
-73.37208884653738
 20
37.23661474432742
 30
0.0
 10
-73.34063253058606
 20
37.2732126507567
 30
0.0
 10
-73.30594928059845
 20
37.30612791466529
 30
0.0
 10
-73.26852560089351
 20
37.33480654662787
 30
0.0
 10
-73.22866948470836
 20
37.35924540230436
 30
0.0
 10
-73.18613574296687
 20
37.37895616743972
 30
0.0
 10
-73.14118928540735
 20
37.39440872123382
 30
0.0
 10
-73.09372897406209
 20
37.40536318721001
 30
0.0
 10
-73.04383363310673
 20
37.4119329704596
 30
0.0
 10
-73.00971314101712
 20
37.41277643073941
 30
0.0
 10
-72.99230938913158
 20
37.41320665236097
 30
0.0
  0
SPLINE
  5
15B
330
1F
100
AcDbEntity
  8
0
  6
Continuous
 62
     7
370
    25
100
AcDbSpline
210
0.0
220
0.0
230
1.0
 70
     8
 71
     3
 72
    23
 73
    19
 74
     0
 42
0.00000001
 43
0.00000001
 40
0.0
 40
0.0
 40
0.0
 40
0.0
 40
0.0424772517422371
 40
0.0856498426812227
 40
0.1295241560119576
 40
0.1747392652625859
 40
0.2207872859387583
 40
0.2686918309023184
 40
0.3185063589088551
 40
0.3703815457379682
 40
0.4263202099207659
 40
0.4886066751417437
 40
0.5571296491666466
 40
0.6322768469443641
 40
0.7141486048484741
 40
0.8028492197059257
 40
0.8978374942361883
 40
1.0
 40
1.0
 40
1.0
 40
1.0
 10
-71.6930007915616
 20
41.57959152844781
 30
0.0
 10
-71.69276504466393
 20
41.58656469129456
 30
0.0
 10
-71.69228969176628
 20
41.60062516546171
 30
0.0
 10
-71.6896809960274
 20
41.62177431203288
 30
0.0
 10
-71.68487416723293
 20
41.64297929711762
 30
0.0
 10
-71.67844985146894
 20
41.66424476863741
 30
0.0
 10
-71.66995796838788
 20
41.68548227062625
 30
0.0
 10
-71.65988862662434
 20
41.70686141588754
 30
0.0
 10
-71.64749486336616
 20
41.72809069191143
 30
0.0
 10
-71.63366459464575
 20
41.74998460123152
 30
0.0
 10
-71.6168756302116
 20
41.77234448967884
 30
0.0
 10
-71.59709373379093
 20
41.79578378938733
 30
0.0
 10
-71.574395595532
 20
41.82087587405617
 30
0.0
 10
-71.54798279914453
 20
41.84685263194331
 30
0.0
 10
-71.51888519675052
 20
41.87481231298997
 30
0.0
 10
-71.48614433927028
 20
41.90363256790194
 30
0.0
 10
-71.45031734571974
 20
41.93396220086253
 30
0.0
 10
-71.4251817633585
 20
41.95436693015765
 30
0.0
 10
-71.41215663571744
 20
41.96494055442184
 30
0.0
  0
SPLINE
  5
15C
330
1F
100
AcDbEntity
  8
0
  6
Continuous
 62
     7
370
    25
100
AcDbSpline
210
0.0
220
0.0
230
1.0
 70
     8
 71
     3
 72
    19
 73
    15
 74
     0
 42
0.00000001
 43
0.00000001
 40
0.0
 40
0.0
 40
0.0
 40
0.0
 40
0.1439471571697245
 40
0.2845197153858163
 40
0.4209271663822438
 40
0.5547805252091524
 40
0.6191292116949426
 40
0.680323866056303
 40
0.7385592503161386
 40
0.7939136893612903
 40
0.8474346555959553
 40
0.899339450293123
 40
0.9499438916493481
 40
1.0
 40
1.0
 40
1.0
 40
1.0
 10
-71.41215663571744
 20
41.96494055442184
 30
0.0
 10
-71.39602664883584
 20
41.97814756668539
 30
0.0
 10
-71.36414481548141
 20
42.00425197502665
 30
0.0
 10
-71.31869693307098
 20
42.04492122610448
 30
0.0
 10
-71.27642541123252
 20
42.08680284646059
 30
0.0
 10
-71.24315902065243
 20
42.1220772298139
 30
0.0
 10
-71.21904310681191
 20
42.15089141487023
 30
0.0
 10
-71.20321069241416
 20
42.17233205494482
 30
0.0
 10
-71.19034975441696
 20
42.19416368668413
 30
0.0
 10
-71.17931302275653
 20
42.21573542830285
 30
0.0
 10
-71.17107097494055
 20
42.23755247536968
 30
0.0
 10
-71.16479522317655
 20
42.25929330261106
 30
0.0
 10
-71.1613148962446
 20
42.28118363613269
 30
0.0
 10
-71.16079285690101
 20
42.29576017068784
 30
0.0
 10
-71.16053325909408
 20
42.30300873624003
 30
0.0
  0
SPLINE
  5
15D
330
1F
100
AcDbEntity
  8
0
  6
Continuous
 62
     7
370
    25
100
AcDbSpline
210
0.0
220
0.0
230
1.0
 70
     8
 71
     3
 72
    23
 73
    19
 74
     0
 42
0.00000001
 43
0.00000001
 40
0.0
 40
0.0
 40
0.0
 40
0.0
 40
0.0644848008942974
 40
0.1273482216467994
 40
0.1877637112662275
 40
0.2473294089424896
 40
0.3062334131877192
 40
0.3664024640277957
 40
0.4265459635676137
 40
0.4888033392772987
 40
0.5513071171731034
 40
0.6130562946349709
 40
0.6745851983741241
 40
0.7368055295939456
 40
0.7997463307647701
 40
0.8641874171863604
 40
0.930509246075064
 40
0.9999999999999999
 40
0.9999999999999999
 40
0.9999999999999999
 40
0.9999999999999999
 10
-71.16053325909407
 20
42.30300873624002
 30
0.0
 10
-71.16068517298444
 20
42.3091049477818
 30
0.0
 10
-71.16098518110286
 20
42.32114409015119
 30
0.0
 10
-71.16347431333412
 20
42.33874726159711
 30
0.0
 10
-71.16745682134844
 20
42.35559941108349
 30
0.0
 10
-71.17348832237322
 20
42.37142700164345
 30
0.0
 10
-71.18077938448576
 20
42.38668360837029
 30
0.0
 10
-71.18994306002394
 20
42.4009694781595
 30
0.0
 10
-71.20058579479888
 20
42.41458624870965
 30
0.0
 10
-71.21292422276754
 20
42.4270097030887
 30
0.0
 10
-71.22646420316175
 20
42.43832868079607
 30
0.0
 10
-71.24093730861678
 20
42.44830566896535
 30
0.0
 10
-71.25622110438307
 20
42.45695114598325
 30
0.0
 10
-71.27250834809887
 20
42.46383257907198
 30
0.0
 10
-71.28966725773641
 20
42.46906870002035
 30
0.0
 10
-71.30757241676997
 20
42.47297810714114
 30
0.0
 10
-71.32640004746517
 20
42.47520013604082
 30
0.0
 10
-71.33923427267113
 20
42.47552778006732
 30
0.0
 10
-71.34580111623693
 20
42.47569542455171
 30
0.0
  0
SPLINE
  5
15E
330
1F
100
AcDbEntity
  8
0
  6
Continuous
 62
     7
370
    25
100
AcDbSpline
210
0.0
220
0.0
230
1.0
 70
     8
 71
     3
 72
    23
 73
    19
 74
     0
 42
0.00000001
 43
0.00000001
 40
0.0
 40
0.0
 40
0.0
 40
0.0
 40
0.0644882775653482
 40
0.1260616637647979
 40
0.1865405923634238
 40
0.2456128838501232
 40
0.3039784026357329
 40
0.3616472282779947
 40
0.4200016358184088
 40
0.4789420529936708
 40
0.5379887253198641
 40
0.5970390582066443
 40
0.6574786602137819
 40
0.719297289889393
 40
0.7841732090533103
 40
0.8521374552829384
 40
0.9236596238100149
 40
1.0
 40
1.0
 40
1.0
 40
1.0
 10
-71.34580111623693
 20
42.47569542455171
 30
0.0
 10
-71.352435755079
 20
42.475528849367
 30
0.0
 10
-71.36540514490439
 20
42.47520322825074
 30
0.0
 10
-71.38449743351671
 20
42.47295739227719
 30
0.0
 10
-71.40274258674852
 20
42.46907050311935
 30
0.0
 10
-71.42030370864866
 20
42.46383213791101
 30
0.0
 10
-71.4369984403929
 20
42.45696027381956
 30
0.0
 10
-71.45272341575367
 20
42.44826218630872
 30
0.0
 10
-71.46774659958093
 20
42.43832464878336
 30
0.0
 10
-71.48202605265442
 20
42.42707523589116
 30
0.0
 10
-71.49480732219
 20
42.41403285679421
 30
0.0
 10
-71.50609993376838
 20
42.39949554575107
 30
0.0
 10
-71.51565209529724
 20
42.38341571281933
 30
0.0
 10
-71.52339180823661
 20
42.36574111778517
 30
0.0
 10
-71.52942104945434
 20
42.34661177844524
 30
0.0
 10
-71.53390844331115
 20
42.32604274189254
 30
0.0
 10
-71.53652106730911
 20
42.30395437079016
 30
0.0
 10
-71.53694022671087
 20
42.28874349587101
 30
0.0
 10
-71.53715663571744
 20
42.28089022974652
 30
0.0
  0
SPLINE
  5
160
330
1F
100
AcDbEntity
  8
0
  6
Continuous
 62
     7
370
    25
100
AcDbSpline
210
0.0
220
0.0
230
1.0
 70
     8
 71
     3
 72
    23
 73
    19
 74
     0
 42
0.00000001
 43
0.00000001
 40
0.0
 40
0.0
 40
0.0
 40
0.0
 40
0.0700852906109038
 40
0.1372359620841681
 40
0.2011315888288993
 40
0.263150490712152
 40
0.322953764360873
 40
0.3820256137682582
 40
0.4406153963056202
 40
0.4997007892978586
 40
0.5593254030960897
 40
0.6185535672731756
 40
0.6781468605292137
 40
0.7386051148418612
 40
0.8006999456940813
 40
0.8646289571896687
 40
0.9307993716296821
 40
1.0
 40
1.0
 40
1.0
 40
1.0
 10
-71.66702676558758
 20
42.29489185312313
 30
0.0
 10
-71.66586288684067
 20
42.30607930801908
 30
0.0
 10
-71.66358386340806
 20
42.32798577544662
 30
0.0
 10
-71.65705861164311
 20
42.35964086145501
 30
0.0
 10
-71.64811199742
 20
42.38933451048208
 30
0.0
 10
-71.63676348537946
 20
42.41692662230155
 30
0.0
 10
-71.62315740248009
 20
42.44262839057617
 30
0.0
 10
-71.60676814479906
 20
42.46597832299721
 30
0.0
 10
-71.58823674743165
 20
42.48750841268976
 30
0.0
 10
-71.56720680401605
 20
42.50674167807547
 30
0.0
 10
-71.54437926324502
 20
42.52394751653111
 30
0.0
 10
-71.51986139408682
 20
42.53881129486849
 30
0.0
 10
-71.49397668149847
 20
42.55142156012463
 30
0.0
 10
-71.46664774790476
 20
42.56188625390608
 30
0.0
 10
-71.43772653160663
 20
42.56970085999254
 30
0.0
 10
-71.40739645395725
 20
42.57535836864649
 30
0.0
 10
-71.3755781927949
 20
42.57888988871504
 30
0.0
 10
-71.35385964066438
 20
42.57935418419522
 30
0.0
 10
-71.34275728506809
 20
42.57959152844781
 30
0.0
  0
SPLINE
  5
162
330
1F
100
AcDbEntity
  8
0
  6
Continuous
 62
     7
370
    25
100
AcDbSpline
210
0.0
220
0.0
230
1.0
 70
     8
 71
     3
 72
    23
 73
    19
 74
     0
 42
0.00000001
 43
0.00000001
 40
0.0
 40
0.0
 40
0.0
 40
0.0
 40
0.0766619252245745
 40
0.1489874259280307
 40
0.2182600859985408
 40
0.2846812409574171
 40
0.3485129954402443
 40
0.4106972392859248
 40
0.4722956616628676
 40
0.5336227576068207
 40
0.5942770400068345
 40
0.6528953184918215
 40
0.7102076443836391
 40
0.7671229998471778
 40
0.824077847871595
 40
0.881190393054383
 40
0.9397750981816028
 40
1.0
 40
1.0
 40
1.0
 40
1.0
 10
-71.34275728506809
 20
42.57959152844781
 30
0.0
 10
-71.33077269772234
 20
42.5793946071287
 30
0.0
 10
-71.3074814378926
 20
42.57901190345461
 30
0.0
 10
-71.27356301371235
 20
42.5749833185364
 30
0.0
 10
-71.24161005554004
 20
42.56884356569502
 30
0.0
 10
-71.21166251391249
 20
42.55995571322541
 30
0.0
 10
-71.18387451859613
 20
42.54830964653518
 30
0.0
 10
-71.15813306670867
 20
42.53418659470323
 30
0.0
 10
-71.13420732741906
 20
42.51781457098789
 30
0.0
 10
-71.11278083703132
 20
42.4986272184732
 30
0.0
 10
-71.09373576802079
 20
42.47777668030712
 30
0.0
 10
-71.07655008227272
 20
42.45611402814007
 30
0.0
 10
-71.06268130360195
 20
42.43288249923433
 30
0.0
 10
-71.05060263926131
 20
42.40896254808761
 30
0.0
 10
-71.04186082117656
 20
42.38364648248207
 30
0.0
 10
-71.03522415429087
 20
42.35746987802666
 30
0.0
 10
-71.03130369298623
 20
42.33018407404359
 30
0.0
 10
-71.03087860661968
 20
42.31161152288972
 30
0.0
 10
-71.03066312922394
 20
42.30219704792834
 30
0.0
  0
SPLINE
  5
163
330
1F
100
AcDbEntity
  8
0
  6
Continuous
 62
     7
370
    25
100
AcDbSpline
210
0.0
220
0.0
230
1.0
 70
     8
 71
     3
 72
    23
 73
    19
 74
     0
 42
0.00000001
 43
0.00000001
 40
0.0
 40
0.0
 40
0.0
 40
0.0
 40
0.0404545043392644
 40
0.0815820503150282
 40
0.1233788178912308
 40
0.1664937557175074
 40
0.2107633547033214
 40
0.256566072540197
 40
0.3041515029442174
 40
0.3538368737658529
 40
0.4080947745069198
 40
0.4698048709655069
 40
0.5388536759584279
 40
0.6153915033813375
 40
0.6999791342441054
 40
0.7921998324592129
 40
0.8923678764801906
 40
1.0
 40
1.0
 40
1.0
 40
1.0
 10
-71.03066312922392
 20
42.30219704792833
 30
0.0
 10
-71.03084811486735
 20
42.29420484436219
 30
0.0
 10
-71.03122116376058
 20
42.27808747092973
 30
0.0
 10
-71.03461237624619
 20
42.25390833172746
 30
0.0
 10
-71.04011895950411
 20
42.22960965814249
 30
0.0
 10
-71.04791031539145
 20
42.2052892028417
 30
0.0
 10
-71.057657249539
 20
42.18083785835454
 30
0.0
 10
-71.06969032868189
 20
42.15642731723878
 30
0.0
 10
-71.08406033543798
 20
42.13208434971049
 30
0.0
 10
-71.10046563493977
 20
42.10703540988291
 30
0.0
 10
-71.12045644646872
 20
42.08111162666347
 30
0.0
 10
-71.14415999705906
 20
42.05328423967918
 30
0.0
 10
-71.17262562811733
 20
42.02384330593714
 30
0.0
 10
-71.20491259952627
 20
41.99184603034531
 30
0.0
 10
-71.24167039746324
 20
41.95789343793114
 30
0.0
 10
-71.28270920454969
 20
41.92172823157785
 30
0.0
 10
-71.32815382380903
 20
41.88370619873914
 30
0.0
 10
-71.36009897134402
 20
41.85794897003824
 30
0.0
 10
-71.37664527208109
 20
41.84460776221405
 30
0.0
  0
SPLINE
  5
164
330
1F
100
AcDbEntity
  8
0
  6
Continuous
 62
     7
370
    25
100
AcDbSpline
210
0.0
220
0.0
230
1.0
 70
     8
 71
     3
 72
    15
 73
    11
 74
     0
 42
0.00000001
 43
0.00000001
 40
0.0
 40
0.0
 40
0.0
 40
0.0
 40
0.1607976150087568
 40
0.3102195965544229
 40
0.449838025933312
 40
0.5797476245520881
 40
0.6987225367143415
 40
0.8090360169135412
 40
0.9088344906514688
 40
1.0
 40
1.0
 40
1.0
 40
1.0
 10
-71.37664527208108
 20
41.84460776221405
 30
0.0
 10
-71.38541807861974
 20
41.83756233007652
 30
0.0
 10
-71.40234305916084
 20
41.82396989516923
 30
0.0
 10
-71.42612180464027
 20
41.80333967012267
 30
0.0
 10
-71.44785600390706
 20
41.78366906724207
 30
0.0
 10
-71.46756530271163
 20
41.76494003087441
 30
0.0
 10
-71.48494127623619
 20
41.74676415312755
 30
0.0
 10
-71.50005206745186
 20
41.72939059490826
 30
0.0
 10
-71.51332854950317
 20
41.71298467023545
 30
0.0
 10
-71.52066650806447
 20
41.70180958857556
 30
0.0
 10
-71.52416962273043
 20
41.69647464533093
 30
0.0
  0
SPLINE
  5
168
330
1F
100
AcDbEntity
  8
0
  6
Continuous
 62
     7
370
    25
100
AcDbSpline
210
0.0
220
0.0
230
1.0
 70
     8
 71
     3
 72
    23
 73
    19
 74
     0
 42
0.00000001
 43
0.00000001
 40
0.0
 40
0.0
 40
0.0
 40
0.0
 40
0.006491012353444
 40
0.019997157222997
 40
0.0412916868584831
 40
0.0699312757415847
 40
0.1060404222551678
 40
0.1498514165155321
 40
0.2008082830878679
 40
0.259564924515455
 40
0.3257044083412283
 40
0.3998789238101639
 40
0.480965579153235
 40
0.569763385873447
 40
0.6662734405520548
 40
0.7696950622133611
 40
0.8811521731265343
 40
1.0
 40
1.0
 40
1.0
 40
1.0
 10
-71.88023945637211
 20
39.34670249332355
 30
0.0
 10
-71.88062027962685
 20
39.34567568724492
 30
0.0
 10
-71.88179349916251
 20
39.34251235901907
 30
0.0
 10
-71.88568711360809
 20
39.33669749652395
 30
0.0
 10
-71.89111200707607
 20
39.32751708789497
 30
0.0
 10
-71.89946047362771
 20
39.31565743409321
 30
0.0
 10
-71.90973342012838
 20
39.30054887465234
 30
0.0
 10
-71.92251767869597
 20
39.28259932423989
 30
0.0
 10
-71.93765685707103
 20
39.26165255258585
 30
0.0
 10
-71.95475267716259
 20
39.23748100770582
 30
0.0
 10
-71.97459644082181
 20
39.2104726212567
 30
0.0
 10
-71.99660248652931
 20
39.1803894765001
 30
0.0
 10
-72.0207889118281
 20
39.14717474510911
 30
0.0
 10
-72.04738178560936
 20
39.11106155482392
 30
0.0
 10
-72.07636473423004
 20
39.07203947144529
 30
0.0
 10
-72.10750509508969
 20
39.02986829104471
 30
0.0
 10
-72.14087255069526
 20
38.98466661056759
 30
0.0
 10
-72.16410885546122
 20
38.953628606549
 30
0.0
 10
-72.1760998459825
 20
38.93761158423264
 30
0.0
  0
SPLINE
  5
16D
330
1F
100
AcDbEntity
  8
0
  6
Continuous
 62
     7
370
    25
100
AcDbSpline
210
0.0
220
0.0
230
1.0
 70
     8
 71
     3
 72
    11
 73
     7
 74
     0
 42
0.00000001
 43
0.00000001
 40
0.0
 40
0.0
 40
0.0
 40
0.0
 40
0.2958619150812608
 40
0.5624826966210713
 40
0.7963790278069364
 40
1.0
 40
1.0
 40
1.0
 40
1.0
 10
-71.92569400182666
 20
39.64296872708978
 30
0.0
 10
-71.92042562703045
 20
39.63645353445067
 30
0.0
 10
-71.91040957051513
 20
39.62406706989455
 30
0.0
 10
-71.89715032403515
 20
39.60582445465285
 30
0.0
 10
-71.88577717161321
 20
39.5894343216358
 30
0.0
 10
-71.87950563712793
 20
39.57874644605438
 30
0.0
 10
-71.87658685896952
 20
39.57377229851836
 30
0.0
  0
SPLINE
  5
16E
330
1F
100
AcDbEntity
  8
0
  6
Continuous
 62
     7
370
    25
100
AcDbSpline
210
0.0
220
0.0
230
1.0
 70
     8
 71
     3
 72
    23
 73
    19
 74
     0
 42
0.00000001
 43
0.00000001
 40
0.0
 40
0.0
 40
0.0
 40
0.0
 40
0.0168189533744489
 40
0.0400088872068827
 40
0.0693393058039115
 40
0.104439114249968
 40
0.1456840385609328
 40
0.1929666877803436
 40
0.2467638051142478
 40
0.3059739309141675
 40
0.3716971759904653
 40
0.4432012076490306
 40
0.5204870407525874
 40
0.6045514430212469
 40
0.6940353234902543
 40
0.7900293451868765
 40
0.8918066293890402
 40
0.9999999999999999
 40
0.9999999999999999
 40
0.9999999999999999
 40
0.9999999999999999
 10
-71.87658685896952
 20
39.57377229851836
 30
0.0
 10
-71.87532082309689
 20
39.57594868307989
 30
0.0
 10
-71.87230917990478
 20
39.58112586161786
 30
0.0
 10
-71.86652666782203
 20
39.58974882374523
 30
0.0
 10
-71.8593118060664
 20
39.60069869682033
 30
0.0
 10
-71.8502735235274
 20
39.61367972297572
 30
0.0
 10
-71.83982733338475
 20
39.6289532889832
 30
0.0
 10
-71.82725541705311
 20
39.64615210584687
 30
0.0
 10
-71.81349302750081
 20
39.6658038495953
 30
0.0
 10
-71.7976319614025
 20
39.68734673131208
 30
0.0
 10
-71.78054241761907
 20
39.7112708918316
 30
0.0
 10
-71.76164337668915
 20
39.73722565344892
 30
0.0
 10
-71.7410338572497
 20
39.76532987905598
 30
0.0
 10
-71.71889978688428
 20
39.79565369448932
 30
0.0
 10
-71.69474574859596
 20
39.82796672157452
 30
0.0
 10
-71.6693258981768
 20
39.86264069706862
 30
0.0
 10
-71.64206384137827
 20
39.89943540318013
 30
0.0
 10
-71.62327917914662
 20
39.92462957063253
 30
0.0
 10
-71.6135998459825
 20
39.93761158423264
 30
0.0
  0
SPLINE
  5
174
330
1F
100
AcDbEntity
  8
0
  6
Continuous
 62
     7
370
    25
100
AcDbSpline
210
0.0
220
0.0
230
1.0
 70
     8
 71
     3
 72
    15
 73
    11
 74
     0
 42
0.00000001
 43
0.00000001
 40
0.0
 40
0.0
 40
0.0
 40
0.0
 40
0.1818627159604581
 40
0.3478693513041083
 40
0.498037016479347
 40
0.6302069238042673
 40
0.7473112184362414
 40
0.8479049363246156
 40
0.9323595851927161
 40
1.0
 40
1.0
 40
1.0
 40
1.0
 10
-71.7909537420864
 20
39.22028203877809
 30
0.0
 10
-71.79644596398059
 20
39.22778044974232
 30
0.0
 10
-71.80695155693547
 20
39.24212350705432
 30
0.0
 10
-71.82178277335068
 20
39.26281067915347
 30
0.0
 10
-71.8348733499552
 20
39.28161815858237
 30
0.0
 10
-71.84651026842799
 20
39.2983895123109
 30
0.0
 10
-71.85675817596255
 20
39.31304811968364
 30
0.0
 10
-71.86495879118756
 20
39.32613564603167
 30
0.0
 10
-71.87195245214778
 20
39.33699487572135
 30
0.0
 10
-71.87586255186584
 20
39.3437142308639
 30
0.0
 10
-71.87760146935912
 20
39.34670249332355
 30
0.0
  0
SPLINE
  5
176
330
1F
100
AcDbEntity
  8
0
  6
Continuous
 62
     7
370
    25
100
AcDbSpline
210
0.0
220
0.0
230
1.0
 70
     8
 71
     3
 72
    23
 73
    19
 74
     0
 42
0.00000001
 43
0.00000001
 40
0.0
 40
0.0
 40
0.0
 40
0.0
 40
0.0780366287445473
 40
0.1516755730927855
 40
0.2216760896824844
 40
0.2881976632747229
 40
0.3522616415778711
 40
0.414106519974156
 40
0.4744641440731457
 40
0.5346013418604186
 40
0.5936250438401884
 40
0.65118431445839
 40
0.7077885997433421
 40
0.7643067605043535
 40
0.8210747310333328
 40
0.8788160737061683
 40
0.9382978161913056
 40
1.0
 40
1.0
 40
1.0
 40
1.0
 10
-72.7839098824707
 20
42.07817107390237
 30
0.0
 10
-72.78421660362325
 20
42.09367333043278
 30
0.0
 10
-72.7848127609322
 20
42.12380422769613
 30
0.0
 10
-72.78956667010111
 20
42.16763330401054
 30
0.0
 10
-72.79716753119106
 20
42.20871689948835
 30
0.0
 10
-72.80787668728757
 20
42.24715610652475
 30
0.0
 10
-72.82188968213909
 20
42.28278890696551
 30
0.0
 10
-72.83897793528043
 20
42.3156781814122
 30
0.0
 10
-72.85919602864784
 20
42.34582993709184
 30
0.0
 10
-72.88255861029361
 20
42.37286143794122
 30
0.0
 10
-72.90809144162617
 20
42.39703706623018
 30
0.0
 10
-72.93545487749182
 20
42.4179552263226
 30
0.0
 10
-72.9641442590164
 20
42.43615429379899
 30
0.0
 10
-72.9948107691593
 20
42.45039042654948
 30
0.0
 10
-73.02679352563547
 20
42.46202164438912
 30
0.0
 10
-73.06054291295862
 20
42.46972767960815
 30
0.0
 10
-73.09578052797177
 20
42.47482966340436
 30
0.0
 10
-73.11986253734021
 20
42.47540333373399
 30
0.0
 10
-73.13212416818497
 20
42.47569542455171
 30
0.0
  0
SPLINE
  5
177
330
1F
100
AcDbEntity
  8
0
  6
Continuous
 62
     7
370
    25
100
AcDbSpline
210
0.0
220
0.0
230
1.0
 70
     8
 71
     3
 72
    23
 73
    19
 74
     0
 42
0.00000001
 43
0.00000001
 40
0.0
 40
0.0
 40
0.0
 40
0.0
 40
0.0614947663753969
 40
0.1204514614956318
 40
0.1777412514798482
 40
0.2335199247063332
 40
0.2889345630520976
 40
0.344167765744874
 40
0.3998583472360183
 40
0.4568961952918801
 40
0.5149728346949775
 40
0.5740626234206129
 40
0.6356646371116753
 40
0.7001498954704465
 40
0.7682590020217971
 40
0.8407020000133218
 40
0.9177099631894702
 40
1.0
 40
1.0
 40
1.0
 40
1.0
 10
-73.13212416818497
 20
42.47569542455171
 30
0.0
 10
-73.14471929353797
 20
42.47537846430675
 30
0.0
 10
-73.16938970609355
 20
42.47475762570548
 30
0.0
 10
-73.20555695620637
 20
42.47003423083311
 30
0.0
 10
-73.23992098617607
 20
42.46209660957471
 30
0.0
 10
-73.27274085455302
 20
42.45121134379619
 30
0.0
 10
-73.30358081059961
 20
42.43656462507323
 30
0.0
 10
-73.33306170088123
 20
42.41939014521023
 30
0.0
 10
-73.36057397599993
 20
42.39862732300929
 30
0.0
 10
-73.38639382256679
 20
42.37495672167235
 30
0.0
 10
-73.40989190346248
 20
42.34797683468627
 30
0.0
 10
-73.43001610594344
 20
42.31729590717114
 30
0.0
 10
-73.44746151322154
 20
42.28352532133601
 30
0.0
 10
-73.4609855911195
 20
42.24604513263471
 30
0.0
 10
-73.47209996237947
 20
42.20550408192732
 30
0.0
 10
-73.47955521555099
 20
42.16152393441431
 30
0.0
 10
-73.48432348427569
 20
42.11426122933003
 30
0.0
 10
-73.48490710000851
 20
42.08163318598692
 30
0.0
 10
-73.48520858376939
 20
42.06477821675951
 30
0.0
  0
SPLINE
  5
178
330
1F
100
AcDbEntity
  8
0
  6
Continuous
 62
     7
370
    25
100
AcDbSpline
210
0.0
220
0.0
230
1.0
 70
     8
 71
     3
 72
    23
 73
    19
 74
     0
 42
0.00000001
 43
0.00000001
 40
0.0
 40
0.0
 40
0.0
 40
0.0
 40
0.0715330450179885
 40
0.1399562683346345
 40
0.205808102479633
 40
0.2694632531508112
 40
0.3316890274209858
 40
0.3928307833447855
 40
0.4538531177751109
 40
0.5150147546111564
 40
0.5756683948037833
 40
0.6350263719468457
 40
0.6934595655549058
 40
0.7522536661754519
 40
0.8114763099072766
 40
0.8721119076687947
 40
0.9347378956496148
 40
1.0
 40
1.0
 40
1.0
 40
1.0
 10
-73.48520858376939
 20
42.06477821675951
 30
0.0
 10
-73.4848704936767
 20
42.05090156368198
 30
0.0
 10
-73.48420901159214
 20
42.02375152999875
 30
0.0
 10
-73.47980755105189
 20
41.98400106535507
 30
0.0
 10
-73.47198891709051
 20
41.94636803541074
 30
0.0
 10
-73.46159639077639
 20
41.91059146305474
 30
0.0
 10
-73.44761877720474
 20
41.87704573828233
 30
0.0
 10
-73.43102665479643
 20
41.845288185067
 30
0.0
 10
-73.41095800495759
 20
41.81583920939089
 30
0.0
 10
-73.38830311590509
 20
41.78849092307694
 30
0.0
 10
-73.36329284519717
 20
41.76368809866855
 30
0.0
 10
-73.33592130436139
 20
41.74238465483234
 30
0.0
 10
-73.30690241730667
 20
41.72405794846645
 30
0.0
 10
-73.27593950961428
 20
41.70929171162097
 30
0.0
 10
-73.24323784141004
 20
41.69763438689152
 30
0.0
 10
-73.20876830909127
 20
41.68930882917407
 30
0.0
 10
-73.1724460660693
 20
41.68438299828194
 30
0.0
 10
-73.14762925387947
 20
41.68379016097854
 30
0.0
 10
-73.13496507727588
 20
41.68348763234392
 30
0.0
  0
SPLINE
  5
179
330
1F
100
AcDbEntity
  8
0
  6
Continuous
 62
     7
370
    25
100
AcDbSpline
210
0.0
220
0.0
230
1.0
 70
     8
 71
     3
 72
    23
 73
    19
 74
     0
 42
0.00000001
 43
0.00000001
 40
0.0
 40
0.0
 40
0.0
 40
0.0
 40
0.0640786158739436
 40
0.1255799349716571
 40
0.1847204758699369
 40
0.2428813116128959
 40
0.2998485385848833
 40
0.3570270796042604
 40
0.4147315250840132
 40
0.4734933942427374
 40
0.5332270527556351
 40
0.5936737870182431
 40
0.6548982483783978
 40
0.7178816722312503
 40
0.7834150774327797
 40
0.8520716335348739
 40
0.9240117276759138
 40
1.0
 40
1.0
 40
1.0
 40
1.0
 10
-73.13496507727588
 20
41.68348763234392
 30
0.0
 10
-73.12223230655972
 20
41.68378563951363
 30
0.0
 10
-73.09727888806377
 20
41.68436966774964
 30
0.0
 10
-73.06085052867614
 20
41.68934922046373
 30
0.0
 10
-73.02620347518528
 20
41.69741013641811
 30
0.0
 10
-72.99351746484466
 20
41.70902888875911
 30
0.0
 10
-72.9625763972586
 20
41.72377808129232
 30
0.0
 10
-72.93336629514239
 20
41.74160098061511
 30
0.0
 10
-72.90637489468686
 20
41.76318362257143
 30
0.0
 10
-72.88109035724861
 20
41.78746728391933
 30
0.0
 10
-72.85841217337283
 20
41.81493047634398
 30
0.0
 10
-72.8384066898245
 20
41.8449897078081
 30
0.0
 10
-72.82180739881298
 20
41.87777457191207
 30
0.0
 10
-72.8078917014161
 20
41.91285699300368
 30
0.0
 10
-72.79718481148855
 20
41.95059847846212
 30
0.0
 10
-72.78957970300767
 20
41.99086962067673
 30
0.0
 10
-72.78481645141764
 20
42.03368519428565
 30
0.0
 10
-72.78421753539186
 20
42.06307436133482
 30
0.0
 10
-72.78390988247068
 20
42.07817107390236
 30
0.0
  0
SPLINE
  5
17A
330
1F
100
AcDbEntity
  8
0
  6
Continuous
 62
     7
370
    25
100
AcDbSpline
210
0.0
220
0.0
230
1.0
 70
     8
 71
     3
 72
    23
 73
    19
 74
     0
 42
0.00000001
 43
0.00000001
 40
0.0
 40
0.0
 40
0.0
 40
0.0
 40
0.0652639981715696
 40
0.1279613539254543
 40
0.1888587256405852
 40
0.2481235067451933
 40
0.3069155083607341
 40
0.3656918159664841
 40
0.4251525252462726
 40
0.4857967001206402
 40
0.546968846516871
 40
0.6078516081222166
 40
0.6688425097090536
 40
0.730965471625064
 40
0.7945499308256533
 40
0.8600995540190586
 40
0.9285900601046416
 40
1.0
 40
1.0
 40
1.0
 40
1.0
 10
-73.13354462273043
 20
42.59257854143483
 30
0.0
 10
-73.1163395860772
 20
42.5921757882107
 30
0.0
 10
-73.08260613660796
 20
42.59138612087037
 30
0.0
 10
-73.03323241710218
 20
42.5844114124299
 30
0.0
 10
-72.98619421248551
 20
42.57366264574557
 30
0.0
 10
-72.94158715708055
 20
42.5580726818175
 30
0.0
 10
-72.89937484922812
 20
42.53814195262664
 30
0.0
 10
-72.85956820763546
 20
42.51363425937471
 30
0.0
 10
-72.82232346874687
 20
42.48460953118324
 30
0.0
 10
-72.78768334298428
 20
42.45160342392593
 30
0.0
 10
-72.75634147738852
 20
42.41496346035991
 30
0.0
 10
-72.7286980111594
 20
42.37531370366102
 30
0.0
 10
-72.70582583822099
 20
42.33246960148017
 30
0.0
 10
-72.68651064049726
 20
42.28713796532968
 30
0.0
 10
-72.67208177129133
 20
42.23875566342366
 30
0.0
 10
-72.66147413748291
 20
42.1877241498084
 30
0.0
 10
-72.6551095512343
 20
42.13386566146627
 30
0.0
 10
-72.65440127887301
 20
42.09699242588628
 30
0.0
 10
-72.65403975260055
 20
42.07817107390236
 30
0.0
  0
SPLINE
  5
17B
330
1F
100
AcDbEntity
  8
0
  6
Continuous
 62
     7
370
    25
100
AcDbSpline
210
0.0
220
0.0
230
1.0
 70
     8
 71
     3
 72
    23
 73
    19
 74
     0
 42
0.00000001
 43
0.00000001
 40
0.0
 40
0.0
 40
0.0
 40
0.0
 40
0.0713837557260378
 40
0.1398707221008085
 40
0.2053804392614337
 40
0.2689243772135533
 40
0.3307741537823193
 40
0.3918594476491029
 40
0.4527277454262862
 40
0.5140709077294469
 40
0.5749212238148704
 40
0.6344169000307949
 40
0.6932489265864379
 40
0.7521215238494586
 40
0.811578170050086
 40
0.8721712567460589
 40
0.9347820079417264
 40
1.0
 40
1.0
 40
1.0
 40
1.0
 10
-72.65403975260055
 20
42.07817107390236
 30
0.0
 10
-72.65437717275468
 20
42.05941443817092
 30
0.0
 10
-72.65503832038031
 20
42.02266232058822
 30
0.0
 10
-72.66174224355754
 20
41.96903803837265
 30
0.0
 10
-72.67227069050315
 20
41.91819176497257
 30
0.0
 10
-72.68668764900576
 20
41.87006915451951
 30
0.0
 10
-72.70603585215058
 20
41.82497827066413
 30
0.0
 10
-72.72914860019408
 20
41.78250620142542
 30
0.0
 10
-72.75673092683886
 20
41.74292722464946
 30
0.0
 10
-72.78830930472238
 20
41.70655593745198
 30
0.0
 10
-72.82312366279731
 20
41.67381190996586
 30
0.0
 10
-72.86038203695468
 20
41.64492980146873
 30
0.0
 10
-72.90019231940528
 20
41.62062181146424
 30
0.0
 10
-72.94244511442801
 20
41.60093468812703
 30
0.0
 10
-72.98688404196393
 20
41.58539157079723
 30
0.0
 10
-73.03367920731671
 20
41.57447165597581
 30
0.0
 10
-73.0828280039192
 20
41.56787282751721
 30
0.0
 10
-73.11641076114243
 20
41.56703299598126
 30
0.0
 10
-73.13354462273043
 20
41.5666045154608
 30
0.0
  0
SPLINE
  5
17C
330
1F
100
AcDbEntity
  8
0
  6
Continuous
 62
     7
370
    25
100
AcDbSpline
210
0.0
220
0.0
230
1.0
 70
     8
 71
     3
 72
    23
 73
    19
 74
     0
 42
0.00000001
 43
0.00000001
 40
0.0
 40
0.0
 40
0.0
 40
0.0
 40
0.0680963821042722
 40
0.1333483120022162
 40
0.1963220579941951
 40
0.2574138969809665
 40
0.3179229030844389
 40
0.3782423883887429
 40
0.4390639020121587
 40
0.5013666885033532
 40
0.5637463190419637
 40
0.6249131906793365
 40
0.6855780917215428
 40
0.7461964905724059
 40
0.8074505068053589
 40
0.8698802257301438
 40
0.933737441507451
 40
1.0
 40
1.0
 40
1.0
 40
1.0
 10
-73.13354462273043
 20
41.5666045154608
 30
0.0
 10
-73.15122324283702
 20
41.56699373231628
 30
0.0
 10
-73.18584202986936
 20
41.56775590806013
 30
0.0
 10
-73.23639629550252
 20
41.57488769739754
 30
0.0
 10
-73.28428603418658
 20
41.58612972644714
 30
0.0
 10
-73.32957033551875
 20
41.60204548489154
 30
0.0
 10
-73.37213540722686
 20
41.62266278321658
 30
0.0
 10
-73.41221173830509
 20
41.64767611603318
 30
0.0
 10
-73.44930558467843
 20
41.67767070678504
 30
0.0
 10
-73.48356607387964
 20
41.71158461860446
 30
0.0
 10
-73.51445514879887
 20
41.74872008059287
 30
0.0
 10
-73.54136860529435
 20
41.78830582769703
 30
0.0
 10
-73.56426570053137
 20
41.82983308602014
 30
0.0
 10
-73.58275209505715
 20
41.8735254824034
 30
0.0
 10
-73.5972281972806
 20
41.91918239343241
 30
0.0
 10
-73.60747064652433
 20
41.96681024275531
 30
0.0
 10
-73.61403247772664
 20
42.01643513064334
 30
0.0
 10
-73.61472569681057
 20
42.05021436951014
 30
0.0
 10
-73.61507871363952
 20
42.06741620377249
 30
0.0
  0
SPLINE
  5
17D
330
1F
100
AcDbEntity
  8
0
  6
Continuous
 62
     7
370
    25
100
AcDbSpline
210
0.0
220
0.0
230
1.0
 70
     8
 71
     3
 72
    23
 73
    19
 74
     0
 42
0.00000001
 43
0.00000001
 40
0.0
 40
0.0
 40
0.0
 40
0.0
 40
0.0740374934847793
 40
0.1444279617150065
 40
0.2116365208781421
 40
0.2761254348850316
 40
0.3385443701055066
 40
0.3994365241179648
 40
0.4596053607504059
 40
0.5197853259720097
 40
0.5792719179372376
 40
0.6378139781389551
 40
0.6955050088741526
 40
0.753464600996776
 40
0.8124840586258395
 40
0.872639644253497
 40
0.9350376300069457
 40
1.0
 40
1.0
 40
1.0
 40
1.0
 10
-73.61507871363952
 20
42.06741620377249
 30
0.0
 10
-73.61472365477482
 20
42.08725202450546
 30
0.0
 10
-73.61403102694932
 20
42.12594656996567
 30
0.0
 10
-73.60764038462435
 20
42.18236133399474
 30
0.0
 10
-73.59713033609746
 20
42.23551395138674
 30
0.0
 10
-73.58260938140891
 20
42.28552393038252
 30
0.0
 10
-73.56364411654158
 20
42.33220539881886
 30
0.0
 10
-73.5406720370653
 20
42.3757492139959
 30
0.0
 10
-73.51332408013623
 20
42.41598663340129
 30
0.0
 10
-73.4818677641849
 20
42.45258453983055
 30
0.0
 10
-73.44718451419732
 20
42.48549980373915
 30
0.0
 10
-73.40976083449236
 20
42.51417843570172
 30
0.0
 10
-73.36990471830723
 20
42.53861729137823
 30
0.0
 10
-73.32737097656573
 20
42.55832805651357
 30
0.0
 10
-73.2824245190062
 20
42.57378061030768
 30
0.0
 10
-73.23496420766094
 20
42.58473507628387
 30
0.0
 10
-73.18506886670556
 20
42.59130485953345
 30
0.0
 10
-73.15094837461598
 20
42.59214831981327
 30
0.0
 10
-73.13354462273043
 20
42.59257854143483
 30
0.0
  0
CIRCLE
  5
18D
330
1F
100
AcDbEntity
  8
0
  6
Continuous
 62
     7
370
    25
100
AcDbCircle
 10
-69.9992510176
 20
32.1123890156
 30
0.0
 40
0.29959551072902
  0
CIRCLE
  5
18E
330
1F
100
AcDbEntity
  8
0
  6
Continuous
 62
     7
370
    25
100
AcDbCircle
 10
-69.9992510176
 20
34.6523890156
 30
0.0
 40
0.2995955107290342
  0
CIRCLE
  5
18F
330
1F
100
AcDbEntity
  8
0
  6
Continuous
 62
     7
370
    25
100
AcDbCircle
 10
-69.9992510176
 20
37.1923890156
 30
0.0
 40
0.29959551072902
  0
CIRCLE
  5
190
330
1F
100
AcDbEntity
  8
0
  6
Continuous
 62
     7
370
    25
100
AcDbCircle
 10
-69.9992510176
 20
42.2723890156
 30
0.0
 40
0.29959551072902
  0
CIRCLE
  5
192
330
1F
100
AcDbEntity
  8
0
  6
Continuous
 62
     7
370
    25
100
AcDbCircle
 10
-69.9992510176
 20
39.7323890156
 30
0.0
 40
0.29959551072902
  0
LINE
  5
195
330
1F
100
AcDbEntity
  8
0
  6
Continuous
 62
     7
370
    25
100
AcDbLine
 10
-76.5525698403
 20
31.455123155
 30
0.0
 11
-76.5525698403
 21
35.7945944749
 31
0.0
  0
LINE
  5
196
330
1F
100
AcDbEntity
  8
0
  6
Continuous
 62
     7
370
    25
100
AcDbLine
 10
-80.7922301849
 20
31.455123155
 30
0.0
 11
-76.5525698403
 21
31.455123155
 31
0.0
  0
LINE
  5
197
330
1F
100
AcDbEntity
  8
0
  6
Continuous
 62
     7
370
    25
100
AcDbLine
 10
-80.7922301849
 20
35.7945944749
 30
0.0
 11
-80.7922301849
 21
31.455123155
 31
0.0
  0
LINE
  5
198
330
1F
100
AcDbEntity
  8
0
  6
Continuous
 62
     7
370
    25
100
AcDbLine
 10
-76.5525698403
 20
35.7945944749
 30
0.0
 11
-80.7922301849
 21
35.7945944749
 31
0.0
  0
LINE
  5
199
330
1F
100
AcDbEntity
  8
0
  6
Continuous
 62
     7
370
    25
100
AcDbLine
 10
-84.2292877411
 20
27.4146924898
 30
0.0
 11
-84.8175096629
 21
27.4146924898
 31
0.0
  0
LINE
  5
19A
330
1F
100
AcDbEntity
  8
0
  6
Continuous
 62
     7
370
    25
100
AcDbLine
 10
-84.2292877411
 20
26.0083688147
 30
0.0
 11
-84.2292877411
 21
27.4146924898
 31
0.0
  0
LINE
  5
19B
330
1F
100
AcDbEntity
  8
0
  6
Continuous
 62
     7
370
    25
100
AcDbLine
 10
-84.8175096629
 20
26.0083688147
 30
0.0
 11
-84.2292877411
 21
26.0083688147
 31
0.0
  0
LINE
  5
19C
330
1F
100
AcDbEntity
  8
0
  6
Continuous
 62
     7
370
    25
100
AcDbLine
 10
-84.8175096629
 20
27.4146924898
 30
0.0
 11
-84.8175096629
 21
26.0083688147
 31
0.0
  0
LINE
  5
19D
330
1F
100
AcDbEntity
  8
0
  6
Continuous
 62
     7
370
    25
100
AcDbLine
 10
-82.430816118
 20
27.4146924898
 30
0.0
 11
-82.9852321823
 21
27.4146924898
 31
0.0
  0
LINE
  5
19E
330
1F
100
AcDbEntity
  8
0
  6
Continuous
 62
     7
370
    25
100
AcDbLine
 10
-82.430816118
 20
26.0083688147
 30
0.0
 11
-82.430816118
 21
27.4146924898
 31
0.0
  0
LINE
  5
19F
330
1F
100
AcDbEntity
  8
0
  6
Continuous
 62
     7
370
    25
100
AcDbLine
 10
-82.9852321823
 20
26.0083688147
 30
0.0
 11
-82.430816118
 21
26.0083688147
 31
0.0
  0
LINE
  5
1A0
330
1F
100
AcDbEntity
  8
0
  6
Continuous
 62
     7
370
    25
100
AcDbLine
 10
-82.9852321823
 20
27.4146924898
 30
0.0
 11
-82.9852321823
 21
26.0083688147
 31
0.0
  0
LINE
  5
1A1
330
1F
100
AcDbEntity
  8
0
  6
Continuous
 62
     7
370
    25
100
AcDbLine
 10
-84.2292877411
 20
29.6188344038
 30
0.0
 11
-84.8175096629
 21
29.6188344038
 31
0.0
  0
LINE
  5
1A2
330
1F
100
AcDbEntity
  8
0
  6
Continuous
 62
     7
370
    25
100
AcDbLine
 10
-84.2292877411
 20
28.165182528
 30
0.0
 11
-84.2292877411
 21
29.6188344038
 31
0.0
  0
LINE
  5
1A3
330
1F
100
AcDbEntity
  8
0
  6
Continuous
 62
     7
370
    25
100
AcDbLine
 10
-84.8175096629
 20
28.165182528
 30
0.0
 11
-84.2292877411
 21
28.165182528
 31
0.0
  0
LINE
  5
1A4
330
1F
100
AcDbEntity
  8
0
  6
Continuous
 62
     7
370
    25
100
AcDbLine
 10
-84.8175096629
 20
29.6188344038
 30
0.0
 11
-84.8175096629
 21
28.165182528
 31
0.0
  0
LINE
  5
1A5
330
1F
100
AcDbEntity
  8
0
  6
Continuous
 62
     7
370
    25
100
AcDbLine
 10
-85.0544988253
 20
32.5580312879
 30
0.0
 11
-86.0225968225
 21
32.5580312879
 31
0.0
  0
LINE
  5
1A6
330
1F
100
AcDbEntity
  8
0
  6
Continuous
 62
     7
370
    25
100
AcDbLine
 10
-85.0544988253
 20
30.3363704995
 30
0.0
 11
-85.0544988253
 21
32.5580312879
 31
0.0
  0
LINE
  5
1A7
330
1F
100
AcDbEntity
  8
0
  6
Continuous
 62
     7
370
    25
100
AcDbLine
 10
-86.0225968225
 20
30.3363704995
 30
0.0
 11
-85.0544988253
 21
30.3363704995
 31
0.0
  0
LINE
  5
1A8
330
1F
100
AcDbEntity
  8
0
  6
Continuous
 62
     7
370
    25
100
AcDbLine
 10
-86.0225968225
 20
32.5580312879
 30
0.0
 11
-86.0225968225
 21
30.3363704995
 31
0.0
  0
LINE
  5
1A9
330
1F
100
AcDbEntity
  8
0
  6
Continuous
 62
     7
370
    25
100
AcDbLine
 10
-86.766243085
 20
29.7287067765
 30
0.0
 11
-86.766243085
 21
29.1630130419
 31
0.0
  0
LINE
  5
1AA
330
1F
100
AcDbEntity
  8
0
  6
Continuous
 62
     7
370
    25
100
AcDbLine
 10
-86.1717408732
 20
29.7287067765
 30
0.0
 11
-86.766243085
 21
29.7287067765
 31
0.0
  0
LINE
  5
1AB
330
1F
100
AcDbEntity
  8
0
  6
Continuous
 62
     7
370
    25
100
AcDbLine
 10
-86.1717408732
 20
29.1630130419
 30
0.0
 11
-86.1717408732
 21
29.7287067765
 31
0.0
  0
LINE
  5
1AC
330
1F
100
AcDbEntity
  8
0
  6
Continuous
 62
     7
370
    25
100
AcDbLine
 10
-86.766243085
 20
29.1630130419
 30
0.0
 11
-86.1717408732
 21
29.1630130419
 31
0.0
  0
LINE
  5
1AD
330
1F
100
AcDbEntity
  8
0
  6
Continuous
 62
     7
370
    25
100
AcDbLine
 10
-85.2524885546
 20
29.7287067765
 30
0.0
 11
-85.8574665763
 21
29.7287067765
 31
0.0
  0
LINE
  5
1AE
330
1F
100
AcDbEntity
  8
0
  6
Continuous
 62
     7
370
    25
100
AcDbLine
 10
-85.2524885546
 20
29.1630130419
 30
0.0
 11
-85.2524885546
 21
29.7287067765
 31
0.0
  0
LINE
  5
1AF
330
1F
100
AcDbEntity
  8
0
  6
Continuous
 62
     7
370
    25
100
AcDbLine
 10
-85.8574665763
 20
29.1630130419
 30
0.0
 11
-85.2524885546
 21
29.1630130419
 31
0.0
  0
LINE
  5
1B0
330
1F
100
AcDbEntity
  8
0
  6
Continuous
 62
     7
370
    25
100
AcDbLine
 10
-85.8574665763
 20
29.7287067765
 30
0.0
 11
-85.8574665763
 21
29.1630130419
 31
0.0
  0
LINE
  5
1B1
330
1F
100
AcDbEntity
  8
0
  6
Continuous
 62
     7
370
    25
100
AcDbLine
 10
-86.1717408732
 20
28.6156519747
 30
0.0
 11
-86.766243085
 21
28.6156519747
 31
0.0
  0
LINE
  5
1B2
330
1F
100
AcDbEntity
  8
0
  6
Continuous
 62
     7
370
    25
100
AcDbLine
 10
-86.1717408732
 20
28.0473392877
 30
0.0
 11
-86.1717408732
 21
28.6156519747
 31
0.0
  0
LINE
  5
1B3
330
1F
100
AcDbEntity
  8
0
  6
Continuous
 62
     7
370
    25
100
AcDbLine
 10
-86.766243085
 20
28.0473392877
 30
0.0
 11
-86.1717408732
 21
28.0473392877
 31
0.0
  0
LINE
  5
1B4
330
1F
100
AcDbEntity
  8
0
  6
Continuous
 62
     7
370
    25
100
AcDbLine
 10
-86.766243085
 20
28.6156519747
 30
0.0
 11
-86.766243085
 21
28.0473392877
 31
0.0
  0
LINE
  5
1B5
330
1F
100
AcDbEntity
  8
0
  6
Continuous
 62
     7
370
    25
100
AcDbLine
 10
-85.2524885546
 20
28.6156519747
 30
0.0
 11
-85.8574665763
 21
28.6156519747
 31
0.0
  0
LINE
  5
1B6
330
1F
100
AcDbEntity
  8
0
  6
Continuous
 62
     7
370
    25
100
AcDbLine
 10
-85.2524885546
 20
28.0473392877
 30
0.0
 11
-85.2524885546
 21
28.6156519747
 31
0.0
  0
LINE
  5
1B7
330
1F
100
AcDbEntity
  8
0
  6
Continuous
 62
     7
370
    25
100
AcDbLine
 10
-85.8574665763
 20
28.0473392877
 30
0.0
 11
-85.2524885546
 21
28.0473392877
 31
0.0
  0
LINE
  5
1B8
330
1F
100
AcDbEntity
  8
0
  6
Continuous
 62
     7
370
    25
100
AcDbLine
 10
-85.8574665763
 20
28.6156519747
 30
0.0
 11
-85.8574665763
 21
28.0473392877
 31
0.0
  0
LINE
  5
1B9
330
1F
100
AcDbEntity
  8
0
  6
Continuous
 62
     7
370
    25
100
AcDbLine
 10
-81.4369239053
 20
27.9758697256
 30
0.0
 11
-82.0183846556
 21
27.9758697256
 31
0.0
  0
LINE
  5
1BA
330
1F
100
AcDbEntity
  8
0
  6
Continuous
 62
     7
370
    25
100
AcDbLine
 10
-81.4369239053
 20
27.4146924898
 30
0.0
 11
-81.4369239053
 21
27.9758697256
 31
0.0
  0
LINE
  5
1BB
330
1F
100
AcDbEntity
  8
0
  6
Continuous
 62
     7
370
    25
100
AcDbLine
 10
-82.0183846556
 20
27.4146924898
 30
0.0
 11
-81.4369239053
 21
27.4146924898
 31
0.0
  0
LINE
  5
1BC
330
1F
100
AcDbEntity
  8
0
  6
Continuous
 62
     7
370
    25
100
AcDbLine
 10
-82.0183846556
 20
27.9758697256
 30
0.0
 11
-82.0183846556
 21
27.4146924898
 31
0.0
  0
LINE
  5
1BD
330
1F
100
AcDbEntity
  8
0
  6
Continuous
 62
     7
370
    25
100
AcDbLine
 10
-80.3889423204
 20
27.9758697256
 30
0.0
 11
-80.9095525271
 21
27.9758697256
 31
0.0
  0
LINE
  5
1BE
330
1F
100
AcDbEntity
  8
0
  6
Continuous
 62
     7
370
    25
100
AcDbLine
 10
-80.3889423204
 20
27.4146924898
 30
0.0
 11
-80.3889423204
 21
27.9758697256
 31
0.0
  0
LINE
  5
1BF
330
1F
100
AcDbEntity
  8
0
  6
Continuous
 62
     7
370
    25
100
AcDbLine
 10
-80.9095525271
 20
27.4146924898
 30
0.0
 11
-80.3889423204
 21
27.4146924898
 31
0.0
  0
LINE
  5
1C0
330
1F
100
AcDbEntity
  8
0
  6
Continuous
 62
     7
370
    25
100
AcDbLine
 10
-80.9095525271
 20
27.9758697256
 30
0.0
 11
-80.9095525271
 21
27.4146924898
 31
0.0
  0
LINE
  5
1C1
330
1F
100
AcDbEntity
  8
0
  6
Continuous
 62
     7
370
    25
100
AcDbLine
 10
-81.4369239053
 20
27.0698727426
 30
0.0
 11
-82.0183846556
 21
27.0698727426
 31
0.0
  0
LINE
  5
1C2
330
1F
100
AcDbEntity
  8
0
  6
Continuous
 62
     7
370
    25
100
AcDbLine
 10
-81.4369239053
 20
26.4613673062
 30
0.0
 11
-81.4369239053
 21
27.0698727426
 31
0.0
  0
LINE
  5
1C3
330
1F
100
AcDbEntity
  8
0
  6
Continuous
 62
     7
370
    25
100
AcDbLine
 10
-82.0183846556
 20
26.4613673062
 30
0.0
 11
-81.4369239053
 21
26.4613673062
 31
0.0
  0
LINE
  5
1C4
330
1F
100
AcDbEntity
  8
0
  6
Continuous
 62
     7
370
    25
100
AcDbLine
 10
-82.0183846556
 20
27.0698727426
 30
0.0
 11
-82.0183846556
 21
26.4613673062
 31
0.0
  0
LINE
  5
1C5
330
1F
100
AcDbEntity
  8
0
  6
Continuous
 62
     7
370
    25
100
AcDbLine
 10
-83.3944589905
 20
32.5580312879
 30
0.0
 11
-84.3346310839
 21
32.5580312879
 31
0.0
  0
LINE
  5
1C6
330
1F
100
AcDbEntity
  8
0
  6
Continuous
 62
     7
370
    25
100
AcDbLine
 10
-83.3944589905
 20
30.3363704995
 30
0.0
 11
-83.3944589905
 21
32.5580312879
 31
0.0
  0
LINE
  5
1C7
330
1F
100
AcDbEntity
  8
0
  6
Continuous
 62
     7
370
    25
100
AcDbLine
 10
-84.3346310839
 20
30.3363704995
 30
0.0
 11
-83.3944589905
 21
30.3363704995
 31
0.0
  0
LINE
  5
1C8
330
1F
100
AcDbEntity
  8
0
  6
Continuous
 62
     7
370
    25
100
AcDbLine
 10
-84.3346310839
 20
32.5580312879
 30
0.0
 11
-84.3346310839
 21
30.3363704995
 31
0.0
  0
LINE
  5
1C9
330
1F
100
AcDbEntity
  8
0
  6
Continuous
 62
     7
370
    25
100
AcDbLine
 10
-85.0544988253
 20
24.9401037152
 30
0.0
 11
-84.4186005435
 21
24.9401037152
 31
0.0
  0
LINE
  5
1CA
330
1F
100
AcDbEntity
  8
0
  6
Continuous
 62
     7
370
    25
100
AcDbLine
 10
-85.0544988253
 20
25.5486091516
 30
0.0
 11
-85.0544988253
 21
24.9401037152
 31
0.0
  0
LINE
  5
1CB
330
1F
100
AcDbEntity
  8
0
  6
Continuous
 62
     7
370
    25
100
AcDbLine
 10
-84.4186005435
 20
25.5486091516
 30
0.0
 11
-85.0544988253
 21
25.5486091516
 31
0.0
  0
LINE
  5
1CC
330
1F
100
AcDbEntity
  8
0
  6
Continuous
 62
     7
370
    25
100
AcDbLine
 10
-84.4186005435
 20
24.9401037152
 30
0.0
 11
-84.4186005435
 21
25.5486091516
 31
0.0
  0
LINE
  5
1CD
330
1F
100
AcDbEntity
  8
0
  6
Continuous
 62
     7
370
    25
100
AcDbLine
 10
-83.3435742726
 20
25.5486091516
 30
0.0
 11
-83.965602052
 21
25.5486091516
 31
0.0
  0
LINE
  5
1CE
330
1F
100
AcDbEntity
  8
0
  6
Continuous
 62
     7
370
    25
100
AcDbLine
 10
-83.3435742726
 20
24.9401037152
 30
0.0
 11
-83.3435742726
 21
25.5486091516
 31
0.0
  0
LINE
  5
1CF
330
1F
100
AcDbEntity
  8
0
  6
Continuous
 62
     7
370
    25
100
AcDbLine
 10
-83.965602052
 20
24.9401037152
 30
0.0
 11
-83.3435742726
 21
24.9401037152
 31
0.0
  0
LINE
  5
1D0
330
1F
100
AcDbEntity
  8
0
  6
Continuous
 62
     7
370
    25
100
AcDbLine
 10
-83.965602052
 20
25.5486091516
 30
0.0
 11
-83.965602052
 21
24.9401037152
 31
0.0
  0
LINE
  5
1D1
330
1F
100
AcDbEntity
  8
0
  6
Continuous
 62
     7
370
    25
100
AcDbLine
 10
-82.2347421441
 20
25.5486091516
 30
0.0
 11
-82.8229640659
 21
25.5486091516
 31
0.0
  0
LINE
  5
1D2
330
1F
100
AcDbEntity
  8
0
  6
Continuous
 62
     7
370
    25
100
AcDbLine
 10
-82.2347421441
 20
24.9401037152
 30
0.0
 11
-82.2347421441
 21
25.5486091516
 31
0.0
  0
LINE
  5
1D3
330
1F
100
AcDbEntity
  8
0
  6
Continuous
 62
     7
370
    25
100
AcDbLine
 10
-82.8229640659
 20
24.9401037152
 30
0.0
 11
-82.2347421441
 21
24.9401037152
 31
0.0
  0
LINE
  5
1D4
330
1F
100
AcDbEntity
  8
0
  6
Continuous
 62
     7
370
    25
100
AcDbLine
 10
-82.8229640659
 20
25.5486091516
 30
0.0
 11
-82.8229640659
 21
24.9401037152
 31
0.0
  0
LINE
  5
1D5
330
1F
100
AcDbEntity
  8
0
  6
Continuous
 62
     7
370
    25
100
AcDbLine
 10
-75.1424740136
 20
37.312304989
 30
0.0
 11
-75.1424740136
 21
37.9305650099
 31
0.0
  0
LINE
  5
1D6
330
1F
100
AcDbEntity
  8
0
  6
Continuous
 62
     7
370
    25
100
AcDbLine
 10
-76.9066190994
 20
37.312304989
 30
0.0
 11
-75.1424740136
 21
37.312304989
 31
0.0
  0
LINE
  5
1D7
330
1F
100
AcDbEntity
  8
0
  6
Continuous
 62
     7
370
    25
100
AcDbLine
 10
-76.9066190994
 20
37.9305650099
 30
0.0
 11
-76.9066190994
 21
37.312304989
 31
0.0
  0
LINE
  5
1D8
330
1F
100
AcDbEntity
  8
0
  6
Continuous
 62
     7
370
    25
100
AcDbLine
 10
-75.1424740136
 20
37.9305650099
 30
0.0
 11
-76.9066190994
 21
37.9305650099
 31
0.0
  0
LINE
  5
1D9
330
1F
100
AcDbEntity
  8
0
  6
Continuous
 62
     7
370
    25
100
AcDbLine
 10
-81.7276542804
 20
24.9401037152
 30
0.0
 11
-81.1394323586
 21
24.9401037152
 31
0.0
  0
LINE
  5
1DA
330
1F
100
AcDbEntity
  8
0
  6
Continuous
 62
     7
370
    25
100
AcDbLine
 10
-81.7276542804
 20
25.5486091516
 30
0.0
 11
-81.7276542804
 21
24.9401037152
 31
0.0
  0
LINE
  5
1DB
330
1F
100
AcDbEntity
  8
0
  6
Continuous
 62
     7
370
    25
100
AcDbLine
 10
-81.1394323586
 20
25.5486091516
 30
0.0
 11
-81.7276542804
 21
25.5486091516
 31
0.0
  0
LINE
  5
1DC
330
1F
100
AcDbEntity
  8
0
  6
Continuous
 62
     7
370
    25
100
AcDbLine
 10
-81.1394323586
 20
24.9401037152
 30
0.0
 11
-81.1394323586
 21
25.5486091516
 31
0.0
  0
LINE
  5
1DD
330
1F
100
AcDbEntity
  8
0
  6
Continuous
 62
     7
370
    25
100
AcDbLine
 10
-82.528853105
 20
29.6188344038
 30
0.0
 11
-83.0257992114
 21
29.6188344038
 31
0.0
  0
LINE
  5
1DE
330
1F
100
AcDbEntity
  8
0
  6
Continuous
 62
     7
370
    25
100
AcDbLine
 10
-82.528853105
 20
28.165182528
 30
0.0
 11
-82.528853105
 21
29.6188344038
 31
0.0
  0
LINE
  5
1DF
330
1F
100
AcDbEntity
  8
0
  6
Continuous
 62
     7
370
    25
100
AcDbLine
 10
-83.0257992114
 20
28.165182528
 30
0.0
 11
-82.528853105
 21
28.165182528
 31
0.0
  0
LINE
  5
1E0
330
1F
100
AcDbEntity
  8
0
  6
Continuous
 62
     7
370
    25
100
AcDbLine
 10
-83.0257992114
 20
29.6188344038
 30
0.0
 11
-83.0257992114
 21
28.165182528
 31
0.0
  0
LINE
  5
1E1
330
1F
100
AcDbEntity
  8
0
  6
Continuous
 62
     7
370
    25
100
AcDbLine
 10
-75.1683697213
 20
39.6785252784
 30
0.0
 11
-76.9066190994
 21
39.6785252784
 31
0.0
  0
LINE
  5
1E2
330
1F
100
AcDbEntity
  8
0
  6
Continuous
 62
     7
370
    25
100
AcDbLine
 10
-75.1683697213
 20
39.0829240017
 30
0.0
 11
-75.1683697213
 21
39.6785252784
 31
0.0
  0
LINE
  5
1E3
330
1F
100
AcDbEntity
  8
0
  6
Continuous
 62
     7
370
    25
100
AcDbLine
 10
-76.9066190994
 20
39.0829240017
 30
0.0
 11
-75.1683697213
 21
39.0829240017
 31
0.0
  0
LINE
  5
1E4
330
1F
100
AcDbEntity
  8
0
  6
Continuous
 62
     7
370
    25
100
AcDbLine
 10
-76.9066190994
 20
39.6785252784
 30
0.0
 11
-76.9066190994
 21
39.0829240017
 31
0.0
  0
LINE
  5
1E5
330
1F
100
AcDbEntity
  8
0
  6
Continuous
 62
     7
370
    25
100
AcDbLine
 10
-75.1683697213
 20
38.8207299614
 30
0.0
 11
-76.9066190994
 21
38.8207299614
 31
0.0
  0
LINE
  5
1E6
330
1F
100
AcDbEntity
  8
0
  6
Continuous
 62
     7
370
    25
100
AcDbLine
 10
-75.1683697213
 20
38.2154177944
 30
0.0
 11
-75.1683697213
 21
38.8207299614
 31
0.0
  0
LINE
  5
1E7
330
1F
100
AcDbEntity
  8
0
  6
Continuous
 62
     7
370
    25
100
AcDbLine
 10
-76.9066190994
 20
38.2154177944
 30
0.0
 11
-75.1683697213
 21
38.2154177944
 31
0.0
  0
LINE
  5
1E8
330
1F
100
AcDbEntity
  8
0
  6
Continuous
 62
     7
370
    25
100
AcDbLine
 10
-76.9066190994
 20
38.8207299614
 30
0.0
 11
-76.9066190994
 21
38.2154177944
 31
0.0
  0
LINE
  5
1E9
330
1F
100
AcDbEntity
  8
0
  6
Continuous
 62
     7
370
    25
100
AcDbLine
 10
-83.3944589905
 20
29.6188344038
 30
0.0
 11
-83.9182738514
 21
29.6188344038
 31
0.0
  0
LINE
  5
1EA
330
1F
100
AcDbEntity
  8
0
  6
Continuous
 62
     7
370
    25
100
AcDbLine
 10
-83.3944589905
 20
28.165182528
 30
0.0
 11
-83.3944589905
 21
29.6188344038
 31
0.0
  0
LINE
  5
1EB
330
1F
100
AcDbEntity
  8
0
  6
Continuous
 62
     7
370
    25
100
AcDbLine
 10
-83.9182738514
 20
28.165182528
 30
0.0
 11
-83.3944589905
 21
28.165182528
 31
0.0
  0
LINE
  5
1EC
330
1F
100
AcDbEntity
  8
0
  6
Continuous
 62
     7
370
    25
100
AcDbLine
 10
-83.9182738514
 20
29.6188344038
 30
0.0
 11
-83.9182738514
 21
28.165182528
 31
0.0
  0
LINE
  5
1ED
330
1F
100
AcDbEntity
  8
0
  6
Continuous
 62
     7
370
    25
100
AcDbLine
 10
-80.3889423204
 20
27.0293057135
 30
0.0
 11
-80.9095525271
 21
27.0293057135
 31
0.0
  0
LINE
  5
1EE
330
1F
100
AcDbEntity
  8
0
  6
Continuous
 62
     7
370
    25
100
AcDbLine
 10
-80.3889423204
 20
26.4613673062
 30
0.0
 11
-80.3889423204
 21
27.0293057135
 31
0.0
  0
LINE
  5
1EF
330
1F
100
AcDbEntity
  8
0
  6
Continuous
 62
     7
370
    25
100
AcDbLine
 10
-80.9095525271
 20
26.4613673062
 30
0.0
 11
-80.3889423204
 21
26.4613673062
 31
0.0
  0
LINE
  5
1F0
330
1F
100
AcDbEntity
  8
0
  6
Continuous
 62
     7
370
    25
100
AcDbLine
 10
-80.9095525271
 20
27.0293057135
 30
0.0
 11
-80.9095525271
 21
26.4613673062
 31
0.0
  0
LINE
  5
1F1
330
1F
100
AcDbEntity
  8
0
  6
Continuous
 62
     7
370
    25
100
AcDbLine
 10
-82.9896877159
 20
34.1766141715
 30
0.0
 11
-82.9896877159
 21
39.1741350151
 31
0.0
  0
LINE
  5
1F2
330
1F
100
AcDbEntity
  8
0
  6
Continuous
 62
     7
370
    25
100
AcDbLine
 10
-85.8705297733
 20
39.1741350151
 30
0.0
 11
-82.9896877159
 21
39.1741350151
 31
0.0
  0
LINE
  5
1F3
330
1F
100
AcDbEntity
  8
0
  6
Continuous
 62
     7
370
    25
100
AcDbLine
 10
-85.8705297733
 20
41.9976190012
 30
0.0
 11
-85.8705297733
 21
39.1741350151
 31
0.0
  0
LINE
  5
1F4
330
1F
100
AcDbEntity
  8
0
  6
Continuous
 62
     7
370
    25
100
AcDbLine
 10
-85.8705297733
 20
41.9976190012
 30
0.0
 11
-79.7936121204
 21
41.9976190012
 31
0.0
  0
LINE
  5
1F5
330
1F
100
AcDbEntity
  8
0
  6
Continuous
 62
     7
370
    25
100
AcDbLine
 10
-79.7936121204
 20
41.9976190012
 30
0.0
 11
-79.7936121204
 21
39.1741350151
 31
0.0
  0
LINE
  5
1F6
330
1F
100
AcDbEntity
  8
0
  6
Continuous
 62
     7
370
    25
100
AcDbLine
 10
-82.7275623832
 20
39.1741350151
 30
0.0
 11
-79.7936121204
 21
39.1741350151
 31
0.0
  0
LINE
  5
1F7
330
1F
100
AcDbEntity
  8
0
  6
Continuous
 62
     7
370
    25
100
AcDbLine
 10
-82.7275623832
 20
34.4796631629
 30
0.0
 11
-82.7275623832
 21
39.1741350151
 31
0.0
  0
LINE
  5
1F8
330
1F
100
AcDbEntity
  8
0
  6
Continuous
 62
     7
370
    25
100
AcDbLine
 10
-82.7275623832
 20
34.4796631629
 30
0.0
 11
-80.7922301849
 21
34.4796631629
 31
0.0
  0
LINE
  5
1F9
330
1F
100
AcDbEntity
  8
0
  6
Continuous
 62
     7
370
    25
100
AcDbLine
 10
-80.7922301849
 20
34.1766141715
 30
0.0
 11
-82.9896877159
 21
34.1766141715
 31
0.0
  0
LINE
  5
1FA
330
1F
100
AcDbEntity
  8
0
  6
Continuous
 62
     7
370
    25
100
AcDbLine
 10
-73.7210561972
 20
29.0736650785
 30
0.0
 11
-73.7210561972
 21
34.4796631629
 31
0.0
  0
LINE
  5
1FB
330
1F
100
AcDbEntity
  8
0
  6
Continuous
 62
     7
370
    25
100
AcDbLine
 10
-70.8492030879
 20
29.0736650785
 30
0.0
 11
-70.8492030879
 21
26.3014924613
 31
0.0
  0
LINE
  5
1FC
330
1F
100
AcDbEntity
  8
0
  6
Continuous
 62
     7
370
    25
100
AcDbLine
 10
-76.9428728503
 20
26.3014924613
 30
0.0
 11
-70.8492030879
 21
26.3014924613
 31
0.0
  0
LINE
  5
1FD
330
1F
100
AcDbEntity
  8
0
  6
Continuous
 62
     7
370
    25
100
AcDbLine
 10
-76.9428728503
 20
29.0736650785
 30
0.0
 11
-76.9428728503
 21
26.3014924613
 31
0.0
  0
LINE
  5
1FE
330
1F
100
AcDbEntity
  8
0
  6
Continuous
 62
     7
370
    25
100
AcDbLine
 10
-76.9428728503
 20
29.0736650785
 30
0.0
 11
-73.9790753977
 21
29.0736650785
 31
0.0
  0
LINE
  5
1FF
330
1F
100
AcDbEntity
  8
0
  6
Continuous
 62
     7
370
    25
100
AcDbLine
 10
-73.9790753977
 20
29.0736650785
 30
0.0
 11
-73.9790753977
 21
34.1766141715
 31
0.0
  0
LINE
  5
200
330
1F
100
AcDbEntity
  8
0
  6
Continuous
 62
     7
370
    25
100
AcDbLine
 10
-76.5525698403
 20
34.4796631629
 30
0.0
 11
-73.7210561972
 21
34.4796631629
 31
0.0
  0
LINE
  5
201
330
1F
100
AcDbEntity
  8
0
  6
Continuous
 62
     7
370
    25
100
AcDbLine
 10
-73.9790753977
 20
34.1766141715
 30
0.0
 11
-76.5525698403
 21
34.1766141715
 31
0.0
  0
LINE
  5
202
330
1F
100
AcDbEntity
  8
0
  6
Continuous
 62
     7
370
    25
100
AcDbLine
 10
-73.7210561972
 20
29.0736650785
 30
0.0
 11
-70.8492030879
 21
29.0736650785
 31
0.0
  0
LINE
  5
203
330
1F
100
AcDbEntity
  8
0
  6
Continuous
 62
     7
370
    25
100
AcDbLine
 10
-72.8768100813
 20
31.8383455167
 30
0.0
 11
-72.7469399514
 21
31.8553909712
 31
0.0
  0
LINE
  5
204
330
1F
100
AcDbEntity
  8
0
  6
Continuous
 62
     7
370
    25
100
AcDbLine
 10
-72.7339529384
 20
32.2839623998
 30
0.0
 11
-72.8638230683
 21
32.3066896725
 31
0.0
  0
LINE
  5
205
330
1F
100
AcDbEntity
  8
0
  6
Continuous
 62
     7
370
    25
100
AcDbLine
 10
-72.4169886527
 20
32.112696166
 30
0.0
 11
-72.4169886527
 21
32.110058179
 31
0.0
  0
LINE
  5
206
330
1F
100
AcDbEntity
  8
0
  6
Continuous
 62
     7
370
    25
100
AcDbLine
 10
-72.6430438475
 20
32.0372091531
 30
0.0
 11
-72.6290422241
 21
32.1540922699
 31
0.0
  0
LINE
  5
207
330
1F
100
AcDbEntity
  8
0
  6
Continuous
 62
     7
370
    25
100
AcDbLine
 10
-71.8897970942
 20
31.5696766855
 30
0.0
 11
-72.0326542371
 21
31.5696766855
 31
0.0
  0
LINE
  5
208
330
1F
100
AcDbEntity
  8
0
  6
Continuous
 62
     7
370
    25
100
AcDbLine
 10
-72.0326542371
 20
31.5696766855
 30
0.0
 11
-72.0326542371
 21
31.7125338284
 31
0.0
  0
LINE
  5
209
330
1F
100
AcDbEntity
  8
0
  6
Continuous
 62
     7
370
    25
100
AcDbLine
 10
-72.0326542371
 20
31.7125338284
 30
0.0
 11
-71.8897970942
 21
31.7125338284
 31
0.0
  0
LINE
  5
20A
330
1F
100
AcDbEntity
  8
0
  6
Continuous
 62
     7
370
    25
100
AcDbLine
 10
-71.8897970942
 20
31.7125338284
 30
0.0
 11
-71.8897970942
 21
31.5696766855
 31
0.0
  0
LINE
  5
20B
330
1F
100
AcDbEntity
  8
0
  6
Continuous
 62
     7
370
    25
100
AcDbLine
 10
-72.0955981942
 20
41.5795915284
 30
0.0
 11
-72.225468324
 21
41.5795915284
 31
0.0
  0
LINE
  5
20C
330
1F
100
AcDbEntity
  8
0
  6
Continuous
 62
     7
370
    25
100
AcDbLine
 10
-72.225468324
 20
41.5795915284
 30
0.0
 11
-72.225468324
 21
42.4627084116
 31
0.0
  0
LINE
  5
20D
330
1F
100
AcDbEntity
  8
0
  6
Continuous
 62
     7
370
    25
100
AcDbLine
 10
-72.225468324
 20
42.4627084116
 30
0.0
 11
-72.5501436487
 21
42.4627084116
 31
0.0
  0
LINE
  5
20E
330
1F
100
AcDbEntity
  8
0
  6
Continuous
 62
     7
370
    25
100
AcDbLine
 10
-72.5501436487
 20
42.4627084116
 30
0.0
 11
-72.5501436487
 21
42.5795915284
 31
0.0
  0
LINE
  5
20F
330
1F
100
AcDbEntity
  8
0
  6
Continuous
 62
     7
370
    25
100
AcDbLine
 10
-72.5501436487
 20
42.5795915284
 30
0.0
 11
-71.7579358565
 21
42.5795915284
 31
0.0
  0
LINE
  5
210
330
1F
100
AcDbEntity
  8
0
  6
Continuous
 62
     7
370
    25
100
AcDbLine
 10
-71.7579358565
 20
42.5795915284
 30
0.0
 11
-71.7579358565
 21
42.4627084116
 31
0.0
  0
LINE
  5
211
330
1F
100
AcDbEntity
  8
0
  6
Continuous
 62
     7
370
    25
100
AcDbLine
 10
-71.7579358565
 20
42.4627084116
 30
0.0
 11
-72.0955981942
 21
42.4627084116
 31
0.0
  0
LINE
  5
212
330
1F
100
AcDbEntity
  8
0
  6
Continuous
 62
     7
370
    25
100
AcDbLine
 10
-72.0955981942
 20
42.4627084116
 30
0.0
 11
-72.0955981942
 21
41.5795915284
 31
0.0
  0
LINE
  5
213
330
1F
100
AcDbEntity
  8
0
  6
Continuous
 62
     7
370
    25
100
AcDbLine
 10
-71.9543629606
 20
37.2833365225
 30
0.0
 11
-71.9543629606
 21
36.4002196394
 31
0.0
  0
LINE
  5
214
330
1F
100
AcDbEntity
  8
0
  6
Continuous
 62
     7
370
    25
100
AcDbLine
 10
-71.9543629606
 20
36.4002196394
 30
0.0
 11
-72.0842330904
 21
36.4002196394
 31
0.0
  0
LINE
  5
215
330
1F
100
AcDbEntity
  8
0
  6
Continuous
 62
     7
370
    25
100
AcDbLine
 10
-72.0842330904
 20
36.4002196394
 30
0.0
 11
-72.0842330904
 21
37.2833365225
 31
0.0
  0
LINE
  5
216
330
1F
100
AcDbEntity
  8
0
  6
Continuous
 62
     7
370
    25
100
AcDbLine
 10
-72.0842330904
 20
37.2833365225
 30
0.0
 11
-72.4089084151
 21
37.2833365225
 31
0.0
  0
LINE
  5
217
330
1F
100
AcDbEntity
  8
0
  6
Continuous
 62
     7
370
    25
100
AcDbLine
 10
-72.4089084151
 20
37.2833365225
 30
0.0
 11
-72.4089084151
 21
37.4002196394
 31
0.0
  0
LINE
  5
218
330
1F
100
AcDbEntity
  8
0
  6
Continuous
 62
     7
370
    25
100
AcDbLine
 10
-71.6167006229
 20
37.2833365225
 30
0.0
 11
-71.9543629606
 21
37.2833365225
 31
0.0
  0
LINE
  5
219
330
1F
100
AcDbEntity
  8
0
  6
Continuous
 62
     7
370
    25
100
AcDbLine
 10
-72.4089084151
 20
37.4002196394
 30
0.0
 11
-71.6167006229
 21
37.4002196394
 31
0.0
  0
LINE
  5
21A
330
1F
100
AcDbEntity
  8
0
  6
Continuous
 62
     7
370
    25
100
AcDbLine
 10
-71.6167006229
 20
37.4002196394
 30
0.0
 11
-71.6167006229
 21
37.2833365225
 31
0.0
  0
LINE
  5
21B
330
1F
100
AcDbEntity
  8
0
  6
Continuous
 62
     7
370
    25
100
AcDbLine
 10
-71.0582590645
 20
36.4002196394
 30
0.0
 11
-71.1881291943
 21
36.4002196394
 31
0.0
  0
LINE
  5
21C
330
1F
100
AcDbEntity
  8
0
  6
Continuous
 62
     7
370
    25
100
AcDbLine
 10
-71.1881291943
 20
36.4002196394
 30
0.0
 11
-71.1881291943
 21
37.1924274316
 31
0.0
  0
LINE
  5
21D
330
1F
100
AcDbEntity
  8
0
  6
Continuous
 62
     7
370
    25
100
AcDbLine
 10
-71.4348824411
 20
37.0495702887
 30
0.0
 11
-71.4348824411
 21
37.1664534056
 31
0.0
  0
LINE
  5
21E
330
1F
100
AcDbEntity
  8
0
  6
Continuous
 62
     7
370
    25
100
AcDbLine
 10
-71.1361811424
 20
37.4132066524
 30
0.0
 11
-71.0582590645
 21
37.4132066524
 31
0.0
  0
LINE
  5
21F
330
1F
100
AcDbEntity
  8
0
  6
Continuous
 62
     7
370
    25
100
AcDbLine
 10
-71.0582590645
 20
37.4132066524
 30
0.0
 11
-71.0582590645
 21
36.4002196394
 31
0.0
  0
LINE
  5
220
330
1F
100
AcDbEntity
  8
0
  6
Continuous
 62
     7
370
    25
100
AcDbLine
 10
-73.1156290668
 20
39.4960531427
 30
0.0
 11
-72.8305235473
 21
39.4960531427
 31
0.0
  0
LINE
  5
221
330
1F
100
AcDbEntity
  8
0
  6
Continuous
 62
     7
370
    25
100
AcDbLine
 10
-72.7982589369
 20
39.8337154803
 30
0.0
 11
-73.1156290668
 21
39.8337154803
 31
0.0
  0
LINE
  5
222
330
1F
100
AcDbEntity
  8
0
  6
Continuous
 62
     7
370
    25
100
AcDbLine
 10
-73.1156290668
 20
39.8337154803
 30
0.0
 11
-73.1156290668
 21
39.4960531427
 31
0.0
  0
LINE
  5
223
330
1F
100
AcDbEntity
  8
0
  6
Continuous
 62
     7
370
    25
100
AcDbLine
 10
-72.3721225733
 20
38.9376115842
 30
0.0
 11
-72.5401420538
 21
38.9376115842
 31
0.0
  0
LINE
  5
224
330
1F
100
AcDbEntity
  8
0
  6
Continuous
 62
     7
370
    25
100
AcDbLine
 10
-72.9644521187
 20
39.3791700258
 30
0.0
 11
-73.1156290668
 21
39.3791700258
 31
0.0
  0
LINE
  5
225
330
1F
100
AcDbEntity
  8
0
  6
Continuous
 62
     7
370
    25
100
AcDbLine
 10
-73.1156290668
 20
39.3791700258
 30
0.0
 11
-73.1156290668
 21
38.9376115842
 31
0.0
  0
LINE
  5
226
330
1F
100
AcDbEntity
  8
0
  6
Continuous
 62
     7
370
    25
100
AcDbLine
 10
-73.1156290668
 20
38.9376115842
 30
0.0
 11
-73.2454991966
 21
38.9376115842
 31
0.0
  0
LINE
  5
227
330
1F
100
AcDbEntity
  8
0
  6
Continuous
 62
     7
370
    25
100
AcDbLine
 10
-73.2454991966
 20
38.9376115842
 30
0.0
 11
-73.2454991966
 21
39.9376115842
 31
0.0
  0
LINE
  5
228
330
1F
100
AcDbEntity
  8
0
  6
Continuous
 62
     7
370
    25
100
AcDbLine
 10
-73.2454991966
 20
39.9376115842
 30
0.0
 11
-72.80637582
 21
39.9376115842
 31
0.0
  0
LINE
  5
229
330
1F
100
AcDbEntity
  8
0
  6
Continuous
 62
     7
370
    25
100
AcDbLine
 10
-72.733526794
 20
39.3947950258
 30
0.0
 11
-72.733526794
 21
39.3921570388
 31
0.0
  0
LINE
  5
22A
330
1F
100
AcDbEntity
  8
0
  6
Continuous
 62
     7
370
    25
100
AcDbLine
 10
-72.5454180278
 20
39.2099330128
 30
0.0
 11
-72.3721225733
 21
38.9376115842
 31
0.0
  0
LINE
  5
22B
330
1F
100
AcDbEntity
  8
0
  6
Continuous
 62
     7
370
    25
100
AcDbLine
 10
-71.7079789124
 20
31.8383455167
 30
0.0
 11
-71.5781087825
 21
31.8553909712
 31
0.0
  0
LINE
  5
22C
330
1F
100
AcDbEntity
  8
0
  6
Continuous
 62
     7
370
    25
100
AcDbLine
 10
-71.4742126787
 20
32.0372091531
 30
0.0
 11
-71.4602110553
 21
32.1540922699
 31
0.0
  0
LINE
  5
22D
330
1F
100
AcDbEntity
  8
0
  6
Continuous
 62
     7
370
    25
100
AcDbLine
 10
-71.2481574838
 20
32.112696166
 30
0.0
 11
-71.2481574838
 21
32.110058179
 31
0.0
  0
LINE
  5
22E
330
1F
100
AcDbEntity
  8
0
  6
Continuous
 62
     7
370
    25
100
AcDbLine
 10
-71.5651217696
 20
32.2839623998
 30
0.0
 11
-71.6949918994
 21
32.3066896725
 31
0.0
  0
LINE
  5
22F
330
1F
100
AcDbEntity
  8
0
  6
Continuous
 62
     7
370
    25
100
AcDbLine
 10
-72.4974897944
 20
34.6654264047
 30
0.0
 11
-72.6273599243
 21
34.6325530281
 31
0.0
  0
LINE
  5
230
330
1F
100
AcDbEntity
  8
0
  6
Continuous
 62
     7
370
    25
100
AcDbLine
 10
-72.6143729113
 20
34.1502072489
 30
0.0
 11
-72.6143729113
 21
34.3338517294
 31
0.0
  0
LINE
  5
231
330
1F
100
AcDbEntity
  8
0
  6
Continuous
 62
     7
370
    25
100
AcDbLine
 10
-72.6143729113
 20
34.3338517294
 30
0.0
 11
-72.91307421
 21
34.3338517294
 31
0.0
  0
LINE
  5
232
330
1F
100
AcDbEntity
  8
0
  6
Continuous
 62
     7
370
    25
100
AcDbLine
 10
-72.91307421
 20
34.3338517294
 30
0.0
 11
-72.91307421
 21
34.4507348463
 31
0.0
  0
LINE
  5
233
330
1F
100
AcDbEntity
  8
0
  6
Continuous
 62
     7
370
    25
100
AcDbLine
 10
-72.91307421
 20
34.4507348463
 30
0.0
 11
-72.4845027814
 21
34.4507348463
 31
0.0
  0
LINE
  5
234
330
1F
100
AcDbEntity
  8
0
  6
Continuous
 62
     7
370
    25
100
AcDbLine
 10
-72.4845027814
 20
34.4507348463
 30
0.0
 11
-72.4845027814
 21
34.085272184
 31
0.0
  0
LINE
  5
235
330
1F
100
AcDbEntity
  8
0
  6
Continuous
 62
     7
370
    25
100
AcDbLine
 10
-71.4974897944
 20
33.9442413398
 30
0.0
 11
-71.636897262
 21
33.9442413398
 31
0.0
  0
LINE
  5
236
330
1F
100
AcDbEntity
  8
0
  6
Continuous
 62
     7
370
    25
100
AcDbLine
 10
-71.636897262
 20
33.9442413398
 30
0.0
 11
-72.1442024568
 21
34.7236650411
 31
0.0
  0
LINE
  5
237
330
1F
100
AcDbEntity
  8
0
  6
Continuous
 62
     7
370
    25
100
AcDbLine
 10
-72.1442024568
 20
34.7236650411
 30
0.0
 11
-72.1468404438
 21
34.7236650411
 31
0.0
  0
LINE
  5
238
330
1F
100
AcDbEntity
  8
0
  6
Continuous
 62
     7
370
    25
100
AcDbLine
 10
-72.1468404438
 20
34.7236650411
 30
0.0
 11
-72.1468404438
 21
33.9442413398
 31
0.0
  0
LINE
  5
239
330
1F
100
AcDbEntity
  8
0
  6
Continuous
 62
     7
370
    25
100
AcDbLine
 10
-72.1468404438
 20
33.9442413398
 30
0.0
 11
-72.2767105737
 21
33.9442413398
 31
0.0
  0
LINE
  5
23A
330
1F
100
AcDbEntity
  8
0
  6
Continuous
 62
     7
370
    25
100
AcDbLine
 10
-72.2767105737
 20
33.9442413398
 30
0.0
 11
-72.2767105737
 21
34.9442413398
 31
0.0
  0
LINE
  5
23B
330
1F
100
AcDbEntity
  8
0
  6
Continuous
 62
     7
370
    25
100
AcDbLine
 10
-72.2767105737
 20
34.9442413398
 30
0.0
 11
-72.1373031061
 21
34.9442413398
 31
0.0
  0
LINE
  5
23C
330
1F
100
AcDbEntity
  8
0
  6
Continuous
 62
     7
370
    25
100
AcDbLine
 10
-72.1373031061
 20
34.9442413398
 30
0.0
 11
-71.6299979113
 21
34.1646147164
 31
0.0
  0
LINE
  5
23D
330
1F
100
AcDbEntity
  8
0
  6
Continuous
 62
     7
370
    25
100
AcDbLine
 10
-71.6299979113
 20
34.1646147164
 30
0.0
 11
-71.6273599243
 21
34.1646147164
 31
0.0
  0
LINE
  5
23E
330
1F
100
AcDbEntity
  8
0
  6
Continuous
 62
     7
370
    25
100
AcDbLine
 10
-71.6273599243
 20
34.1646147164
 30
0.0
 11
-71.6273599243
 21
34.9442413398
 31
0.0
  0
LINE
  5
23F
330
1F
100
AcDbEntity
  8
0
  6
Continuous
 62
     7
370
    25
100
AcDbLine
 10
-71.6273599243
 20
34.9442413398
 30
0.0
 11
-71.4974897944
 21
34.9442413398
 31
0.0
  0
LINE
  5
240
330
1F
100
AcDbEntity
  8
0
  6
Continuous
 62
     7
370
    25
100
AcDbLine
 10
-71.4974897944
 20
34.9442413398
 30
0.0
 11
-71.4974897944
 21
33.9442413398
 31
0.0
  0
LINE
  5
241
330
1F
100
AcDbEntity
  8
0
  6
Continuous
 62
     7
370
    25
100
AcDbLine
 10
-70.9187560282
 20
34.8273582229
 30
0.0
 11
-71.1338534308
 21
34.8273582229
 31
0.0
  0
LINE
  5
242
330
1F
100
AcDbEntity
  8
0
  6
Continuous
 62
     7
370
    25
100
AcDbLine
 10
-71.1338534308
 20
34.8273582229
 30
0.0
 11
-71.1338534308
 21
34.0611244567
 31
0.0
  0
LINE
  5
243
330
1F
100
AcDbEntity
  8
0
  6
Continuous
 62
     7
370
    25
100
AcDbLine
 10
-71.1338534308
 20
34.0611244567
 30
0.0
 11
-70.9144946646
 21
34.0611244567
 31
0.0
  0
LINE
  5
244
330
1F
100
AcDbEntity
  8
0
  6
Continuous
 62
     7
370
    25
100
AcDbLine
 10
-71.2637235607
 20
34.9442413398
 30
0.0
 11
-70.9167268074
 21
34.9442413398
 31
0.0
  0
LINE
  5
245
330
1F
100
AcDbEntity
  8
0
  6
Continuous
 62
     7
370
    25
100
AcDbLine
 10
-70.9017105737
 20
33.9442413398
 30
0.0
 11
-71.2637235607
 21
33.9442413398
 31
0.0
  0
LINE
  5
246
330
1F
100
AcDbEntity
  8
0
  6
Continuous
 62
     7
370
    25
100
AcDbLine
 10
-71.2637235607
 20
33.9442413398
 30
0.0
 11
-71.2637235607
 21
34.9442413398
 31
0.0
  0
LINE
  5
247
330
1F
100
AcDbEntity
  8
0
  6
Continuous
 62
     7
370
    25
100
AcDbLine
 10
-71.5371566357
 20
42.2808902297
 30
0.0
 11
-71.6670267656
 21
42.2948918531
 31
0.0
  0
LINE
  5
248
330
1F
100
AcDbEntity
  8
0
  6
Continuous
 62
     7
370
    25
100
AcDbLine
 10
-71.0306631292
 20
41.5795915284
 30
0.0
 11
-71.6930007916
 21
41.5795915284
 31
0.0
  0
LINE
  5
249
330
1F
100
AcDbEntity
  8
0
  6
Continuous
 62
     7
370
    25
100
AcDbLine
 10
-71.5241696227
 20
41.6964746453
 30
0.0
 11
-71.0306631292
 21
41.6964746453
 31
0.0
  0
LINE
  5
24A
330
1F
100
AcDbEntity
  8
0
  6
Continuous
 62
     7
370
    25
100
AcDbLine
 10
-71.0306631292
 20
41.6964746453
 30
0.0
 11
-71.0306631292
 21
41.5795915284
 31
0.0
  0
LINE
  5
24B
330
1F
100
AcDbEntity
  8
0
  6
Continuous
 62
     7
370
    25
100
AcDbLine
 10
-71.8776014694
 20
39.3467024933
 30
0.0
 11
-71.8802394564
 21
39.3467024933
 31
0.0
  0
LINE
  5
24C
330
1F
100
AcDbEntity
  8
0
  6
Continuous
 62
     7
370
    25
100
AcDbLine
 10
-72.176099846
 20
38.9376115842
 30
0.0
 11
-72.3364082875
 21
38.9376115842
 31
0.0
  0
LINE
  5
24D
330
1F
100
AcDbEntity
  8
0
  6
Continuous
 62
     7
370
    25
100
AcDbLine
 10
-72.3364082875
 20
38.9376115842
 30
0.0
 11
-71.9595819888
 21
39.4589184024
 31
0.0
  0
LINE
  5
24E
330
1F
100
AcDbEntity
  8
0
  6
Continuous
 62
     7
370
    25
100
AcDbLine
 10
-71.9595819888
 20
39.4589184024
 30
0.0
 11
-72.2974472486
 21
39.9376115842
 31
0.0
  0
LINE
  5
24F
330
1F
100
AcDbEntity
  8
0
  6
Continuous
 62
     7
370
    25
100
AcDbLine
 10
-72.1336891317
 20
39.9376115842
 30
0.0
 11
-71.9256940018
 21
39.6429687271
 31
0.0
  0
LINE
  5
250
330
1F
100
AcDbEntity
  8
0
  6
Continuous
 62
     7
370
    25
100
AcDbLine
 10
-71.613599846
 20
39.9376115842
 30
0.0
 11
-71.4532914044
 21
39.9376115842
 31
0.0
  0
LINE
  5
251
330
1F
100
AcDbEntity
  8
0
  6
Continuous
 62
     7
370
    25
100
AcDbLine
 10
-71.4532914044
 20
39.9376115842
 30
0.0
 11
-71.7972443265
 21
39.4617593115
 31
0.0
  0
LINE
  5
252
330
1F
100
AcDbEntity
  8
0
  6
Continuous
 62
     7
370
    25
100
AcDbLine
 10
-71.7972443265
 20
39.4617593115
 30
0.0
 11
-71.4273173785
 21
38.9376115842
 31
0.0
  0
LINE
  5
253
330
1F
100
AcDbEntity
  8
0
  6
Continuous
 62
     7
370
    25
100
AcDbLine
 10
-71.4273173785
 20
38.9376115842
 30
0.0
 11
-71.5912784174
 21
38.9376115842
 31
0.0
  0
LINE
  5
254
330
1F
100
AcDbEntity
  8
0
  6
Continuous
 62
     7
370
    25
100
AcDbLine
 10
-71.5912784174
 20
38.9376115842
 30
0.0
 11
-71.7909537421
 21
39.2202820388
 31
0.0
  0
LINE
  5
255
330
1F
100
AcDbEntity
  8
0
  6
Continuous
 62
     7
370
    25
100
AcDbLine
 10
-72.2974472486
 20
39.9376115842
 30
0.0
 11
-72.1336891317
 21
39.9376115842
 31
0.0
  0
LINE
  5
256
330
1F
100
AcDbEntity
  8
0
  6
Continuous
 62
     7
370
    25
100
AcDbLine
 10
-68.3828904397
 20
30.3411786288
 30
0.0
 11
-73.7210561972
 21
30.3411786288
 31
0.0
  0
LINE
  5
257
330
1F
100
AcDbEntity
  8
0
  6
Continuous
 62
     7
370
    25
100
AcDbLine
 10
-68.3828904397
 20
42.4113443939
 30
0.0
 11
-68.3828904397
 21
25.9113443939
 31
0.0
  0
LINE
  5
258
330
1F
100
AcDbEntity
  8
0
  6
Continuous
 62
     7
370
    25
100
AcDbLine
 10
-86.6328904397
 20
24.1613443939
 30
0.0
 11
-70.1328904397
 21
24.1613443939
 31
0.0
  0
LINE
  5
259
330
1F
100
AcDbEntity
  8
0
  6
Continuous
 62
     7
370
    25
100
AcDbLine
 10
-78.3641840722
 20
30.3411786288
 30
0.0
 11
-78.3641840722
 21
24.1613443939
 31
0.0
  0
LINE
  5
25A
330
1F
100
AcDbEntity
  8
0
  6
Continuous
 62
     7
370
    25
100
AcDbLine
 10
-73.9790753977
 20
30.3411786288
 30
0.0
 11
-78.3641840722
 21
30.3411786288
 31
0.0
  0
LINE
  5
25B
330
1F
100
AcDbEntity
  8
0
  6
Continuous
 62
     7
370
    25
100
AcDbLine
 10
-82.7275623832
 20
37.9072993894
 30
0.0
 11
-78.3641840722
 21
37.9072993894
 31
0.0
  0
LINE
  5
25C
330
1F
100
AcDbEntity
  8
0
  6
Continuous
 62
     7
370
    25
100
AcDbLine
 10
-88.3828904397
 20
37.9072993894
 30
0.0
 11
-82.9896877159
 21
37.9072993894
 31
0.0
  0
LINE
  5
25D
330
1F
100
AcDbEntity
  8
0
  6
Continuous
 62
     7
370
    25
100
AcDbLine
 10
-78.3641840722
 20
37.9072993894
 30
0.0
 11
-78.3641840722
 21
44.1613443939
 31
0.0
  0
LINE
  5
25E
330
1F
100
AcDbEntity
  8
0
  6
Continuous
 62
     7
370
    25
100
AcDbLine
 10
-88.3828904397
 20
42.4113443939
 30
0.0
 11
-88.3828904397
 21
25.9113443939
 31
0.0
  0
LINE
  5
25F
330
1F
100
AcDbEntity
  8
0
  6
Continuous
 62
     7
370
    25
100
AcDbLine
 10
-70.1328904397
 20
44.1613443939
 30
0.0
 11
-86.6328904397
 21
44.1613443939
 31
0.0
  0
ARC
  5
260
330
1F
100
AcDbEntity
  8
0
  6
Continuous
 62
     7
370
    25
100
AcDbCircle
 10
-70.1328904397
 20
25.9113443939
 30
0.0
 40
1.749999999999989
100
AcDbArc
 50
270.0
 51
0.0
  0
ARC
  5
261
330
1F
100
AcDbEntity
  8
0
  6
Continuous
 62
     7
370
    25
100
AcDbCircle
 10
-86.6328904397
 20
42.4113443939
 30
0.0
 40
1.750000000000028
100
AcDbArc
 50
90.0
 51
180.0
  0
ARC
  5
262
330
1F
100
AcDbEntity
  8
0
  6
Continuous
 62
     7
370
    25
100
AcDbCircle
 10
-86.6328904397
 20
25.9113443939
 30
0.0
 40
1.750000000000014
100
AcDbArc
 50
180.0
 51
270.0
  0
ARC
  5
263
330
1F
100
AcDbEntity
  8
0
  6
Continuous
 62
     7
370
    25
100
AcDbCircle
 10
-70.1328904397
 20
42.4113443939
 30
0.0
 40
1.75
100
AcDbArc
 50
0.0
 51
90.0
  0
ENDSEC
  0
SECTION
  2
OBJECTS
  0
DICTIONARY
  5
C
330
0
100
AcDbDictionary
281
     1
  3
ACAD_GROUP
350
D
  3
ACAD_LAYOUT
350
1A
  3
ACAD_MLINESTYLE
350
17
  3
ACAD_PLOTSETTINGS
350
19
  3
ACAD_PLOTSTYLENAME
350
E
  3
ACAD_SCALELIST
350
47
  3
DWGPROPS
350
264
  0
DICTIONARY
  5
D
102
{ACAD_REACTORS
330
C
102
}
330
C
100
AcDbDictionary
281
     1
  0
DICTIONARY
  5
1A
102
{ACAD_REACTORS
330
C
102
}
330
C
100
AcDbDictionary
281
     1
  3
Layout1
350
1E
  3
Layout2
350
26
  3
Model
350
22
  0
DICTIONARY
  5
17
102
{ACAD_REACTORS
330
C
102
}
330
C
100
AcDbDictionary
281
     1
  3
Standard
350
18
  0
DICTIONARY
  5
19
102
{ACAD_REACTORS
330
C
102
}
330
C
100
AcDbDictionary
281
     1
  0
ACDBDICTIONARYWDFLT
  5
E
102
{ACAD_REACTORS
330
C
102
}
330
C
100
AcDbDictionary
281
     1
  3
Normal
350
F
100
AcDbDictionaryWithDefault
340
F
  0
DICTIONARY
  5
47
102
{ACAD_REACTORS
330
C
102
}
330
C
100
AcDbDictionary
281
     1
  3
A0
350
48
  3
A1
350
49
  3
A2
350
4A
  3
A3
350
4B
  3
A4
350
4C
  3
A5
350
4D
  3
A6
350
4E
  3
A7
350
4F
  3
A8
350
50
  3
A9
350
51
  3
B0
350
52
  3
B1
350
53
  3
B2
350
54
  3
B3
350
55
  3
B4
350
56
  3
B5
350
57
  3
B6
350
58
  3
B7
350
59
  3
B8
350
5A
  3
B9
350
5B
  3
C0
350
5C
  3
C1
350
5D
  3
C2
350
5E
  3
C3
350
5F
  3
C4
350
60
  3
C5
350
61
  3
C6
350
62
  3
C7
350
63
  3
C8
350
64
  3
C9
350
65
  3
D0
350
66
  3
D1
350
67
  3
D2
350
68
  0
XRECORD
  5
264
102
{ACAD_REACTORS
330
C
102
}
330
C
100
AcDbXrecord
280
     1
  1
DWGPROPS COOKIE
  2

  3

  4

  6

  7

  8
ccadic
  9

300
=
301
=
302
=
303
=
304
=
305
=
306
=
307
=
308
=
309
=
 40
0.0
 41
2460114.722512338
 42
2460114.72263735
  1

 90
        0
  0
LAYOUT
  5
1E
102
{ACAD_REACTORS
330
1A
102
}
330
1A
100
AcDbPlotSettings
  1

  2
none_device
  4

  6

 40
0.0
 41
0.0
 42
0.0
 43
0.0
 44
0.0
 45
0.0
 46
0.0
 47
0.0
 48
0.0
 49
0.0
140
0.0
141
0.0
142
1.0
143
1.0
 70
   688
 72
     1
 73
     0
 74
     5
  7

 75
    16
147
1.0
148
0.0
149
0.0
100
AcDbLayout
  1
Layout1
 70
     1
 71
     1
 10
0.0
 20
0.0
 11
420.0
 21
297.0
 12
0.0
 22
0.0
 32
0.0
 14
1.0000000000E+20
 24
1.0000000000E+20
 34
1.0000000000E+20
 15
-1.0000000000E+20
 25
-1.0000000000E+20
 35
-1.0000000000E+20
146
0.0
 13
0.0
 23
0.0
 33
0.0
 16
1.0
 26
0.0
 36
0.0
 17
0.0
 27
1.0
 37
0.0
 76
     0
330
1B
  0
LAYOUT
  5
26
102
{ACAD_REACTORS
330
1A
102
}
330
1A
100
AcDbPlotSettings
  1

  2
none_device
  4

  6

 40
0.0
 41
0.0
 42
0.0
 43
0.0
 44
0.0
 45
0.0
 46
0.0
 47
0.0
 48
0.0
 49
0.0
140
0.0
141
0.0
142
1.0
143
1.0
 70
   688
 72
     1
 73
     0
 74
     5
  7

 75
    16
147
1.0
148
0.0
149
0.0
100
AcDbLayout
  1
Layout2
 70
     1
 71
     2
 10
0.0
 20
0.0
 11
0.0
 21
0.0
 12
0.0
 22
0.0
 32
0.0
 14
0.0
 24
0.0
 34
0.0
 15
0.0
 25
0.0
 35
0.0
146
0.0
 13
0.0
 23
0.0
 33
0.0
 16
1.0
 26
0.0
 36
0.0
 17
0.0
 27
1.0
 37
0.0
 76
     0
330
23
  0
LAYOUT
  5
22
102
{ACAD_REACTORS
330
1A
102
}
330
1A
100
AcDbPlotSettings
  1

  2
none_device
  4
ANSI_A_(11.00_x_8.50_Inches)
  6

 40
6.35
 41
19.05
 42
6.35000508
 43
19.05000254
 44
279.4
 45
215.9
 46
971.0318667337
 47
-276.1839968749
 48
0.0
 49
0.0
140
0.0
141
0.0
142
0.42075
143
1.0
 70
  1696
 72
     0
 73
     0
 74
     0
  7

 75
     0
147
0.0179189148
148
-1300.4909072572
149
0.0
100
AcDbLayout
  1
Model
 70
     1
 71
     0
 10
0.0
 20
0.0
 11
420.0
 21
297.0
 12
0.0
 22
0.0
 32
0.0
 14
-88.3828904397
 24
24.1613443939
 34
0.0
 15
-68.3828904397
 25
44.1613443939
 35
0.0
146
0.0
 13
0.0
 23
0.0
 33
0.0
 16
1.0
 26
0.0
 36
0.0
 17
0.0
 27
1.0
 37
0.0
 76
     0
330
1F
331
29
  0
MLINESTYLE
  5
18
102
{ACAD_REACTORS
330
17
102
}
330
17
100
AcDbMlineStyle
  2
Standard
 70
     0
  3

 62
   256
 51
90.0
 52
90.0
 71
     2
 49
0.5
 62
   256
  6
BYLAYER
 49
-0.5
 62
   256
  6
BYLAYER
  0
ACDBPLACEHOLDER
  5
F
102
{ACAD_REACTORS
330
E
102
}
330
E
  0
SCALE
  5
48
102
{ACAD_REACTORS
330
47
102
}
330
47
100
AcDbScale
 70
     0
300
1:1
140
1.0
141
1.0
290
     1
  0
SCALE
  5
49
102
{ACAD_REACTORS
330
47
102
}
330
47
100
AcDbScale
 70
     0
300
1:2
140
1.0
141
2.0
290
     0
  0
SCALE
  5
4A
102
{ACAD_REACTORS
330
47
102
}
330
47
100
AcDbScale
 70
     0
300
1:4
140
1.0
141
4.0
290
     0
  0
SCALE
  5
4B
102
{ACAD_REACTORS
330
47
102
}
330
47
100
AcDbScale
 70
     0
300
1:5
140
1.0
141
5.0
290
     0
  0
SCALE
  5
4C
102
{ACAD_REACTORS
330
47
102
}
330
47
100
AcDbScale
 70
     0
300
1:8
140
1.0
141
8.0
290
     0
  0
SCALE
  5
4D
102
{ACAD_REACTORS
330
47
102
}
330
47
100
AcDbScale
 70
     0
300
1:10
140
1.0
141
10.0
290
     0
  0
SCALE
  5
4E
102
{ACAD_REACTORS
330
47
102
}
330
47
100
AcDbScale
 70
     0
300
1:16
140
1.0
141
16.0
290
     0
  0
SCALE
  5
4F
102
{ACAD_REACTORS
330
47
102
}
330
47
100
AcDbScale
 70
     0
300
1:20
140
1.0
141
20.0
290
     0
  0
SCALE
  5
50
102
{ACAD_REACTORS
330
47
102
}
330
47
100
AcDbScale
 70
     0
300
1:30
140
1.0
141
30.0
290
     0
  0
SCALE
  5
51
102
{ACAD_REACTORS
330
47
102
}
330
47
100
AcDbScale
 70
     0
300
1:40
140
1.0
141
40.0
290
     0
  0
SCALE
  5
52
102
{ACAD_REACTORS
330
47
102
}
330
47
100
AcDbScale
 70
     0
300
1:50
140
1.0
141
50.0
290
     0
  0
SCALE
  5
53
102
{ACAD_REACTORS
330
47
102
}
330
47
100
AcDbScale
 70
     0
300
1:100
140
1.0
141
100.0
290
     0
  0
SCALE
  5
54
102
{ACAD_REACTORS
330
47
102
}
330
47
100
AcDbScale
 70
     0
300
2:1
140
2.0
141
1.0
290
     0
  0
SCALE
  5
55
102
{ACAD_REACTORS
330
47
102
}
330
47
100
AcDbScale
 70
     0
300
4:1
140
4.0
141
1.0
290
     0
  0
SCALE
  5
56
102
{ACAD_REACTORS
330
47
102
}
330
47
100
AcDbScale
 70
     0
300
8:1
140
8.0
141
1.0
290
     0
  0
SCALE
  5
57
102
{ACAD_REACTORS
330
47
102
}
330
47
100
AcDbScale
 70
     0
300
10:1
140
10.0
141
1.0
290
     0
  0
SCALE
  5
58
102
{ACAD_REACTORS
330
47
102
}
330
47
100
AcDbScale
 70
     0
300
100:1
140
100.0
141
1.0
290
     0
  0
SCALE
  5
59
102
{ACAD_REACTORS
330
47
102
}
330
47
100
AcDbScale
 70
     0
300
1/128" = 1'-0"
140
0.0078125
141
12.0
290
     0
  0
SCALE
  5
5A
102
{ACAD_REACTORS
330
47
102
}
330
47
100
AcDbScale
 70
     0
300
1/64" = 1'-0"
140
0.015625
141
12.0
290
     0
  0
SCALE
  5
5B
102
{ACAD_REACTORS
330
47
102
}
330
47
100
AcDbScale
 70
     0
300
1/32" = 1'-0"
140
0.03125
141
12.0
290
     0
  0
SCALE
  5
5C
102
{ACAD_REACTORS
330
47
102
}
330
47
100
AcDbScale
 70
     0
300
1/16" = 1'-0"
140
0.0625
141
12.0
290
     0
  0
SCALE
  5
5D
102
{ACAD_REACTORS
330
47
102
}
330
47
100
AcDbScale
 70
     0
300
3/32" = 1'-0"
140
0.09375
141
12.0
290
     0
  0
SCALE
  5
5E
102
{ACAD_REACTORS
330
47
102
}
330
47
100
AcDbScale
 70
     0
300
1/8" = 1'-0"
140
0.125
141
12.0
290
     0
  0
SCALE
  5
5F
102
{ACAD_REACTORS
330
47
102
}
330
47
100
AcDbScale
 70
     0
300
3/16" = 1'-0"
140
0.1875
141
12.0
290
     0
  0
SCALE
  5
60
102
{ACAD_REACTORS
330
47
102
}
330
47
100
AcDbScale
 70
     0
300
1/4" = 1'-0"
140
0.25
141
12.0
290
     0
  0
SCALE
  5
61
102
{ACAD_REACTORS
330
47
102
}
330
47
100
AcDbScale
 70
     0
300
3/8" = 1'-0"
140
0.375
141
12.0
290
     0
  0
SCALE
  5
62
102
{ACAD_REACTORS
330
47
102
}
330
47
100
AcDbScale
 70
     0
300
1/2" = 1'-0"
140
0.5
141
12.0
290
     0
  0
SCALE
  5
63
102
{ACAD_REACTORS
330
47
102
}
330
47
100
AcDbScale
 70
     0
300
3/4" = 1'-0"
140
0.75
141
12.0
290
     0
  0
SCALE
  5
64
102
{ACAD_REACTORS
330
47
102
}
330
47
100
AcDbScale
 70
     0
300
1" = 1'-0"
140
1.0
141
12.0
290
     0
  0
SCALE
  5
65
102
{ACAD_REACTORS
330
47
102
}
330
47
100
AcDbScale
 70
     0
300
1-1/2" = 1'-0"
140
1.5
141
12.0
290
     0
  0
SCALE
  5
66
102
{ACAD_REACTORS
330
47
102
}
330
47
100
AcDbScale
 70
     0
300
3" = 1'-0"
140
3.0
141
12.0
290
     0
  0
SCALE
  5
67
102
{ACAD_REACTORS
330
47
102
}
330
47
100
AcDbScale
 70
     0
300
6" = 1'-0"
140
6.0
141
12.0
290
     0
  0
SCALE
  5
68
102
{ACAD_REACTORS
330
47
102
}
330
47
100
AcDbScale
 70
     0
300
1'-0" = 1'-0"
140
12.0
141
12.0
290
     0
  0
ENDSEC
  0
EOF
