%TF.GenerationSoftware,KiCad,Pcbnew,(6.0.11)*%
%TF.CreationDate,2023-06-18T22:22:59+02:00*%
%TF.ProjectId,rd-03,72642d30-332e-46b6-9963-61645f706362,rev?*%
%TF.SameCoordinates,Original*%
%TF.FileFunction,Copper,L2,Bot*%
%TF.FilePolarity,Positive*%
%FSLAX46Y46*%
G04 Gerber Fmt 4.6, Leading zero omitted, Abs format (unit mm)*
G04 Created by KiCad (PCBNEW (6.0.11)) date 2023-06-18 22:22:59*
%MOMM*%
%LPD*%
G01*
G04 APERTURE LIST*
%TA.AperFunction,ComponentPad*%
%ADD10C,2.000000*%
%TD*%
%TA.AperFunction,ComponentPad*%
%ADD11C,2.286000*%
%TD*%
%TA.AperFunction,Conductor*%
%ADD12C,0.250000*%
%TD*%
G04 APERTURE END LIST*
D10*
%TO.P,U2,1,3.3*%
%TO.N,+3.3V*%
X103331736Y-77636900D03*
%TO.P,U2,2,3.3*%
%TO.N,unconnected-(U2-Pad2)*%
X103331736Y-80176900D03*
%TO.P,U2,3,RST*%
%TO.N,unconnected-(U2-Pad3)*%
X103331736Y-82716900D03*
%TO.P,U2,4,4*%
%TO.N,unconnected-(U2-Pad4)*%
X103331736Y-85256900D03*
%TO.P,U2,5,5*%
%TO.N,unconnected-(U2-Pad5)*%
X103331736Y-87796900D03*
%TO.P,U2,6,6*%
%TO.N,unconnected-(U2-Pad6)*%
X103331736Y-90336900D03*
%TO.P,U2,7,7*%
%TO.N,unconnected-(U2-Pad7)*%
X103331736Y-92876900D03*
%TO.P,U2,8,15*%
%TO.N,unconnected-(U2-Pad8)*%
X103331736Y-95416900D03*
%TO.P,U2,9,16*%
%TO.N,unconnected-(U2-Pad9)*%
X103331736Y-97956900D03*
%TO.P,U2,10,17*%
%TO.N,unconnected-(U2-Pad10)*%
X103331736Y-100496900D03*
%TO.P,U2,11,18*%
%TO.N,unconnected-(U2-Pad11)*%
X103331736Y-103036900D03*
%TO.P,U2,12,8*%
%TO.N,unconnected-(U2-Pad12)*%
X103331736Y-105576900D03*
%TO.P,U2,13,3*%
%TO.N,unconnected-(U2-Pad13)*%
X103331736Y-108116900D03*
%TO.P,U2,14,46*%
%TO.N,unconnected-(U2-Pad14)*%
X103331736Y-110656900D03*
%TO.P,U2,15,9*%
%TO.N,unconnected-(U2-Pad15)*%
X103331736Y-113196900D03*
%TO.P,U2,16,10*%
%TO.N,unconnected-(U2-Pad16)*%
X103331736Y-115736900D03*
%TO.P,U2,17,11*%
%TO.N,unconnected-(U2-Pad17)*%
X103331736Y-118276900D03*
%TO.P,U2,18,12*%
%TO.N,unconnected-(U2-Pad18)*%
X103331736Y-120816900D03*
%TO.P,U2,19,13*%
%TO.N,unconnected-(U2-Pad19)*%
X103331736Y-123356900D03*
%TO.P,U2,20,14*%
%TO.N,unconnected-(U2-Pad20)*%
X103331736Y-125896900D03*
%TO.P,U2,21,5V*%
%TO.N,unconnected-(U2-Pad21)*%
X103331736Y-128436900D03*
%TO.P,U2,22,GND*%
%TO.N,GND*%
X103331736Y-130976900D03*
%TO.P,U2,23,GND*%
X128733600Y-130976900D03*
%TO.P,U2,24,GND*%
X128731736Y-128436900D03*
%TO.P,U2,25,19*%
%TO.N,unconnected-(U2-Pad25)*%
X128731736Y-125896900D03*
%TO.P,U2,26,20*%
%TO.N,unconnected-(U2-Pad26)*%
X128731736Y-123356900D03*
%TO.P,U2,27,21*%
%TO.N,unconnected-(U2-Pad27)*%
X128731736Y-120816900D03*
%TO.P,U2,28,47*%
%TO.N,unconnected-(U2-Pad28)*%
X128731736Y-118276900D03*
%TO.P,U2,29,48*%
%TO.N,unconnected-(U2-Pad29)*%
X128731736Y-115736900D03*
%TO.P,U2,30,45*%
%TO.N,unconnected-(U2-Pad30)*%
X128731736Y-113196900D03*
%TO.P,U2,31,0*%
%TO.N,unconnected-(U2-Pad31)*%
X128731736Y-110656900D03*
%TO.P,U2,32,35*%
%TO.N,unconnected-(U2-Pad32)*%
X128731736Y-108116900D03*
%TO.P,U2,33,36*%
%TO.N,unconnected-(U2-Pad33)*%
X128731736Y-105576900D03*
%TO.P,U2,34,37*%
%TO.N,unconnected-(U2-Pad34)*%
X128731736Y-103036900D03*
%TO.P,U2,35,38*%
%TO.N,unconnected-(U2-Pad35)*%
X128731736Y-100496900D03*
%TO.P,U2,36,39*%
%TO.N,unconnected-(U2-Pad36)*%
X128731736Y-97956900D03*
%TO.P,U2,37,40*%
%TO.N,/OT2*%
X128731736Y-95416900D03*
%TO.P,U2,38,41*%
%TO.N,/GPIO41*%
X128731736Y-92876900D03*
%TO.P,U2,39,42*%
%TO.N,/GPIO42*%
X128731736Y-90336900D03*
%TO.P,U2,40,2*%
%TO.N,unconnected-(U2-Pad40)*%
X128731736Y-87796900D03*
%TO.P,U2,41,1*%
%TO.N,unconnected-(U2-Pad41)*%
X128731736Y-85256900D03*
%TO.P,U2,42,RX*%
%TO.N,unconnected-(U2-Pad42)*%
X128731736Y-82716900D03*
%TO.P,U2,43,TX*%
%TO.N,unconnected-(U2-Pad43)*%
X128731736Y-80176900D03*
%TO.P,U2,44,GND*%
%TO.N,unconnected-(U2-Pad44)*%
X128731736Y-77636900D03*
%TD*%
D11*
%TO.P,U1,1,OT2*%
%TO.N,/OT2*%
X124242202Y-49700851D03*
%TO.P,U1,2,RX*%
%TO.N,/GPIO42*%
X124242202Y-52240851D03*
%TO.P,U1,3,OT1*%
%TO.N,/GPIO41*%
X124242202Y-54780851D03*
%TO.P,U1,4,GND*%
%TO.N,GND*%
X124242202Y-57320851D03*
%TO.P,U1,5,3.3*%
%TO.N,+3.3V*%
X124242202Y-59860851D03*
%TD*%
D12*
%TO.N,+3.3V*%
X105322900Y-77477300D02*
X105751100Y-77049100D01*
X103331700Y-77636900D02*
X105322900Y-77636900D01*
X105751100Y-77049100D02*
X105751100Y-76620900D01*
X105322900Y-77636900D02*
X105322900Y-77477300D01*
X124206000Y-68326000D02*
X124206000Y-67818000D01*
X115015000Y-69088000D02*
X123444000Y-69088000D01*
X123444000Y-69088000D02*
X124206000Y-68326000D01*
X114911500Y-69191500D02*
X115015000Y-69088000D01*
X124714000Y-60332649D02*
X124242202Y-59860851D01*
X124714000Y-67310000D02*
X124714000Y-60332649D01*
X124206000Y-67818000D02*
X124714000Y-67310000D01*
X110386500Y-69191500D02*
X114911500Y-69191500D01*
X107442000Y-72136000D02*
X110386500Y-69191500D01*
X107442000Y-74930000D02*
X107442000Y-72136000D01*
X105751100Y-76620900D02*
X107442000Y-74930000D01*
%TO.N,/GPIO41*%
X125210100Y-89355300D02*
X128731700Y-92876900D01*
X125210100Y-69850200D02*
X125210100Y-89355300D01*
X125714600Y-69345700D02*
X125210100Y-69850200D01*
X125714600Y-56253200D02*
X125714600Y-69345700D01*
X124242200Y-54780800D02*
X125714600Y-56253200D01*
%TO.N,/GPIO42*%
X125660500Y-87265700D02*
X128731700Y-90336900D01*
X125660500Y-70673600D02*
X125660500Y-87265700D01*
X126165000Y-70169100D02*
X125660500Y-70673600D01*
X126165000Y-54163600D02*
X126165000Y-70169100D01*
X124242200Y-52240800D02*
X126165000Y-54163600D01*
%TO.N,/OT2*%
X130066100Y-94082500D02*
X128731700Y-95416900D01*
X130066100Y-55524700D02*
X130066100Y-94082500D01*
X124242200Y-49700800D02*
X130066100Y-55524700D01*
%TD*%
%TA.AperFunction,NonConductor*%
G36*
X126046668Y-52415725D02*
G01*
X126089212Y-52443716D01*
X129395695Y-55750199D01*
X129429721Y-55812511D01*
X129432600Y-55839294D01*
X129432600Y-70267633D01*
X129412598Y-70335754D01*
X129358942Y-70382247D01*
X129288668Y-70392351D01*
X129224088Y-70362857D01*
X129208266Y-70346414D01*
X129204925Y-70342244D01*
X129190687Y-70324472D01*
X128982149Y-70126577D01*
X128748683Y-69958814D01*
X128726843Y-69947250D01*
X128599971Y-69880075D01*
X128494608Y-69824288D01*
X128273869Y-69743509D01*
X128228658Y-69726964D01*
X128228656Y-69726963D01*
X128224627Y-69725489D01*
X127943736Y-69664245D01*
X127912685Y-69661801D01*
X127720718Y-69646693D01*
X127720709Y-69646693D01*
X127718261Y-69646500D01*
X127562729Y-69646500D01*
X127560593Y-69646646D01*
X127560582Y-69646646D01*
X127352452Y-69660835D01*
X127352446Y-69660836D01*
X127348175Y-69661127D01*
X127343980Y-69661996D01*
X127343978Y-69661996D01*
X127257581Y-69679888D01*
X127066658Y-69719426D01*
X126966559Y-69754873D01*
X126895670Y-69758757D01*
X126833933Y-69723699D01*
X126800950Y-69660829D01*
X126798500Y-69636100D01*
X126798500Y-54242367D01*
X126799027Y-54231184D01*
X126800702Y-54223691D01*
X126798562Y-54155600D01*
X126798500Y-54151643D01*
X126798500Y-54123744D01*
X126797996Y-54119753D01*
X126797063Y-54107911D01*
X126795923Y-54071636D01*
X126795674Y-54063711D01*
X126793462Y-54056097D01*
X126793461Y-54056092D01*
X126790023Y-54044259D01*
X126786012Y-54024895D01*
X126784467Y-54012664D01*
X126783474Y-54004803D01*
X126780557Y-53997436D01*
X126780556Y-53997431D01*
X126767198Y-53963692D01*
X126763354Y-53952465D01*
X126753230Y-53917622D01*
X126751018Y-53910007D01*
X126740707Y-53892572D01*
X126732012Y-53874824D01*
X126724552Y-53855983D01*
X126698564Y-53820213D01*
X126692048Y-53810293D01*
X126673580Y-53779065D01*
X126673578Y-53779062D01*
X126669542Y-53772238D01*
X126655221Y-53757917D01*
X126642380Y-53742883D01*
X126635131Y-53732906D01*
X126630472Y-53726493D01*
X126596395Y-53698302D01*
X126587616Y-53690312D01*
X125828156Y-52930852D01*
X125794130Y-52868540D01*
X125800843Y-52793538D01*
X125815833Y-52757350D01*
X125815836Y-52757342D01*
X125817729Y-52752771D01*
X125877598Y-52503397D01*
X125912950Y-52441828D01*
X125975977Y-52409145D01*
X126046668Y-52415725D01*
G37*
%TD.AperFunction*%
%TA.AperFunction,NonConductor*%
G36*
X129510018Y-47500000D02*
G01*
X129524852Y-47502310D01*
X129524855Y-47502310D01*
X129533724Y-47503691D01*
X129543659Y-47502392D01*
X129544746Y-47502250D01*
X129573431Y-47501793D01*
X129646741Y-47509013D01*
X129676212Y-47511916D01*
X129700432Y-47516733D01*
X129819546Y-47552866D01*
X129842355Y-47562315D01*
X129952124Y-47620987D01*
X129972655Y-47634705D01*
X130068876Y-47713671D01*
X130086329Y-47731124D01*
X130165295Y-47827345D01*
X130179013Y-47847876D01*
X130237685Y-47957645D01*
X130247134Y-47980454D01*
X130283267Y-48099568D01*
X130288084Y-48123789D01*
X130297541Y-48219809D01*
X130297091Y-48235868D01*
X130297800Y-48235877D01*
X130297690Y-48244853D01*
X130296309Y-48253724D01*
X130297473Y-48262626D01*
X130297473Y-48262628D01*
X130300436Y-48285283D01*
X130301500Y-48301621D01*
X130301500Y-54560005D01*
X130281498Y-54628126D01*
X130227842Y-54674619D01*
X130157568Y-54684723D01*
X130092988Y-54655229D01*
X130086405Y-54649100D01*
X125828157Y-50390852D01*
X125794131Y-50328540D01*
X125800843Y-50253540D01*
X125815833Y-50217350D01*
X125815835Y-50217343D01*
X125817729Y-50212771D01*
X125878413Y-49960001D01*
X125898809Y-49700851D01*
X125878413Y-49441701D01*
X125817729Y-49188931D01*
X125718250Y-48948767D01*
X125582425Y-48727122D01*
X125413600Y-48529453D01*
X125215931Y-48360628D01*
X124994286Y-48224803D01*
X124989716Y-48222910D01*
X124989714Y-48222909D01*
X124758695Y-48127218D01*
X124758693Y-48127217D01*
X124754122Y-48125324D01*
X124667659Y-48104566D01*
X124506165Y-48065795D01*
X124506159Y-48065794D01*
X124501352Y-48064640D01*
X124242202Y-48044244D01*
X123983052Y-48064640D01*
X123978245Y-48065794D01*
X123978239Y-48065795D01*
X123816745Y-48104566D01*
X123730282Y-48125324D01*
X123725711Y-48127217D01*
X123725709Y-48127218D01*
X123494690Y-48222909D01*
X123494688Y-48222910D01*
X123490118Y-48224803D01*
X123268473Y-48360628D01*
X123070804Y-48529453D01*
X122901979Y-48727122D01*
X122766154Y-48948767D01*
X122666675Y-49188931D01*
X122605991Y-49441701D01*
X122585595Y-49700851D01*
X122605991Y-49960001D01*
X122666675Y-50212771D01*
X122668568Y-50217342D01*
X122668569Y-50217344D01*
X122715780Y-50331320D01*
X122766154Y-50452935D01*
X122901979Y-50674580D01*
X123070804Y-50872249D01*
X123074566Y-50875462D01*
X123078069Y-50878965D01*
X123077201Y-50879833D01*
X123112881Y-50934488D01*
X123113389Y-51005482D01*
X123077171Y-51061839D01*
X123078069Y-51062737D01*
X123074566Y-51066240D01*
X123070804Y-51069453D01*
X122901979Y-51267122D01*
X122766154Y-51488767D01*
X122666675Y-51728931D01*
X122605991Y-51981701D01*
X122585595Y-52240851D01*
X122605991Y-52500001D01*
X122666675Y-52752771D01*
X122668568Y-52757342D01*
X122668569Y-52757344D01*
X122715780Y-52871320D01*
X122766154Y-52992935D01*
X122901979Y-53214580D01*
X123070804Y-53412249D01*
X123074566Y-53415462D01*
X123078069Y-53418965D01*
X123077201Y-53419833D01*
X123112881Y-53474488D01*
X123113389Y-53545482D01*
X123077171Y-53601839D01*
X123078069Y-53602737D01*
X123074566Y-53606240D01*
X123070804Y-53609453D01*
X123067591Y-53613215D01*
X122970843Y-53726493D01*
X122901979Y-53807122D01*
X122766154Y-54028767D01*
X122764261Y-54033337D01*
X122764260Y-54033339D01*
X122677678Y-54242367D01*
X122666675Y-54268931D01*
X122605991Y-54521701D01*
X122585595Y-54780851D01*
X122605991Y-55040001D01*
X122666675Y-55292771D01*
X122766154Y-55532935D01*
X122901979Y-55754580D01*
X123070804Y-55952249D01*
X123074566Y-55955462D01*
X123078069Y-55958965D01*
X123077201Y-55959833D01*
X123112881Y-56014488D01*
X123113389Y-56085482D01*
X123077171Y-56141839D01*
X123078069Y-56142737D01*
X123074566Y-56146240D01*
X123070804Y-56149453D01*
X122901979Y-56347122D01*
X122766154Y-56568767D01*
X122666675Y-56808931D01*
X122605991Y-57061701D01*
X122585595Y-57320851D01*
X122605991Y-57580001D01*
X122666675Y-57832771D01*
X122766154Y-58072935D01*
X122901979Y-58294580D01*
X123070804Y-58492249D01*
X123074566Y-58495462D01*
X123078069Y-58498965D01*
X123077201Y-58499833D01*
X123112881Y-58554488D01*
X123113389Y-58625482D01*
X123077171Y-58681839D01*
X123078069Y-58682737D01*
X123074566Y-58686240D01*
X123070804Y-58689453D01*
X122901979Y-58887122D01*
X122766154Y-59108767D01*
X122666675Y-59348931D01*
X122605991Y-59601701D01*
X122585595Y-59860851D01*
X122605991Y-60120001D01*
X122666675Y-60372771D01*
X122766154Y-60612935D01*
X122901979Y-60834580D01*
X123070804Y-61032249D01*
X123268473Y-61201074D01*
X123490118Y-61336899D01*
X123494688Y-61338792D01*
X123494690Y-61338793D01*
X123725709Y-61434484D01*
X123730282Y-61436378D01*
X123983052Y-61497062D01*
X123982538Y-61499202D01*
X124038414Y-61525726D01*
X124075909Y-61586015D01*
X124080500Y-61619718D01*
X124080500Y-66995405D01*
X124060498Y-67063526D01*
X124043595Y-67084500D01*
X123813747Y-67314348D01*
X123805461Y-67321888D01*
X123798982Y-67326000D01*
X123793557Y-67331777D01*
X123752357Y-67375651D01*
X123749602Y-67378493D01*
X123729865Y-67398230D01*
X123727385Y-67401427D01*
X123719682Y-67410447D01*
X123689414Y-67442679D01*
X123685595Y-67449625D01*
X123685593Y-67449628D01*
X123679652Y-67460434D01*
X123668801Y-67476953D01*
X123656386Y-67492959D01*
X123653241Y-67500228D01*
X123653238Y-67500232D01*
X123638826Y-67533537D01*
X123633609Y-67544187D01*
X123612305Y-67582940D01*
X123610334Y-67590615D01*
X123610334Y-67590616D01*
X123607267Y-67602562D01*
X123600863Y-67621266D01*
X123592819Y-67639855D01*
X123591580Y-67647678D01*
X123591577Y-67647688D01*
X123585901Y-67683524D01*
X123583495Y-67695144D01*
X123572500Y-67737970D01*
X123572500Y-67758224D01*
X123570949Y-67777934D01*
X123567780Y-67797943D01*
X123568526Y-67805835D01*
X123571941Y-67841961D01*
X123572500Y-67853819D01*
X123572500Y-68011405D01*
X123552498Y-68079526D01*
X123535595Y-68100501D01*
X123218499Y-68417596D01*
X123156187Y-68451621D01*
X123129404Y-68454500D01*
X115093767Y-68454500D01*
X115082584Y-68453973D01*
X115075091Y-68452298D01*
X115067165Y-68452547D01*
X115067164Y-68452547D01*
X115007014Y-68454438D01*
X115003055Y-68454500D01*
X114975144Y-68454500D01*
X114971210Y-68454997D01*
X114971209Y-68454997D01*
X114971144Y-68455005D01*
X114959307Y-68455938D01*
X114927490Y-68456938D01*
X114923029Y-68457078D01*
X114915110Y-68457327D01*
X114904271Y-68460476D01*
X114895658Y-68462978D01*
X114876306Y-68466986D01*
X114869235Y-68467880D01*
X114856203Y-68469526D01*
X114848834Y-68472443D01*
X114848832Y-68472444D01*
X114815097Y-68485800D01*
X114803869Y-68489645D01*
X114761407Y-68501982D01*
X114754584Y-68506017D01*
X114754582Y-68506018D01*
X114743972Y-68512293D01*
X114726224Y-68520988D01*
X114707383Y-68528448D01*
X114700967Y-68533109D01*
X114700964Y-68533111D01*
X114699829Y-68533936D01*
X114698936Y-68534226D01*
X114694021Y-68536928D01*
X114693506Y-68535991D01*
X114625768Y-68558000D01*
X110465267Y-68558000D01*
X110454084Y-68557473D01*
X110446591Y-68555798D01*
X110438665Y-68556047D01*
X110438664Y-68556047D01*
X110378501Y-68557938D01*
X110374543Y-68558000D01*
X110346644Y-68558000D01*
X110342654Y-68558504D01*
X110330820Y-68559436D01*
X110286611Y-68560826D01*
X110278997Y-68563038D01*
X110278992Y-68563039D01*
X110267159Y-68566477D01*
X110247796Y-68570488D01*
X110227703Y-68573026D01*
X110220336Y-68575943D01*
X110220331Y-68575944D01*
X110186592Y-68589302D01*
X110175365Y-68593146D01*
X110132907Y-68605482D01*
X110126081Y-68609519D01*
X110115472Y-68615793D01*
X110097724Y-68624488D01*
X110078883Y-68631948D01*
X110072467Y-68636610D01*
X110072466Y-68636610D01*
X110043113Y-68657936D01*
X110033193Y-68664452D01*
X110001965Y-68682920D01*
X110001962Y-68682922D01*
X109995138Y-68686958D01*
X109980817Y-68701279D01*
X109965784Y-68714119D01*
X109949393Y-68726028D01*
X109939588Y-68737880D01*
X109921202Y-68760105D01*
X109913212Y-68768884D01*
X107085346Y-71596749D01*
X107023034Y-71630775D01*
X106952218Y-71625710D01*
X106895383Y-71583163D01*
X106871329Y-71524100D01*
X106847292Y-71341522D01*
X106846732Y-71337266D01*
X106770871Y-71059964D01*
X106658077Y-70795524D01*
X106510439Y-70548839D01*
X106330687Y-70324472D01*
X106122149Y-70126577D01*
X105888683Y-69958814D01*
X105866843Y-69947250D01*
X105739971Y-69880075D01*
X105634608Y-69824288D01*
X105413869Y-69743509D01*
X105368658Y-69726964D01*
X105368656Y-69726963D01*
X105364627Y-69725489D01*
X105083736Y-69664245D01*
X105052685Y-69661801D01*
X104860718Y-69646693D01*
X104860709Y-69646693D01*
X104858261Y-69646500D01*
X104702729Y-69646500D01*
X104700593Y-69646646D01*
X104700582Y-69646646D01*
X104492452Y-69660835D01*
X104492446Y-69660836D01*
X104488175Y-69661127D01*
X104483980Y-69661996D01*
X104483978Y-69661996D01*
X104397581Y-69679888D01*
X104206658Y-69719426D01*
X103935657Y-69815393D01*
X103680188Y-69947250D01*
X103676687Y-69949711D01*
X103676683Y-69949713D01*
X103666594Y-69956804D01*
X103444977Y-70112559D01*
X103234378Y-70308260D01*
X103052287Y-70530732D01*
X102902073Y-70775858D01*
X102786517Y-71039102D01*
X102707756Y-71315594D01*
X102667249Y-71600216D01*
X102667227Y-71604505D01*
X102667226Y-71604512D01*
X102666145Y-71810959D01*
X102665743Y-71887703D01*
X102703268Y-72172734D01*
X102779129Y-72450036D01*
X102891923Y-72714476D01*
X103039561Y-72961161D01*
X103219313Y-73185528D01*
X103427851Y-73383423D01*
X103661317Y-73551186D01*
X103665112Y-73553195D01*
X103665113Y-73553196D01*
X103686869Y-73564715D01*
X103915392Y-73685712D01*
X104185373Y-73784511D01*
X104466264Y-73845755D01*
X104494841Y-73848004D01*
X104689282Y-73863307D01*
X104689291Y-73863307D01*
X104691739Y-73863500D01*
X104847271Y-73863500D01*
X104849407Y-73863354D01*
X104849418Y-73863354D01*
X105057548Y-73849165D01*
X105057554Y-73849164D01*
X105061825Y-73848873D01*
X105066020Y-73848004D01*
X105066022Y-73848004D01*
X105202584Y-73819723D01*
X105343342Y-73790574D01*
X105614343Y-73694607D01*
X105869812Y-73562750D01*
X105873313Y-73560289D01*
X105873317Y-73560287D01*
X105987418Y-73480095D01*
X106105023Y-73397441D01*
X106315622Y-73201740D01*
X106497713Y-72979268D01*
X106575067Y-72853038D01*
X106627715Y-72805407D01*
X106697756Y-72793800D01*
X106762954Y-72821903D01*
X106802608Y-72880794D01*
X106808500Y-72918873D01*
X106808500Y-74615406D01*
X106788498Y-74683527D01*
X106771595Y-74704501D01*
X105358847Y-76117248D01*
X105350561Y-76124788D01*
X105344082Y-76128900D01*
X105338657Y-76134677D01*
X105297457Y-76178551D01*
X105294702Y-76181393D01*
X105274965Y-76201130D01*
X105272485Y-76204327D01*
X105264782Y-76213347D01*
X105234514Y-76245579D01*
X105230695Y-76252525D01*
X105230693Y-76252528D01*
X105224752Y-76263334D01*
X105213901Y-76279853D01*
X105201486Y-76295859D01*
X105198341Y-76303128D01*
X105198338Y-76303132D01*
X105183926Y-76336437D01*
X105178709Y-76347087D01*
X105157405Y-76385840D01*
X105155434Y-76393515D01*
X105155434Y-76393516D01*
X105152367Y-76405462D01*
X105145963Y-76424166D01*
X105137919Y-76442755D01*
X105136680Y-76450578D01*
X105136677Y-76450588D01*
X105131001Y-76486424D01*
X105128595Y-76498044D01*
X105117600Y-76540870D01*
X105117600Y-76561124D01*
X105116049Y-76580834D01*
X105112880Y-76600843D01*
X105113626Y-76608735D01*
X105117041Y-76644861D01*
X105117600Y-76656719D01*
X105117600Y-76734505D01*
X105097598Y-76802626D01*
X105080695Y-76823600D01*
X104937800Y-76966495D01*
X104875488Y-77000521D01*
X104848705Y-77003400D01*
X104783302Y-77003400D01*
X104715181Y-76983398D01*
X104675869Y-76943235D01*
X104558495Y-76751698D01*
X104558491Y-76751692D01*
X104555912Y-76747484D01*
X104401705Y-76566931D01*
X104221152Y-76412724D01*
X104216944Y-76410145D01*
X104216938Y-76410141D01*
X104022919Y-76291246D01*
X104018699Y-76288660D01*
X104014129Y-76286767D01*
X104014125Y-76286765D01*
X103803903Y-76199689D01*
X103803901Y-76199688D01*
X103799330Y-76197795D01*
X103700079Y-76173967D01*
X103573260Y-76143520D01*
X103573254Y-76143519D01*
X103568447Y-76142365D01*
X103331736Y-76123735D01*
X103095025Y-76142365D01*
X103090218Y-76143519D01*
X103090212Y-76143520D01*
X102963393Y-76173967D01*
X102864142Y-76197795D01*
X102859571Y-76199688D01*
X102859569Y-76199689D01*
X102649347Y-76286765D01*
X102649343Y-76286767D01*
X102644773Y-76288660D01*
X102640553Y-76291246D01*
X102446534Y-76410141D01*
X102446528Y-76410145D01*
X102442320Y-76412724D01*
X102342423Y-76498044D01*
X102316331Y-76520329D01*
X102251541Y-76549360D01*
X102181341Y-76538755D01*
X102128018Y-76491880D01*
X102108500Y-76424518D01*
X102108500Y-48313250D01*
X102110246Y-48292345D01*
X102112770Y-48277344D01*
X102112770Y-48277341D01*
X102113576Y-48272552D01*
X102113729Y-48260000D01*
X102112788Y-48253429D01*
X102112123Y-48223218D01*
X102121916Y-48123789D01*
X102126733Y-48099568D01*
X102162866Y-47980454D01*
X102172315Y-47957645D01*
X102230987Y-47847876D01*
X102244705Y-47827345D01*
X102323671Y-47731124D01*
X102341124Y-47713671D01*
X102437345Y-47634705D01*
X102457876Y-47620987D01*
X102567645Y-47562315D01*
X102590454Y-47552866D01*
X102709568Y-47516733D01*
X102733789Y-47511916D01*
X102829809Y-47502459D01*
X102845868Y-47502909D01*
X102845877Y-47502200D01*
X102854853Y-47502310D01*
X102863724Y-47503691D01*
X102872626Y-47502527D01*
X102872628Y-47502527D01*
X102889059Y-47500378D01*
X102895286Y-47499564D01*
X102911621Y-47498500D01*
X129490633Y-47498500D01*
X129510018Y-47500000D01*
G37*
%TD.AperFunction*%
%TA.AperFunction,NonConductor*%
G36*
X129399470Y-73155495D02*
G01*
X129430765Y-73219223D01*
X129432600Y-73240649D01*
X129432600Y-76105846D01*
X129412598Y-76173967D01*
X129358942Y-76220460D01*
X129288668Y-76230564D01*
X129258382Y-76222255D01*
X129254049Y-76220460D01*
X129226430Y-76209020D01*
X129203903Y-76199689D01*
X129203901Y-76199688D01*
X129199330Y-76197795D01*
X129100079Y-76173967D01*
X128973260Y-76143520D01*
X128973254Y-76143519D01*
X128968447Y-76142365D01*
X128731736Y-76123735D01*
X128495025Y-76142365D01*
X128490218Y-76143519D01*
X128490212Y-76143520D01*
X128363393Y-76173967D01*
X128264142Y-76197795D01*
X128259571Y-76199688D01*
X128259569Y-76199689D01*
X128049347Y-76286765D01*
X128049343Y-76286767D01*
X128044773Y-76288660D01*
X128040553Y-76291246D01*
X127846534Y-76410141D01*
X127846528Y-76410145D01*
X127842320Y-76412724D01*
X127661767Y-76566931D01*
X127507560Y-76747484D01*
X127504981Y-76751692D01*
X127504977Y-76751698D01*
X127424329Y-76883304D01*
X127383496Y-76949937D01*
X127381603Y-76954507D01*
X127381601Y-76954511D01*
X127309272Y-77129130D01*
X127292631Y-77169306D01*
X127291476Y-77174118D01*
X127243455Y-77374141D01*
X127237201Y-77400189D01*
X127218571Y-77636900D01*
X127237201Y-77873611D01*
X127238355Y-77878418D01*
X127238356Y-77878424D01*
X127262513Y-77979044D01*
X127292631Y-78104494D01*
X127294524Y-78109065D01*
X127294525Y-78109067D01*
X127366543Y-78282934D01*
X127383496Y-78323863D01*
X127386082Y-78328083D01*
X127504977Y-78522102D01*
X127504981Y-78522108D01*
X127507560Y-78526316D01*
X127661767Y-78706869D01*
X127665523Y-78710077D01*
X127665528Y-78710082D01*
X127783792Y-78811089D01*
X127822602Y-78870539D01*
X127823108Y-78941534D01*
X127783792Y-79002711D01*
X127665528Y-79103718D01*
X127665523Y-79103723D01*
X127661767Y-79106931D01*
X127507560Y-79287484D01*
X127504981Y-79291692D01*
X127504977Y-79291698D01*
X127386082Y-79485717D01*
X127383496Y-79489937D01*
X127292631Y-79709306D01*
X127237201Y-79940189D01*
X127218571Y-80176900D01*
X127237201Y-80413611D01*
X127292631Y-80644494D01*
X127383496Y-80863863D01*
X127386082Y-80868083D01*
X127504977Y-81062102D01*
X127504981Y-81062108D01*
X127507560Y-81066316D01*
X127661767Y-81246869D01*
X127665523Y-81250077D01*
X127665528Y-81250082D01*
X127783792Y-81351089D01*
X127822602Y-81410539D01*
X127823108Y-81481534D01*
X127783792Y-81542711D01*
X127665528Y-81643718D01*
X127665523Y-81643723D01*
X127661767Y-81646931D01*
X127507560Y-81827484D01*
X127504981Y-81831692D01*
X127504977Y-81831698D01*
X127386082Y-82025717D01*
X127383496Y-82029937D01*
X127292631Y-82249306D01*
X127237201Y-82480189D01*
X127218571Y-82716900D01*
X127237201Y-82953611D01*
X127292631Y-83184494D01*
X127383496Y-83403863D01*
X127386082Y-83408083D01*
X127504977Y-83602102D01*
X127504981Y-83602108D01*
X127507560Y-83606316D01*
X127661767Y-83786869D01*
X127665523Y-83790077D01*
X127665528Y-83790082D01*
X127783792Y-83891089D01*
X127822602Y-83950539D01*
X127823108Y-84021534D01*
X127783792Y-84082711D01*
X127665528Y-84183718D01*
X127665523Y-84183723D01*
X127661767Y-84186931D01*
X127507560Y-84367484D01*
X127504981Y-84371692D01*
X127504977Y-84371698D01*
X127386082Y-84565717D01*
X127383496Y-84569937D01*
X127292631Y-84789306D01*
X127237201Y-85020189D01*
X127218571Y-85256900D01*
X127237201Y-85493611D01*
X127292631Y-85724494D01*
X127383496Y-85943863D01*
X127386082Y-85948083D01*
X127504977Y-86142102D01*
X127504981Y-86142108D01*
X127507560Y-86146316D01*
X127661767Y-86326869D01*
X127665523Y-86330077D01*
X127665528Y-86330082D01*
X127783792Y-86431089D01*
X127822602Y-86490539D01*
X127823108Y-86561534D01*
X127783792Y-86622711D01*
X127665528Y-86723718D01*
X127665523Y-86723723D01*
X127661767Y-86726931D01*
X127507560Y-86907484D01*
X127504981Y-86911692D01*
X127504977Y-86911698D01*
X127426231Y-87040200D01*
X127383496Y-87109937D01*
X127292631Y-87329306D01*
X127237201Y-87560189D01*
X127236813Y-87565123D01*
X127230460Y-87645839D01*
X127205174Y-87712180D01*
X127148036Y-87754320D01*
X127077186Y-87758879D01*
X127015753Y-87725048D01*
X126330905Y-87040200D01*
X126296879Y-86977888D01*
X126294000Y-86951105D01*
X126294000Y-73633538D01*
X126314002Y-73565417D01*
X126367658Y-73518924D01*
X126437932Y-73508820D01*
X126493524Y-73531215D01*
X126521317Y-73551186D01*
X126525112Y-73553195D01*
X126525113Y-73553196D01*
X126546869Y-73564715D01*
X126775392Y-73685712D01*
X127045373Y-73784511D01*
X127326264Y-73845755D01*
X127354841Y-73848004D01*
X127549282Y-73863307D01*
X127549291Y-73863307D01*
X127551739Y-73863500D01*
X127707271Y-73863500D01*
X127709407Y-73863354D01*
X127709418Y-73863354D01*
X127917548Y-73849165D01*
X127917554Y-73849164D01*
X127921825Y-73848873D01*
X127926020Y-73848004D01*
X127926022Y-73848004D01*
X128062584Y-73819723D01*
X128203342Y-73790574D01*
X128474343Y-73694607D01*
X128729812Y-73562750D01*
X128733313Y-73560289D01*
X128733317Y-73560287D01*
X128847418Y-73480095D01*
X128965023Y-73397441D01*
X129175622Y-73201740D01*
X129186480Y-73188475D01*
X129209096Y-73160843D01*
X129267721Y-73120797D01*
X129338690Y-73118804D01*
X129399470Y-73155495D01*
G37*
%TD.AperFunction*%
%TA.AperFunction,NonConductor*%
G36*
X126052112Y-88553670D02*
G01*
X126058695Y-88559799D01*
X127257365Y-89758469D01*
X127291391Y-89820781D01*
X127290789Y-89876978D01*
X127237201Y-90100189D01*
X127236813Y-90105123D01*
X127230460Y-90185839D01*
X127205174Y-90252180D01*
X127148036Y-90294320D01*
X127077186Y-90298879D01*
X127015753Y-90265048D01*
X125880505Y-89129800D01*
X125846479Y-89067488D01*
X125843600Y-89040705D01*
X125843600Y-88648894D01*
X125863602Y-88580773D01*
X125917258Y-88534280D01*
X125987532Y-88524176D01*
X126052112Y-88553670D01*
G37*
%TD.AperFunction*%
%TA.AperFunction,NonConductor*%
G36*
X130255954Y-96092162D02*
G01*
X130295608Y-96151053D01*
X130301500Y-96189132D01*
X130301500Y-97184668D01*
X130281498Y-97252789D01*
X130227842Y-97299282D01*
X130157568Y-97309386D01*
X130092988Y-97279892D01*
X130068068Y-97250503D01*
X129958501Y-97071707D01*
X129958494Y-97071697D01*
X129955912Y-97067484D01*
X129801705Y-96886931D01*
X129797949Y-96883723D01*
X129797944Y-96883718D01*
X129679680Y-96782711D01*
X129640870Y-96723261D01*
X129640364Y-96652266D01*
X129679680Y-96591089D01*
X129797944Y-96490082D01*
X129797949Y-96490077D01*
X129801705Y-96486869D01*
X129955912Y-96306316D01*
X129958494Y-96302102D01*
X129958501Y-96302093D01*
X130068068Y-96123297D01*
X130120715Y-96075666D01*
X130190757Y-96064059D01*
X130255954Y-96092162D01*
G37*
%TD.AperFunction*%
%TA.AperFunction,NonConductor*%
G36*
X130255954Y-98632162D02*
G01*
X130295608Y-98691053D01*
X130301500Y-98729132D01*
X130301500Y-99724668D01*
X130281498Y-99792789D01*
X130227842Y-99839282D01*
X130157568Y-99849386D01*
X130092988Y-99819892D01*
X130068068Y-99790503D01*
X129958501Y-99611707D01*
X129958494Y-99611697D01*
X129955912Y-99607484D01*
X129801705Y-99426931D01*
X129797949Y-99423723D01*
X129797944Y-99423718D01*
X129679680Y-99322711D01*
X129640870Y-99263261D01*
X129640364Y-99192266D01*
X129679680Y-99131089D01*
X129797944Y-99030082D01*
X129797949Y-99030077D01*
X129801705Y-99026869D01*
X129955912Y-98846316D01*
X129958494Y-98842102D01*
X129958501Y-98842093D01*
X130068068Y-98663297D01*
X130120715Y-98615666D01*
X130190757Y-98604059D01*
X130255954Y-98632162D01*
G37*
%TD.AperFunction*%
%TA.AperFunction,NonConductor*%
G36*
X130255954Y-101172162D02*
G01*
X130295608Y-101231053D01*
X130301500Y-101269132D01*
X130301500Y-102264668D01*
X130281498Y-102332789D01*
X130227842Y-102379282D01*
X130157568Y-102389386D01*
X130092988Y-102359892D01*
X130068068Y-102330503D01*
X129958501Y-102151707D01*
X129958494Y-102151697D01*
X129955912Y-102147484D01*
X129801705Y-101966931D01*
X129797949Y-101963723D01*
X129797944Y-101963718D01*
X129679680Y-101862711D01*
X129640870Y-101803261D01*
X129640364Y-101732266D01*
X129679680Y-101671089D01*
X129797944Y-101570082D01*
X129797949Y-101570077D01*
X129801705Y-101566869D01*
X129955912Y-101386316D01*
X129958494Y-101382102D01*
X129958501Y-101382093D01*
X130068068Y-101203297D01*
X130120715Y-101155666D01*
X130190757Y-101144059D01*
X130255954Y-101172162D01*
G37*
%TD.AperFunction*%
%TA.AperFunction,NonConductor*%
G36*
X130255954Y-103712162D02*
G01*
X130295608Y-103771053D01*
X130301500Y-103809132D01*
X130301500Y-104804668D01*
X130281498Y-104872789D01*
X130227842Y-104919282D01*
X130157568Y-104929386D01*
X130092988Y-104899892D01*
X130068068Y-104870503D01*
X129958501Y-104691707D01*
X129958494Y-104691697D01*
X129955912Y-104687484D01*
X129801705Y-104506931D01*
X129797949Y-104503723D01*
X129797944Y-104503718D01*
X129679680Y-104402711D01*
X129640870Y-104343261D01*
X129640364Y-104272266D01*
X129679680Y-104211089D01*
X129797944Y-104110082D01*
X129797949Y-104110077D01*
X129801705Y-104106869D01*
X129955912Y-103926316D01*
X129958494Y-103922102D01*
X129958501Y-103922093D01*
X130068068Y-103743297D01*
X130120715Y-103695666D01*
X130190757Y-103684059D01*
X130255954Y-103712162D01*
G37*
%TD.AperFunction*%
%TA.AperFunction,NonConductor*%
G36*
X130255954Y-106252162D02*
G01*
X130295608Y-106311053D01*
X130301500Y-106349132D01*
X130301500Y-107344668D01*
X130281498Y-107412789D01*
X130227842Y-107459282D01*
X130157568Y-107469386D01*
X130092988Y-107439892D01*
X130068068Y-107410503D01*
X129958501Y-107231707D01*
X129958494Y-107231697D01*
X129955912Y-107227484D01*
X129801705Y-107046931D01*
X129797949Y-107043723D01*
X129797944Y-107043718D01*
X129679680Y-106942711D01*
X129640870Y-106883261D01*
X129640364Y-106812266D01*
X129679680Y-106751089D01*
X129797944Y-106650082D01*
X129797949Y-106650077D01*
X129801705Y-106646869D01*
X129955912Y-106466316D01*
X129958494Y-106462102D01*
X129958501Y-106462093D01*
X130068068Y-106283297D01*
X130120715Y-106235666D01*
X130190757Y-106224059D01*
X130255954Y-106252162D01*
G37*
%TD.AperFunction*%
%TA.AperFunction,NonConductor*%
G36*
X130255954Y-108792162D02*
G01*
X130295608Y-108851053D01*
X130301500Y-108889132D01*
X130301500Y-109884668D01*
X130281498Y-109952789D01*
X130227842Y-109999282D01*
X130157568Y-110009386D01*
X130092988Y-109979892D01*
X130068068Y-109950503D01*
X129958501Y-109771707D01*
X129958494Y-109771697D01*
X129955912Y-109767484D01*
X129801705Y-109586931D01*
X129797949Y-109583723D01*
X129797944Y-109583718D01*
X129679680Y-109482711D01*
X129640870Y-109423261D01*
X129640364Y-109352266D01*
X129679680Y-109291089D01*
X129797944Y-109190082D01*
X129797949Y-109190077D01*
X129801705Y-109186869D01*
X129955912Y-109006316D01*
X129958494Y-109002102D01*
X129958501Y-109002093D01*
X130068068Y-108823297D01*
X130120715Y-108775666D01*
X130190757Y-108764059D01*
X130255954Y-108792162D01*
G37*
%TD.AperFunction*%
%TA.AperFunction,NonConductor*%
G36*
X130255954Y-111332162D02*
G01*
X130295608Y-111391053D01*
X130301500Y-111429132D01*
X130301500Y-112424668D01*
X130281498Y-112492789D01*
X130227842Y-112539282D01*
X130157568Y-112549386D01*
X130092988Y-112519892D01*
X130068068Y-112490503D01*
X129958501Y-112311707D01*
X129958494Y-112311697D01*
X129955912Y-112307484D01*
X129801705Y-112126931D01*
X129797949Y-112123723D01*
X129797944Y-112123718D01*
X129679680Y-112022711D01*
X129640870Y-111963261D01*
X129640364Y-111892266D01*
X129679680Y-111831089D01*
X129797944Y-111730082D01*
X129797949Y-111730077D01*
X129801705Y-111726869D01*
X129955912Y-111546316D01*
X129958494Y-111542102D01*
X129958501Y-111542093D01*
X130068068Y-111363297D01*
X130120715Y-111315666D01*
X130190757Y-111304059D01*
X130255954Y-111332162D01*
G37*
%TD.AperFunction*%
%TA.AperFunction,NonConductor*%
G36*
X130255954Y-113872162D02*
G01*
X130295608Y-113931053D01*
X130301500Y-113969132D01*
X130301500Y-114964668D01*
X130281498Y-115032789D01*
X130227842Y-115079282D01*
X130157568Y-115089386D01*
X130092988Y-115059892D01*
X130068068Y-115030503D01*
X129958501Y-114851707D01*
X129958494Y-114851697D01*
X129955912Y-114847484D01*
X129801705Y-114666931D01*
X129797949Y-114663723D01*
X129797944Y-114663718D01*
X129679680Y-114562711D01*
X129640870Y-114503261D01*
X129640364Y-114432266D01*
X129679680Y-114371089D01*
X129797944Y-114270082D01*
X129797949Y-114270077D01*
X129801705Y-114266869D01*
X129955912Y-114086316D01*
X129958494Y-114082102D01*
X129958501Y-114082093D01*
X130068068Y-113903297D01*
X130120715Y-113855666D01*
X130190757Y-113844059D01*
X130255954Y-113872162D01*
G37*
%TD.AperFunction*%
%TA.AperFunction,NonConductor*%
G36*
X130255954Y-116412162D02*
G01*
X130295608Y-116471053D01*
X130301500Y-116509132D01*
X130301500Y-117504668D01*
X130281498Y-117572789D01*
X130227842Y-117619282D01*
X130157568Y-117629386D01*
X130092988Y-117599892D01*
X130068068Y-117570503D01*
X129958501Y-117391707D01*
X129958494Y-117391697D01*
X129955912Y-117387484D01*
X129801705Y-117206931D01*
X129797949Y-117203723D01*
X129797944Y-117203718D01*
X129679680Y-117102711D01*
X129640870Y-117043261D01*
X129640364Y-116972266D01*
X129679680Y-116911089D01*
X129797944Y-116810082D01*
X129797949Y-116810077D01*
X129801705Y-116806869D01*
X129955912Y-116626316D01*
X129958494Y-116622102D01*
X129958501Y-116622093D01*
X130068068Y-116443297D01*
X130120715Y-116395666D01*
X130190757Y-116384059D01*
X130255954Y-116412162D01*
G37*
%TD.AperFunction*%
%TA.AperFunction,NonConductor*%
G36*
X130255954Y-118952162D02*
G01*
X130295608Y-119011053D01*
X130301500Y-119049132D01*
X130301500Y-120044668D01*
X130281498Y-120112789D01*
X130227842Y-120159282D01*
X130157568Y-120169386D01*
X130092988Y-120139892D01*
X130068068Y-120110503D01*
X129958501Y-119931707D01*
X129958494Y-119931697D01*
X129955912Y-119927484D01*
X129801705Y-119746931D01*
X129797949Y-119743723D01*
X129797944Y-119743718D01*
X129679680Y-119642711D01*
X129640870Y-119583261D01*
X129640364Y-119512266D01*
X129679680Y-119451089D01*
X129797944Y-119350082D01*
X129797949Y-119350077D01*
X129801705Y-119346869D01*
X129955912Y-119166316D01*
X129958494Y-119162102D01*
X129958501Y-119162093D01*
X130068068Y-118983297D01*
X130120715Y-118935666D01*
X130190757Y-118924059D01*
X130255954Y-118952162D01*
G37*
%TD.AperFunction*%
%TA.AperFunction,NonConductor*%
G36*
X130255954Y-121492162D02*
G01*
X130295608Y-121551053D01*
X130301500Y-121589132D01*
X130301500Y-122584668D01*
X130281498Y-122652789D01*
X130227842Y-122699282D01*
X130157568Y-122709386D01*
X130092988Y-122679892D01*
X130068068Y-122650503D01*
X129958501Y-122471707D01*
X129958494Y-122471697D01*
X129955912Y-122467484D01*
X129801705Y-122286931D01*
X129797949Y-122283723D01*
X129797944Y-122283718D01*
X129679680Y-122182711D01*
X129640870Y-122123261D01*
X129640364Y-122052266D01*
X129679680Y-121991089D01*
X129797944Y-121890082D01*
X129797949Y-121890077D01*
X129801705Y-121886869D01*
X129955912Y-121706316D01*
X129958494Y-121702102D01*
X129958501Y-121702093D01*
X130068068Y-121523297D01*
X130120715Y-121475666D01*
X130190757Y-121464059D01*
X130255954Y-121492162D01*
G37*
%TD.AperFunction*%
%TA.AperFunction,NonConductor*%
G36*
X130255954Y-124032162D02*
G01*
X130295608Y-124091053D01*
X130301500Y-124129132D01*
X130301500Y-125124668D01*
X130281498Y-125192789D01*
X130227842Y-125239282D01*
X130157568Y-125249386D01*
X130092988Y-125219892D01*
X130068068Y-125190503D01*
X129958501Y-125011707D01*
X129958494Y-125011697D01*
X129955912Y-125007484D01*
X129801705Y-124826931D01*
X129797949Y-124823723D01*
X129797944Y-124823718D01*
X129679680Y-124722711D01*
X129640870Y-124663261D01*
X129640364Y-124592266D01*
X129679680Y-124531089D01*
X129797944Y-124430082D01*
X129797949Y-124430077D01*
X129801705Y-124426869D01*
X129955912Y-124246316D01*
X129958494Y-124242102D01*
X129958501Y-124242093D01*
X130068068Y-124063297D01*
X130120715Y-124015666D01*
X130190757Y-124004059D01*
X130255954Y-124032162D01*
G37*
%TD.AperFunction*%
%TA.AperFunction,NonConductor*%
G36*
X130255954Y-126572162D02*
G01*
X130295608Y-126631053D01*
X130301500Y-126669132D01*
X130301500Y-127664668D01*
X130281498Y-127732789D01*
X130227842Y-127779282D01*
X130157568Y-127789386D01*
X130092988Y-127759892D01*
X130068068Y-127730503D01*
X129958501Y-127551707D01*
X129958494Y-127551697D01*
X129955912Y-127547484D01*
X129801705Y-127366931D01*
X129797949Y-127363723D01*
X129797944Y-127363718D01*
X129679680Y-127262711D01*
X129640870Y-127203261D01*
X129640364Y-127132266D01*
X129679680Y-127071089D01*
X129797944Y-126970082D01*
X129797949Y-126970077D01*
X129801705Y-126966869D01*
X129955912Y-126786316D01*
X129958494Y-126782102D01*
X129958501Y-126782093D01*
X130068068Y-126603297D01*
X130120715Y-126555666D01*
X130190757Y-126544059D01*
X130255954Y-126572162D01*
G37*
%TD.AperFunction*%
%TA.AperFunction,NonConductor*%
G36*
X130255954Y-129112162D02*
G01*
X130295608Y-129171053D01*
X130301500Y-129209132D01*
X130301500Y-130201627D01*
X130281498Y-130269748D01*
X130227842Y-130316241D01*
X130157568Y-130326345D01*
X130092988Y-130296851D01*
X130068067Y-130267462D01*
X129960358Y-130091698D01*
X129957776Y-130087484D01*
X129803569Y-129906931D01*
X129799813Y-129903723D01*
X129799808Y-129903718D01*
X129680612Y-129801915D01*
X129641802Y-129742465D01*
X129641296Y-129671470D01*
X129680612Y-129610293D01*
X129797944Y-129510082D01*
X129797949Y-129510077D01*
X129801705Y-129506869D01*
X129955912Y-129326316D01*
X129958494Y-129322102D01*
X129958501Y-129322093D01*
X130068068Y-129143297D01*
X130120715Y-129095666D01*
X130190757Y-129084059D01*
X130255954Y-129112162D01*
G37*
%TD.AperFunction*%
%TA.AperFunction,NonConductor*%
G36*
X125003482Y-68346114D02*
G01*
X125058700Y-68390740D01*
X125081100Y-68462455D01*
X125081100Y-69031105D01*
X125061098Y-69099226D01*
X125044195Y-69120201D01*
X124817842Y-69346553D01*
X124809563Y-69354087D01*
X124803082Y-69358200D01*
X124756457Y-69407851D01*
X124753702Y-69410693D01*
X124733965Y-69430430D01*
X124731485Y-69433627D01*
X124723782Y-69442647D01*
X124693514Y-69474879D01*
X124689695Y-69481825D01*
X124689693Y-69481828D01*
X124683752Y-69492634D01*
X124672901Y-69509153D01*
X124660486Y-69525159D01*
X124657341Y-69532428D01*
X124657338Y-69532432D01*
X124642926Y-69565737D01*
X124637709Y-69576387D01*
X124616405Y-69615140D01*
X124614434Y-69622815D01*
X124614434Y-69622816D01*
X124611367Y-69634762D01*
X124604963Y-69653466D01*
X124596919Y-69672055D01*
X124595680Y-69679878D01*
X124595677Y-69679888D01*
X124590001Y-69715724D01*
X124587595Y-69727344D01*
X124580527Y-69754873D01*
X124576600Y-69770170D01*
X124576600Y-69790424D01*
X124575049Y-69810134D01*
X124571880Y-69830143D01*
X124572626Y-69838035D01*
X124576041Y-69874161D01*
X124576600Y-69886019D01*
X124576600Y-89276533D01*
X124576073Y-89287716D01*
X124574398Y-89295209D01*
X124574647Y-89303135D01*
X124574647Y-89303136D01*
X124576538Y-89363286D01*
X124576600Y-89367245D01*
X124576600Y-89395156D01*
X124577097Y-89399090D01*
X124577097Y-89399091D01*
X124577105Y-89399156D01*
X124578038Y-89410993D01*
X124579427Y-89455189D01*
X124585078Y-89474639D01*
X124589087Y-89494000D01*
X124591626Y-89514097D01*
X124594545Y-89521468D01*
X124594545Y-89521470D01*
X124607904Y-89555212D01*
X124611749Y-89566442D01*
X124624082Y-89608893D01*
X124628115Y-89615712D01*
X124628117Y-89615717D01*
X124634393Y-89626328D01*
X124643088Y-89644076D01*
X124650548Y-89662917D01*
X124655210Y-89669333D01*
X124655210Y-89669334D01*
X124676536Y-89698687D01*
X124683052Y-89708607D01*
X124705558Y-89746662D01*
X124719879Y-89760983D01*
X124732719Y-89776016D01*
X124744628Y-89792407D01*
X124750734Y-89797458D01*
X124778705Y-89820598D01*
X124787484Y-89828588D01*
X127257365Y-92298469D01*
X127291391Y-92360781D01*
X127290789Y-92416978D01*
X127237201Y-92640189D01*
X127218571Y-92876900D01*
X127237201Y-93113611D01*
X127292631Y-93344494D01*
X127383496Y-93563863D01*
X127386082Y-93568083D01*
X127504977Y-93762102D01*
X127504981Y-93762108D01*
X127507560Y-93766316D01*
X127661767Y-93946869D01*
X127665523Y-93950077D01*
X127665528Y-93950082D01*
X127783792Y-94051089D01*
X127822602Y-94110539D01*
X127823108Y-94181534D01*
X127783792Y-94242711D01*
X127665528Y-94343718D01*
X127665523Y-94343723D01*
X127661767Y-94346931D01*
X127507560Y-94527484D01*
X127504981Y-94531692D01*
X127504977Y-94531698D01*
X127386082Y-94725717D01*
X127383496Y-94729937D01*
X127381603Y-94734507D01*
X127381601Y-94734511D01*
X127314786Y-94895818D01*
X127292631Y-94949306D01*
X127237201Y-95180189D01*
X127218571Y-95416900D01*
X127237201Y-95653611D01*
X127292631Y-95884494D01*
X127294524Y-95889065D01*
X127294525Y-95889067D01*
X127367009Y-96064059D01*
X127383496Y-96103863D01*
X127386082Y-96108083D01*
X127504977Y-96302102D01*
X127504981Y-96302108D01*
X127507560Y-96306316D01*
X127661767Y-96486869D01*
X127665523Y-96490077D01*
X127665528Y-96490082D01*
X127783792Y-96591089D01*
X127822602Y-96650539D01*
X127823108Y-96721534D01*
X127783792Y-96782711D01*
X127665528Y-96883718D01*
X127665523Y-96883723D01*
X127661767Y-96886931D01*
X127507560Y-97067484D01*
X127504981Y-97071692D01*
X127504977Y-97071698D01*
X127435749Y-97184668D01*
X127383496Y-97269937D01*
X127381603Y-97274507D01*
X127381601Y-97274511D01*
X127294525Y-97484733D01*
X127292631Y-97489306D01*
X127237201Y-97720189D01*
X127218571Y-97956900D01*
X127237201Y-98193611D01*
X127292631Y-98424494D01*
X127294524Y-98429065D01*
X127294525Y-98429067D01*
X127367009Y-98604059D01*
X127383496Y-98643863D01*
X127386082Y-98648083D01*
X127504977Y-98842102D01*
X127504981Y-98842108D01*
X127507560Y-98846316D01*
X127661767Y-99026869D01*
X127665523Y-99030077D01*
X127665528Y-99030082D01*
X127783792Y-99131089D01*
X127822602Y-99190539D01*
X127823108Y-99261534D01*
X127783792Y-99322711D01*
X127665528Y-99423718D01*
X127665523Y-99423723D01*
X127661767Y-99426931D01*
X127507560Y-99607484D01*
X127504981Y-99611692D01*
X127504977Y-99611698D01*
X127435749Y-99724668D01*
X127383496Y-99809937D01*
X127381603Y-99814507D01*
X127381601Y-99814511D01*
X127294525Y-100024733D01*
X127292631Y-100029306D01*
X127237201Y-100260189D01*
X127218571Y-100496900D01*
X127237201Y-100733611D01*
X127292631Y-100964494D01*
X127294524Y-100969065D01*
X127294525Y-100969067D01*
X127367009Y-101144059D01*
X127383496Y-101183863D01*
X127386082Y-101188083D01*
X127504977Y-101382102D01*
X127504981Y-101382108D01*
X127507560Y-101386316D01*
X127661767Y-101566869D01*
X127665523Y-101570077D01*
X127665528Y-101570082D01*
X127783792Y-101671089D01*
X127822602Y-101730539D01*
X127823108Y-101801534D01*
X127783792Y-101862711D01*
X127665528Y-101963718D01*
X127665523Y-101963723D01*
X127661767Y-101966931D01*
X127507560Y-102147484D01*
X127504981Y-102151692D01*
X127504977Y-102151698D01*
X127435749Y-102264668D01*
X127383496Y-102349937D01*
X127381603Y-102354507D01*
X127381601Y-102354511D01*
X127294525Y-102564733D01*
X127292631Y-102569306D01*
X127237201Y-102800189D01*
X127218571Y-103036900D01*
X127237201Y-103273611D01*
X127292631Y-103504494D01*
X127294524Y-103509065D01*
X127294525Y-103509067D01*
X127367009Y-103684059D01*
X127383496Y-103723863D01*
X127386082Y-103728083D01*
X127504977Y-103922102D01*
X127504981Y-103922108D01*
X127507560Y-103926316D01*
X127661767Y-104106869D01*
X127665523Y-104110077D01*
X127665528Y-104110082D01*
X127783792Y-104211089D01*
X127822602Y-104270539D01*
X127823108Y-104341534D01*
X127783792Y-104402711D01*
X127665528Y-104503718D01*
X127665523Y-104503723D01*
X127661767Y-104506931D01*
X127507560Y-104687484D01*
X127504981Y-104691692D01*
X127504977Y-104691698D01*
X127435749Y-104804668D01*
X127383496Y-104889937D01*
X127381603Y-104894507D01*
X127381601Y-104894511D01*
X127294525Y-105104733D01*
X127292631Y-105109306D01*
X127237201Y-105340189D01*
X127218571Y-105576900D01*
X127237201Y-105813611D01*
X127292631Y-106044494D01*
X127294524Y-106049065D01*
X127294525Y-106049067D01*
X127367009Y-106224059D01*
X127383496Y-106263863D01*
X127386082Y-106268083D01*
X127504977Y-106462102D01*
X127504981Y-106462108D01*
X127507560Y-106466316D01*
X127661767Y-106646869D01*
X127665523Y-106650077D01*
X127665528Y-106650082D01*
X127783792Y-106751089D01*
X127822602Y-106810539D01*
X127823108Y-106881534D01*
X127783792Y-106942711D01*
X127665528Y-107043718D01*
X127665523Y-107043723D01*
X127661767Y-107046931D01*
X127507560Y-107227484D01*
X127504981Y-107231692D01*
X127504977Y-107231698D01*
X127435749Y-107344668D01*
X127383496Y-107429937D01*
X127381603Y-107434507D01*
X127381601Y-107434511D01*
X127294525Y-107644733D01*
X127292631Y-107649306D01*
X127237201Y-107880189D01*
X127218571Y-108116900D01*
X127237201Y-108353611D01*
X127292631Y-108584494D01*
X127294524Y-108589065D01*
X127294525Y-108589067D01*
X127367009Y-108764059D01*
X127383496Y-108803863D01*
X127386082Y-108808083D01*
X127504977Y-109002102D01*
X127504981Y-109002108D01*
X127507560Y-109006316D01*
X127661767Y-109186869D01*
X127665523Y-109190077D01*
X127665528Y-109190082D01*
X127783792Y-109291089D01*
X127822602Y-109350539D01*
X127823108Y-109421534D01*
X127783792Y-109482711D01*
X127665528Y-109583718D01*
X127665523Y-109583723D01*
X127661767Y-109586931D01*
X127507560Y-109767484D01*
X127504981Y-109771692D01*
X127504977Y-109771698D01*
X127435749Y-109884668D01*
X127383496Y-109969937D01*
X127381603Y-109974507D01*
X127381601Y-109974511D01*
X127294525Y-110184733D01*
X127292631Y-110189306D01*
X127237201Y-110420189D01*
X127218571Y-110656900D01*
X127237201Y-110893611D01*
X127292631Y-111124494D01*
X127294524Y-111129065D01*
X127294525Y-111129067D01*
X127367009Y-111304059D01*
X127383496Y-111343863D01*
X127386082Y-111348083D01*
X127504977Y-111542102D01*
X127504981Y-111542108D01*
X127507560Y-111546316D01*
X127661767Y-111726869D01*
X127665523Y-111730077D01*
X127665528Y-111730082D01*
X127783792Y-111831089D01*
X127822602Y-111890539D01*
X127823108Y-111961534D01*
X127783792Y-112022711D01*
X127665528Y-112123718D01*
X127665523Y-112123723D01*
X127661767Y-112126931D01*
X127507560Y-112307484D01*
X127504981Y-112311692D01*
X127504977Y-112311698D01*
X127435749Y-112424668D01*
X127383496Y-112509937D01*
X127381603Y-112514507D01*
X127381601Y-112514511D01*
X127294525Y-112724733D01*
X127292631Y-112729306D01*
X127237201Y-112960189D01*
X127218571Y-113196900D01*
X127237201Y-113433611D01*
X127292631Y-113664494D01*
X127294524Y-113669065D01*
X127294525Y-113669067D01*
X127367009Y-113844059D01*
X127383496Y-113883863D01*
X127386082Y-113888083D01*
X127504977Y-114082102D01*
X127504981Y-114082108D01*
X127507560Y-114086316D01*
X127661767Y-114266869D01*
X127665523Y-114270077D01*
X127665528Y-114270082D01*
X127783792Y-114371089D01*
X127822602Y-114430539D01*
X127823108Y-114501534D01*
X127783792Y-114562711D01*
X127665528Y-114663718D01*
X127665523Y-114663723D01*
X127661767Y-114666931D01*
X127507560Y-114847484D01*
X127504981Y-114851692D01*
X127504977Y-114851698D01*
X127435749Y-114964668D01*
X127383496Y-115049937D01*
X127381603Y-115054507D01*
X127381601Y-115054511D01*
X127294525Y-115264733D01*
X127292631Y-115269306D01*
X127237201Y-115500189D01*
X127218571Y-115736900D01*
X127237201Y-115973611D01*
X127292631Y-116204494D01*
X127294524Y-116209065D01*
X127294525Y-116209067D01*
X127367009Y-116384059D01*
X127383496Y-116423863D01*
X127386082Y-116428083D01*
X127504977Y-116622102D01*
X127504981Y-116622108D01*
X127507560Y-116626316D01*
X127661767Y-116806869D01*
X127665523Y-116810077D01*
X127665528Y-116810082D01*
X127783792Y-116911089D01*
X127822602Y-116970539D01*
X127823108Y-117041534D01*
X127783792Y-117102711D01*
X127665528Y-117203718D01*
X127665523Y-117203723D01*
X127661767Y-117206931D01*
X127507560Y-117387484D01*
X127504981Y-117391692D01*
X127504977Y-117391698D01*
X127435749Y-117504668D01*
X127383496Y-117589937D01*
X127381603Y-117594507D01*
X127381601Y-117594511D01*
X127294525Y-117804733D01*
X127292631Y-117809306D01*
X127237201Y-118040189D01*
X127218571Y-118276900D01*
X127237201Y-118513611D01*
X127292631Y-118744494D01*
X127294524Y-118749065D01*
X127294525Y-118749067D01*
X127367009Y-118924059D01*
X127383496Y-118963863D01*
X127386082Y-118968083D01*
X127504977Y-119162102D01*
X127504981Y-119162108D01*
X127507560Y-119166316D01*
X127661767Y-119346869D01*
X127665523Y-119350077D01*
X127665528Y-119350082D01*
X127783792Y-119451089D01*
X127822602Y-119510539D01*
X127823108Y-119581534D01*
X127783792Y-119642711D01*
X127665528Y-119743718D01*
X127665523Y-119743723D01*
X127661767Y-119746931D01*
X127507560Y-119927484D01*
X127504981Y-119931692D01*
X127504977Y-119931698D01*
X127435749Y-120044668D01*
X127383496Y-120129937D01*
X127381603Y-120134507D01*
X127381601Y-120134511D01*
X127294525Y-120344733D01*
X127292631Y-120349306D01*
X127237201Y-120580189D01*
X127218571Y-120816900D01*
X127237201Y-121053611D01*
X127292631Y-121284494D01*
X127294524Y-121289065D01*
X127294525Y-121289067D01*
X127367009Y-121464059D01*
X127383496Y-121503863D01*
X127386082Y-121508083D01*
X127504977Y-121702102D01*
X127504981Y-121702108D01*
X127507560Y-121706316D01*
X127661767Y-121886869D01*
X127665523Y-121890077D01*
X127665528Y-121890082D01*
X127783792Y-121991089D01*
X127822602Y-122050539D01*
X127823108Y-122121534D01*
X127783792Y-122182711D01*
X127665528Y-122283718D01*
X127665523Y-122283723D01*
X127661767Y-122286931D01*
X127507560Y-122467484D01*
X127504981Y-122471692D01*
X127504977Y-122471698D01*
X127435749Y-122584668D01*
X127383496Y-122669937D01*
X127381603Y-122674507D01*
X127381601Y-122674511D01*
X127294525Y-122884733D01*
X127292631Y-122889306D01*
X127237201Y-123120189D01*
X127218571Y-123356900D01*
X127237201Y-123593611D01*
X127292631Y-123824494D01*
X127294524Y-123829065D01*
X127294525Y-123829067D01*
X127367009Y-124004059D01*
X127383496Y-124043863D01*
X127386082Y-124048083D01*
X127504977Y-124242102D01*
X127504981Y-124242108D01*
X127507560Y-124246316D01*
X127661767Y-124426869D01*
X127665523Y-124430077D01*
X127665528Y-124430082D01*
X127783792Y-124531089D01*
X127822602Y-124590539D01*
X127823108Y-124661534D01*
X127783792Y-124722711D01*
X127665528Y-124823718D01*
X127665523Y-124823723D01*
X127661767Y-124826931D01*
X127507560Y-125007484D01*
X127504981Y-125011692D01*
X127504977Y-125011698D01*
X127435749Y-125124668D01*
X127383496Y-125209937D01*
X127381603Y-125214507D01*
X127381601Y-125214511D01*
X127294525Y-125424733D01*
X127292631Y-125429306D01*
X127237201Y-125660189D01*
X127218571Y-125896900D01*
X127237201Y-126133611D01*
X127292631Y-126364494D01*
X127294524Y-126369065D01*
X127294525Y-126369067D01*
X127367009Y-126544059D01*
X127383496Y-126583863D01*
X127386082Y-126588083D01*
X127504977Y-126782102D01*
X127504981Y-126782108D01*
X127507560Y-126786316D01*
X127661767Y-126966869D01*
X127665523Y-126970077D01*
X127665528Y-126970082D01*
X127783792Y-127071089D01*
X127822602Y-127130539D01*
X127823108Y-127201534D01*
X127783792Y-127262711D01*
X127665528Y-127363718D01*
X127665523Y-127363723D01*
X127661767Y-127366931D01*
X127507560Y-127547484D01*
X127504981Y-127551692D01*
X127504977Y-127551698D01*
X127435749Y-127664668D01*
X127383496Y-127749937D01*
X127381603Y-127754507D01*
X127381601Y-127754511D01*
X127294525Y-127964733D01*
X127292631Y-127969306D01*
X127237201Y-128200189D01*
X127218571Y-128436900D01*
X127237201Y-128673611D01*
X127292631Y-128904494D01*
X127294524Y-128909065D01*
X127294525Y-128909067D01*
X127367009Y-129084059D01*
X127383496Y-129123863D01*
X127386082Y-129128083D01*
X127504977Y-129322102D01*
X127504981Y-129322108D01*
X127507560Y-129326316D01*
X127661767Y-129506869D01*
X127665523Y-129510077D01*
X127665528Y-129510082D01*
X127784724Y-129611885D01*
X127823534Y-129671335D01*
X127824040Y-129742330D01*
X127784724Y-129803507D01*
X127667392Y-129903718D01*
X127667387Y-129903723D01*
X127663631Y-129906931D01*
X127509424Y-130087484D01*
X127506845Y-130091692D01*
X127506841Y-130091698D01*
X127399133Y-130267462D01*
X127385360Y-130289937D01*
X127383467Y-130294507D01*
X127383465Y-130294511D01*
X127370279Y-130326345D01*
X127294495Y-130509306D01*
X127239065Y-130740189D01*
X127220435Y-130976900D01*
X127239065Y-131213611D01*
X127294495Y-131444494D01*
X127385360Y-131663863D01*
X127387946Y-131668083D01*
X127506841Y-131862102D01*
X127506845Y-131862108D01*
X127509424Y-131866316D01*
X127663631Y-132046869D01*
X127844184Y-132201076D01*
X127848392Y-132203655D01*
X127848398Y-132203659D01*
X128042417Y-132322554D01*
X128046637Y-132325140D01*
X128051207Y-132327033D01*
X128051211Y-132327035D01*
X128184767Y-132382355D01*
X128266006Y-132416005D01*
X128346209Y-132435260D01*
X128492076Y-132470280D01*
X128492082Y-132470281D01*
X128496889Y-132471435D01*
X128733600Y-132490065D01*
X128970311Y-132471435D01*
X128975118Y-132470281D01*
X128975124Y-132470280D01*
X129120991Y-132435260D01*
X129201194Y-132416005D01*
X129282433Y-132382355D01*
X129415989Y-132327035D01*
X129415993Y-132327033D01*
X129420563Y-132325140D01*
X129424783Y-132322554D01*
X129618802Y-132203659D01*
X129618808Y-132203655D01*
X129623016Y-132201076D01*
X129803569Y-132046869D01*
X129957776Y-131866316D01*
X130068068Y-131686338D01*
X130120715Y-131638707D01*
X130190756Y-131627100D01*
X130255954Y-131655203D01*
X130295608Y-131714094D01*
X130301500Y-131752173D01*
X130301500Y-132030633D01*
X130300000Y-132050018D01*
X130296309Y-132073724D01*
X130297473Y-132082626D01*
X130297750Y-132084746D01*
X130298207Y-132113431D01*
X130295344Y-132142501D01*
X130288084Y-132216212D01*
X130283267Y-132240432D01*
X130247134Y-132359546D01*
X130237685Y-132382355D01*
X130179013Y-132492124D01*
X130165295Y-132512655D01*
X130086329Y-132608876D01*
X130068876Y-132626329D01*
X129972655Y-132705295D01*
X129952124Y-132719013D01*
X129842355Y-132777685D01*
X129819546Y-132787134D01*
X129700432Y-132823267D01*
X129676211Y-132828084D01*
X129580191Y-132837541D01*
X129564132Y-132837091D01*
X129564123Y-132837800D01*
X129555147Y-132837690D01*
X129546276Y-132836309D01*
X129537374Y-132837473D01*
X129537372Y-132837473D01*
X129524856Y-132839110D01*
X129514714Y-132840436D01*
X129498379Y-132841500D01*
X102919367Y-132841500D01*
X102899982Y-132840000D01*
X102885148Y-132837690D01*
X102885145Y-132837690D01*
X102876276Y-132836309D01*
X102866341Y-132837608D01*
X102865254Y-132837750D01*
X102836569Y-132838207D01*
X102763259Y-132830987D01*
X102733788Y-132828084D01*
X102709568Y-132823267D01*
X102590454Y-132787134D01*
X102567645Y-132777685D01*
X102457876Y-132719013D01*
X102437345Y-132705295D01*
X102341124Y-132626329D01*
X102323671Y-132608876D01*
X102244705Y-132512655D01*
X102230987Y-132492124D01*
X102172315Y-132382355D01*
X102162866Y-132359546D01*
X102126733Y-132240432D01*
X102121918Y-132216230D01*
X102121526Y-132212256D01*
X102134744Y-132142501D01*
X102183576Y-132090965D01*
X102252519Y-132074012D01*
X102319683Y-132097023D01*
X102328745Y-132104074D01*
X102442320Y-132201076D01*
X102446528Y-132203655D01*
X102446534Y-132203659D01*
X102640553Y-132322554D01*
X102644773Y-132325140D01*
X102649343Y-132327033D01*
X102649347Y-132327035D01*
X102782903Y-132382355D01*
X102864142Y-132416005D01*
X102944345Y-132435260D01*
X103090212Y-132470280D01*
X103090218Y-132470281D01*
X103095025Y-132471435D01*
X103331736Y-132490065D01*
X103568447Y-132471435D01*
X103573254Y-132470281D01*
X103573260Y-132470280D01*
X103719127Y-132435260D01*
X103799330Y-132416005D01*
X103880569Y-132382355D01*
X104014125Y-132327035D01*
X104014129Y-132327033D01*
X104018699Y-132325140D01*
X104022919Y-132322554D01*
X104216938Y-132203659D01*
X104216944Y-132203655D01*
X104221152Y-132201076D01*
X104401705Y-132046869D01*
X104555912Y-131866316D01*
X104558491Y-131862108D01*
X104558495Y-131862102D01*
X104677390Y-131668083D01*
X104679976Y-131663863D01*
X104770841Y-131444494D01*
X104826271Y-131213611D01*
X104844901Y-130976900D01*
X104826271Y-130740189D01*
X104770841Y-130509306D01*
X104695057Y-130326345D01*
X104681871Y-130294511D01*
X104681869Y-130294507D01*
X104679976Y-130289937D01*
X104666203Y-130267462D01*
X104558495Y-130091698D01*
X104558491Y-130091692D01*
X104555912Y-130087484D01*
X104401705Y-129906931D01*
X104397949Y-129903723D01*
X104397944Y-129903718D01*
X104279680Y-129802711D01*
X104240870Y-129743261D01*
X104240364Y-129672266D01*
X104279680Y-129611089D01*
X104397944Y-129510082D01*
X104397949Y-129510077D01*
X104401705Y-129506869D01*
X104555912Y-129326316D01*
X104558491Y-129322108D01*
X104558495Y-129322102D01*
X104677390Y-129128083D01*
X104679976Y-129123863D01*
X104696464Y-129084059D01*
X104768947Y-128909067D01*
X104768948Y-128909065D01*
X104770841Y-128904494D01*
X104826271Y-128673611D01*
X104844901Y-128436900D01*
X104826271Y-128200189D01*
X104770841Y-127969306D01*
X104768947Y-127964733D01*
X104681871Y-127754511D01*
X104681869Y-127754507D01*
X104679976Y-127749937D01*
X104627723Y-127664668D01*
X104558495Y-127551698D01*
X104558491Y-127551692D01*
X104555912Y-127547484D01*
X104401705Y-127366931D01*
X104397949Y-127363723D01*
X104397944Y-127363718D01*
X104279680Y-127262711D01*
X104240870Y-127203261D01*
X104240364Y-127132266D01*
X104279680Y-127071089D01*
X104397944Y-126970082D01*
X104397949Y-126970077D01*
X104401705Y-126966869D01*
X104555912Y-126786316D01*
X104558491Y-126782108D01*
X104558495Y-126782102D01*
X104677390Y-126588083D01*
X104679976Y-126583863D01*
X104696464Y-126544059D01*
X104768947Y-126369067D01*
X104768948Y-126369065D01*
X104770841Y-126364494D01*
X104826271Y-126133611D01*
X104844901Y-125896900D01*
X104826271Y-125660189D01*
X104770841Y-125429306D01*
X104768947Y-125424733D01*
X104681871Y-125214511D01*
X104681869Y-125214507D01*
X104679976Y-125209937D01*
X104627723Y-125124668D01*
X104558495Y-125011698D01*
X104558491Y-125011692D01*
X104555912Y-125007484D01*
X104401705Y-124826931D01*
X104397949Y-124823723D01*
X104397944Y-124823718D01*
X104279680Y-124722711D01*
X104240870Y-124663261D01*
X104240364Y-124592266D01*
X104279680Y-124531089D01*
X104397944Y-124430082D01*
X104397949Y-124430077D01*
X104401705Y-124426869D01*
X104555912Y-124246316D01*
X104558491Y-124242108D01*
X104558495Y-124242102D01*
X104677390Y-124048083D01*
X104679976Y-124043863D01*
X104696464Y-124004059D01*
X104768947Y-123829067D01*
X104768948Y-123829065D01*
X104770841Y-123824494D01*
X104826271Y-123593611D01*
X104844901Y-123356900D01*
X104826271Y-123120189D01*
X104770841Y-122889306D01*
X104768947Y-122884733D01*
X104681871Y-122674511D01*
X104681869Y-122674507D01*
X104679976Y-122669937D01*
X104627723Y-122584668D01*
X104558495Y-122471698D01*
X104558491Y-122471692D01*
X104555912Y-122467484D01*
X104401705Y-122286931D01*
X104397949Y-122283723D01*
X104397944Y-122283718D01*
X104279680Y-122182711D01*
X104240870Y-122123261D01*
X104240364Y-122052266D01*
X104279680Y-121991089D01*
X104397944Y-121890082D01*
X104397949Y-121890077D01*
X104401705Y-121886869D01*
X104555912Y-121706316D01*
X104558491Y-121702108D01*
X104558495Y-121702102D01*
X104677390Y-121508083D01*
X104679976Y-121503863D01*
X104696464Y-121464059D01*
X104768947Y-121289067D01*
X104768948Y-121289065D01*
X104770841Y-121284494D01*
X104826271Y-121053611D01*
X104844901Y-120816900D01*
X104826271Y-120580189D01*
X104770841Y-120349306D01*
X104768947Y-120344733D01*
X104681871Y-120134511D01*
X104681869Y-120134507D01*
X104679976Y-120129937D01*
X104627723Y-120044668D01*
X104558495Y-119931698D01*
X104558491Y-119931692D01*
X104555912Y-119927484D01*
X104401705Y-119746931D01*
X104397949Y-119743723D01*
X104397944Y-119743718D01*
X104279680Y-119642711D01*
X104240870Y-119583261D01*
X104240364Y-119512266D01*
X104279680Y-119451089D01*
X104397944Y-119350082D01*
X104397949Y-119350077D01*
X104401705Y-119346869D01*
X104555912Y-119166316D01*
X104558491Y-119162108D01*
X104558495Y-119162102D01*
X104677390Y-118968083D01*
X104679976Y-118963863D01*
X104696464Y-118924059D01*
X104768947Y-118749067D01*
X104768948Y-118749065D01*
X104770841Y-118744494D01*
X104826271Y-118513611D01*
X104844901Y-118276900D01*
X104826271Y-118040189D01*
X104770841Y-117809306D01*
X104768947Y-117804733D01*
X104681871Y-117594511D01*
X104681869Y-117594507D01*
X104679976Y-117589937D01*
X104627723Y-117504668D01*
X104558495Y-117391698D01*
X104558491Y-117391692D01*
X104555912Y-117387484D01*
X104401705Y-117206931D01*
X104397949Y-117203723D01*
X104397944Y-117203718D01*
X104279680Y-117102711D01*
X104240870Y-117043261D01*
X104240364Y-116972266D01*
X104279680Y-116911089D01*
X104397944Y-116810082D01*
X104397949Y-116810077D01*
X104401705Y-116806869D01*
X104555912Y-116626316D01*
X104558491Y-116622108D01*
X104558495Y-116622102D01*
X104677390Y-116428083D01*
X104679976Y-116423863D01*
X104696464Y-116384059D01*
X104768947Y-116209067D01*
X104768948Y-116209065D01*
X104770841Y-116204494D01*
X104826271Y-115973611D01*
X104844901Y-115736900D01*
X104826271Y-115500189D01*
X104770841Y-115269306D01*
X104768947Y-115264733D01*
X104681871Y-115054511D01*
X104681869Y-115054507D01*
X104679976Y-115049937D01*
X104627723Y-114964668D01*
X104558495Y-114851698D01*
X104558491Y-114851692D01*
X104555912Y-114847484D01*
X104401705Y-114666931D01*
X104397949Y-114663723D01*
X104397944Y-114663718D01*
X104279680Y-114562711D01*
X104240870Y-114503261D01*
X104240364Y-114432266D01*
X104279680Y-114371089D01*
X104397944Y-114270082D01*
X104397949Y-114270077D01*
X104401705Y-114266869D01*
X104555912Y-114086316D01*
X104558491Y-114082108D01*
X104558495Y-114082102D01*
X104677390Y-113888083D01*
X104679976Y-113883863D01*
X104696464Y-113844059D01*
X104768947Y-113669067D01*
X104768948Y-113669065D01*
X104770841Y-113664494D01*
X104826271Y-113433611D01*
X104844901Y-113196900D01*
X104826271Y-112960189D01*
X104770841Y-112729306D01*
X104768947Y-112724733D01*
X104681871Y-112514511D01*
X104681869Y-112514507D01*
X104679976Y-112509937D01*
X104627723Y-112424668D01*
X104558495Y-112311698D01*
X104558491Y-112311692D01*
X104555912Y-112307484D01*
X104401705Y-112126931D01*
X104397949Y-112123723D01*
X104397944Y-112123718D01*
X104279680Y-112022711D01*
X104240870Y-111963261D01*
X104240364Y-111892266D01*
X104279680Y-111831089D01*
X104397944Y-111730082D01*
X104397949Y-111730077D01*
X104401705Y-111726869D01*
X104555912Y-111546316D01*
X104558491Y-111542108D01*
X104558495Y-111542102D01*
X104677390Y-111348083D01*
X104679976Y-111343863D01*
X104696464Y-111304059D01*
X104768947Y-111129067D01*
X104768948Y-111129065D01*
X104770841Y-111124494D01*
X104826271Y-110893611D01*
X104844901Y-110656900D01*
X104826271Y-110420189D01*
X104770841Y-110189306D01*
X104768947Y-110184733D01*
X104681871Y-109974511D01*
X104681869Y-109974507D01*
X104679976Y-109969937D01*
X104627723Y-109884668D01*
X104558495Y-109771698D01*
X104558491Y-109771692D01*
X104555912Y-109767484D01*
X104401705Y-109586931D01*
X104397949Y-109583723D01*
X104397944Y-109583718D01*
X104279680Y-109482711D01*
X104240870Y-109423261D01*
X104240364Y-109352266D01*
X104279680Y-109291089D01*
X104397944Y-109190082D01*
X104397949Y-109190077D01*
X104401705Y-109186869D01*
X104555912Y-109006316D01*
X104558491Y-109002108D01*
X104558495Y-109002102D01*
X104677390Y-108808083D01*
X104679976Y-108803863D01*
X104696464Y-108764059D01*
X104768947Y-108589067D01*
X104768948Y-108589065D01*
X104770841Y-108584494D01*
X104826271Y-108353611D01*
X104844901Y-108116900D01*
X104826271Y-107880189D01*
X104770841Y-107649306D01*
X104768947Y-107644733D01*
X104681871Y-107434511D01*
X104681869Y-107434507D01*
X104679976Y-107429937D01*
X104627723Y-107344668D01*
X104558495Y-107231698D01*
X104558491Y-107231692D01*
X104555912Y-107227484D01*
X104401705Y-107046931D01*
X104397949Y-107043723D01*
X104397944Y-107043718D01*
X104279680Y-106942711D01*
X104240870Y-106883261D01*
X104240364Y-106812266D01*
X104279680Y-106751089D01*
X104397944Y-106650082D01*
X104397949Y-106650077D01*
X104401705Y-106646869D01*
X104555912Y-106466316D01*
X104558491Y-106462108D01*
X104558495Y-106462102D01*
X104677390Y-106268083D01*
X104679976Y-106263863D01*
X104696464Y-106224059D01*
X104768947Y-106049067D01*
X104768948Y-106049065D01*
X104770841Y-106044494D01*
X104826271Y-105813611D01*
X104844901Y-105576900D01*
X104826271Y-105340189D01*
X104770841Y-105109306D01*
X104768947Y-105104733D01*
X104681871Y-104894511D01*
X104681869Y-104894507D01*
X104679976Y-104889937D01*
X104627723Y-104804668D01*
X104558495Y-104691698D01*
X104558491Y-104691692D01*
X104555912Y-104687484D01*
X104401705Y-104506931D01*
X104397949Y-104503723D01*
X104397944Y-104503718D01*
X104279680Y-104402711D01*
X104240870Y-104343261D01*
X104240364Y-104272266D01*
X104279680Y-104211089D01*
X104397944Y-104110082D01*
X104397949Y-104110077D01*
X104401705Y-104106869D01*
X104555912Y-103926316D01*
X104558491Y-103922108D01*
X104558495Y-103922102D01*
X104677390Y-103728083D01*
X104679976Y-103723863D01*
X104696464Y-103684059D01*
X104768947Y-103509067D01*
X104768948Y-103509065D01*
X104770841Y-103504494D01*
X104826271Y-103273611D01*
X104844901Y-103036900D01*
X104826271Y-102800189D01*
X104770841Y-102569306D01*
X104768947Y-102564733D01*
X104681871Y-102354511D01*
X104681869Y-102354507D01*
X104679976Y-102349937D01*
X104627723Y-102264668D01*
X104558495Y-102151698D01*
X104558491Y-102151692D01*
X104555912Y-102147484D01*
X104401705Y-101966931D01*
X104397949Y-101963723D01*
X104397944Y-101963718D01*
X104279680Y-101862711D01*
X104240870Y-101803261D01*
X104240364Y-101732266D01*
X104279680Y-101671089D01*
X104397944Y-101570082D01*
X104397949Y-101570077D01*
X104401705Y-101566869D01*
X104555912Y-101386316D01*
X104558491Y-101382108D01*
X104558495Y-101382102D01*
X104677390Y-101188083D01*
X104679976Y-101183863D01*
X104696464Y-101144059D01*
X104768947Y-100969067D01*
X104768948Y-100969065D01*
X104770841Y-100964494D01*
X104826271Y-100733611D01*
X104844901Y-100496900D01*
X104826271Y-100260189D01*
X104770841Y-100029306D01*
X104768947Y-100024733D01*
X104681871Y-99814511D01*
X104681869Y-99814507D01*
X104679976Y-99809937D01*
X104627723Y-99724668D01*
X104558495Y-99611698D01*
X104558491Y-99611692D01*
X104555912Y-99607484D01*
X104401705Y-99426931D01*
X104397949Y-99423723D01*
X104397944Y-99423718D01*
X104279680Y-99322711D01*
X104240870Y-99263261D01*
X104240364Y-99192266D01*
X104279680Y-99131089D01*
X104397944Y-99030082D01*
X104397949Y-99030077D01*
X104401705Y-99026869D01*
X104555912Y-98846316D01*
X104558491Y-98842108D01*
X104558495Y-98842102D01*
X104677390Y-98648083D01*
X104679976Y-98643863D01*
X104696464Y-98604059D01*
X104768947Y-98429067D01*
X104768948Y-98429065D01*
X104770841Y-98424494D01*
X104826271Y-98193611D01*
X104844901Y-97956900D01*
X104826271Y-97720189D01*
X104770841Y-97489306D01*
X104768947Y-97484733D01*
X104681871Y-97274511D01*
X104681869Y-97274507D01*
X104679976Y-97269937D01*
X104627723Y-97184668D01*
X104558495Y-97071698D01*
X104558491Y-97071692D01*
X104555912Y-97067484D01*
X104401705Y-96886931D01*
X104397949Y-96883723D01*
X104397944Y-96883718D01*
X104279680Y-96782711D01*
X104240870Y-96723261D01*
X104240364Y-96652266D01*
X104279680Y-96591089D01*
X104397944Y-96490082D01*
X104397949Y-96490077D01*
X104401705Y-96486869D01*
X104555912Y-96306316D01*
X104558491Y-96302108D01*
X104558495Y-96302102D01*
X104677390Y-96108083D01*
X104679976Y-96103863D01*
X104696464Y-96064059D01*
X104768947Y-95889067D01*
X104768948Y-95889065D01*
X104770841Y-95884494D01*
X104826271Y-95653611D01*
X104844901Y-95416900D01*
X104826271Y-95180189D01*
X104770841Y-94949306D01*
X104748686Y-94895818D01*
X104681871Y-94734511D01*
X104681869Y-94734507D01*
X104679976Y-94729937D01*
X104677390Y-94725717D01*
X104558495Y-94531698D01*
X104558491Y-94531692D01*
X104555912Y-94527484D01*
X104401705Y-94346931D01*
X104397949Y-94343723D01*
X104397944Y-94343718D01*
X104279680Y-94242711D01*
X104240870Y-94183261D01*
X104240364Y-94112266D01*
X104279680Y-94051089D01*
X104397944Y-93950082D01*
X104397949Y-93950077D01*
X104401705Y-93946869D01*
X104555912Y-93766316D01*
X104558491Y-93762108D01*
X104558495Y-93762102D01*
X104677390Y-93568083D01*
X104679976Y-93563863D01*
X104770841Y-93344494D01*
X104826271Y-93113611D01*
X104844901Y-92876900D01*
X104826271Y-92640189D01*
X104770841Y-92409306D01*
X104768947Y-92404733D01*
X104681871Y-92194511D01*
X104681869Y-92194507D01*
X104679976Y-92189937D01*
X104677390Y-92185717D01*
X104558495Y-91991698D01*
X104558491Y-91991692D01*
X104555912Y-91987484D01*
X104401705Y-91806931D01*
X104397949Y-91803723D01*
X104397944Y-91803718D01*
X104279680Y-91702711D01*
X104240870Y-91643261D01*
X104240364Y-91572266D01*
X104279680Y-91511089D01*
X104397944Y-91410082D01*
X104397949Y-91410077D01*
X104401705Y-91406869D01*
X104555912Y-91226316D01*
X104558491Y-91222108D01*
X104558495Y-91222102D01*
X104677390Y-91028083D01*
X104679976Y-91023863D01*
X104770841Y-90804494D01*
X104826271Y-90573611D01*
X104844901Y-90336900D01*
X104826271Y-90100189D01*
X104770841Y-89869306D01*
X104752231Y-89824377D01*
X104681871Y-89654511D01*
X104681869Y-89654507D01*
X104679976Y-89649937D01*
X104628810Y-89566442D01*
X104558495Y-89451698D01*
X104558491Y-89451692D01*
X104555912Y-89447484D01*
X104401705Y-89266931D01*
X104397949Y-89263723D01*
X104397944Y-89263718D01*
X104279680Y-89162711D01*
X104240870Y-89103261D01*
X104240364Y-89032266D01*
X104279680Y-88971089D01*
X104397944Y-88870082D01*
X104397949Y-88870077D01*
X104401705Y-88866869D01*
X104555912Y-88686316D01*
X104558491Y-88682108D01*
X104558495Y-88682102D01*
X104677390Y-88488083D01*
X104679976Y-88483863D01*
X104770841Y-88264494D01*
X104826271Y-88033611D01*
X104844901Y-87796900D01*
X104826271Y-87560189D01*
X104770841Y-87329306D01*
X104679976Y-87109937D01*
X104637241Y-87040200D01*
X104558495Y-86911698D01*
X104558491Y-86911692D01*
X104555912Y-86907484D01*
X104401705Y-86726931D01*
X104397949Y-86723723D01*
X104397944Y-86723718D01*
X104279680Y-86622711D01*
X104240870Y-86563261D01*
X104240364Y-86492266D01*
X104279680Y-86431089D01*
X104397944Y-86330082D01*
X104397949Y-86330077D01*
X104401705Y-86326869D01*
X104555912Y-86146316D01*
X104558491Y-86142108D01*
X104558495Y-86142102D01*
X104677390Y-85948083D01*
X104679976Y-85943863D01*
X104770841Y-85724494D01*
X104826271Y-85493611D01*
X104844901Y-85256900D01*
X104826271Y-85020189D01*
X104770841Y-84789306D01*
X104679976Y-84569937D01*
X104677390Y-84565717D01*
X104558495Y-84371698D01*
X104558491Y-84371692D01*
X104555912Y-84367484D01*
X104401705Y-84186931D01*
X104397949Y-84183723D01*
X104397944Y-84183718D01*
X104279680Y-84082711D01*
X104240870Y-84023261D01*
X104240364Y-83952266D01*
X104279680Y-83891089D01*
X104397944Y-83790082D01*
X104397949Y-83790077D01*
X104401705Y-83786869D01*
X104555912Y-83606316D01*
X104558491Y-83602108D01*
X104558495Y-83602102D01*
X104677390Y-83408083D01*
X104679976Y-83403863D01*
X104770841Y-83184494D01*
X104826271Y-82953611D01*
X104844901Y-82716900D01*
X104826271Y-82480189D01*
X104770841Y-82249306D01*
X104679976Y-82029937D01*
X104677390Y-82025717D01*
X104558495Y-81831698D01*
X104558491Y-81831692D01*
X104555912Y-81827484D01*
X104401705Y-81646931D01*
X104397949Y-81643723D01*
X104397944Y-81643718D01*
X104279680Y-81542711D01*
X104240870Y-81483261D01*
X104240364Y-81412266D01*
X104279680Y-81351089D01*
X104397944Y-81250082D01*
X104397949Y-81250077D01*
X104401705Y-81246869D01*
X104555912Y-81066316D01*
X104558491Y-81062108D01*
X104558495Y-81062102D01*
X104677390Y-80868083D01*
X104679976Y-80863863D01*
X104770841Y-80644494D01*
X104826271Y-80413611D01*
X104844901Y-80176900D01*
X104826271Y-79940189D01*
X104770841Y-79709306D01*
X104679976Y-79489937D01*
X104677390Y-79485717D01*
X104558495Y-79291698D01*
X104558491Y-79291692D01*
X104555912Y-79287484D01*
X104401705Y-79106931D01*
X104397949Y-79103723D01*
X104397944Y-79103718D01*
X104279680Y-79002711D01*
X104240870Y-78943261D01*
X104240364Y-78872266D01*
X104279680Y-78811089D01*
X104397944Y-78710082D01*
X104397949Y-78710077D01*
X104401705Y-78706869D01*
X104555912Y-78526316D01*
X104558491Y-78522108D01*
X104558495Y-78522102D01*
X104675869Y-78330565D01*
X104728517Y-78282934D01*
X104783302Y-78270400D01*
X105251107Y-78270400D01*
X105274716Y-78272632D01*
X105275019Y-78272690D01*
X105275023Y-78272690D01*
X105282806Y-78274175D01*
X105338851Y-78270649D01*
X105346762Y-78270400D01*
X105362756Y-78270400D01*
X105378630Y-78268394D01*
X105386490Y-78267652D01*
X105413949Y-78265924D01*
X105434637Y-78264623D01*
X105434638Y-78264623D01*
X105442550Y-78264125D01*
X105450091Y-78261675D01*
X105450387Y-78261579D01*
X105473531Y-78256406D01*
X105473835Y-78256368D01*
X105473840Y-78256367D01*
X105481697Y-78255374D01*
X105489062Y-78252458D01*
X105489066Y-78252457D01*
X105533911Y-78234701D01*
X105541330Y-78232029D01*
X105594775Y-78214664D01*
X105601472Y-78210414D01*
X105601731Y-78210250D01*
X105622858Y-78199485D01*
X105623146Y-78199371D01*
X105623151Y-78199368D01*
X105630517Y-78196452D01*
X105636925Y-78191796D01*
X105636931Y-78191793D01*
X105675952Y-78163442D01*
X105682489Y-78158999D01*
X105729918Y-78128900D01*
X105735559Y-78122893D01*
X105753346Y-78107212D01*
X105753591Y-78107034D01*
X105753593Y-78107032D01*
X105760007Y-78102372D01*
X105765062Y-78096262D01*
X105795803Y-78059104D01*
X105801034Y-78053170D01*
X105834058Y-78018002D01*
X105834060Y-78017999D01*
X105839486Y-78012221D01*
X105843458Y-78004997D01*
X105856781Y-77985394D01*
X105856980Y-77985154D01*
X105856984Y-77985147D01*
X105862033Y-77979044D01*
X105885947Y-77928224D01*
X105889529Y-77921192D01*
X105916595Y-77871960D01*
X105918565Y-77864285D01*
X105918568Y-77864279D01*
X105918644Y-77863981D01*
X105926676Y-77841672D01*
X105926806Y-77841397D01*
X105926809Y-77841389D01*
X105930183Y-77834218D01*
X105939019Y-77787897D01*
X105973692Y-77722412D01*
X106143347Y-77552757D01*
X106151637Y-77545213D01*
X106158118Y-77541100D01*
X106204759Y-77491432D01*
X106207513Y-77488591D01*
X106227234Y-77468870D01*
X106229712Y-77465675D01*
X106237418Y-77456653D01*
X106262258Y-77430201D01*
X106267686Y-77424421D01*
X106277446Y-77406668D01*
X106288299Y-77390145D01*
X106295853Y-77380406D01*
X106300713Y-77374141D01*
X106318276Y-77333557D01*
X106323483Y-77322927D01*
X106344795Y-77284160D01*
X106346766Y-77276483D01*
X106346768Y-77276478D01*
X106349832Y-77264542D01*
X106356238Y-77245830D01*
X106361133Y-77234519D01*
X106364281Y-77227245D01*
X106365521Y-77219417D01*
X106365523Y-77219410D01*
X106371199Y-77183576D01*
X106373605Y-77171956D01*
X106382628Y-77136811D01*
X106382628Y-77136810D01*
X106384600Y-77129130D01*
X106384600Y-77108876D01*
X106386151Y-77089165D01*
X106388080Y-77076986D01*
X106389320Y-77069157D01*
X106385159Y-77025138D01*
X106384600Y-77013281D01*
X106384600Y-76935494D01*
X106404602Y-76867373D01*
X106421505Y-76846399D01*
X107834247Y-75433657D01*
X107842537Y-75426113D01*
X107849018Y-75422000D01*
X107895659Y-75372332D01*
X107898413Y-75369491D01*
X107918135Y-75349769D01*
X107920619Y-75346567D01*
X107928317Y-75337555D01*
X107953161Y-75311098D01*
X107958586Y-75305321D01*
X107968347Y-75287566D01*
X107979198Y-75271047D01*
X107991614Y-75255041D01*
X108009174Y-75214463D01*
X108014391Y-75203813D01*
X108035695Y-75165060D01*
X108040733Y-75145437D01*
X108047137Y-75126734D01*
X108052033Y-75115420D01*
X108052033Y-75115419D01*
X108055181Y-75108145D01*
X108056420Y-75100322D01*
X108056423Y-75100312D01*
X108062099Y-75064476D01*
X108064505Y-75052856D01*
X108073528Y-75017711D01*
X108073528Y-75017710D01*
X108075500Y-75010030D01*
X108075500Y-74989776D01*
X108077051Y-74970065D01*
X108078980Y-74957886D01*
X108080220Y-74950057D01*
X108076059Y-74906038D01*
X108075500Y-74894181D01*
X108075500Y-72450594D01*
X108095502Y-72382473D01*
X108112405Y-72361499D01*
X110612000Y-69861905D01*
X110674312Y-69827879D01*
X110701095Y-69825000D01*
X114832733Y-69825000D01*
X114843916Y-69825527D01*
X114851409Y-69827202D01*
X114859335Y-69826953D01*
X114859336Y-69826953D01*
X114919486Y-69825062D01*
X114923445Y-69825000D01*
X114951356Y-69825000D01*
X114955291Y-69824503D01*
X114955356Y-69824495D01*
X114967193Y-69823562D01*
X114999451Y-69822548D01*
X115003470Y-69822422D01*
X115011389Y-69822173D01*
X115030843Y-69816521D01*
X115050200Y-69812513D01*
X115062430Y-69810968D01*
X115062431Y-69810968D01*
X115070297Y-69809974D01*
X115077668Y-69807055D01*
X115077670Y-69807055D01*
X115111412Y-69793696D01*
X115122642Y-69789851D01*
X115157483Y-69779729D01*
X115157484Y-69779729D01*
X115165093Y-69777518D01*
X115171912Y-69773485D01*
X115171917Y-69773483D01*
X115182528Y-69767207D01*
X115200276Y-69758512D01*
X115219117Y-69751052D01*
X115225533Y-69746391D01*
X115225536Y-69746389D01*
X115226671Y-69745564D01*
X115227564Y-69745274D01*
X115232479Y-69742572D01*
X115232994Y-69743509D01*
X115300732Y-69721500D01*
X123365233Y-69721500D01*
X123376416Y-69722027D01*
X123383909Y-69723702D01*
X123391835Y-69723453D01*
X123391836Y-69723453D01*
X123451986Y-69721562D01*
X123455945Y-69721500D01*
X123483856Y-69721500D01*
X123487791Y-69721003D01*
X123487856Y-69720995D01*
X123499693Y-69720062D01*
X123531951Y-69719048D01*
X123535970Y-69718922D01*
X123543889Y-69718673D01*
X123563343Y-69713021D01*
X123582700Y-69709013D01*
X123594930Y-69707468D01*
X123594931Y-69707468D01*
X123602797Y-69706474D01*
X123610168Y-69703555D01*
X123610170Y-69703555D01*
X123643912Y-69690196D01*
X123655142Y-69686351D01*
X123689983Y-69676229D01*
X123689984Y-69676229D01*
X123697593Y-69674018D01*
X123704412Y-69669985D01*
X123704417Y-69669983D01*
X123715028Y-69663707D01*
X123732776Y-69655012D01*
X123751617Y-69647552D01*
X123787387Y-69621564D01*
X123797307Y-69615048D01*
X123828535Y-69596580D01*
X123828538Y-69596578D01*
X123835362Y-69592542D01*
X123849683Y-69578221D01*
X123864717Y-69565380D01*
X123874693Y-69558132D01*
X123881107Y-69553472D01*
X123909288Y-69519407D01*
X123917278Y-69510626D01*
X124598258Y-68829647D01*
X124606537Y-68822113D01*
X124613018Y-68818000D01*
X124659644Y-68768348D01*
X124662398Y-68765507D01*
X124682135Y-68745770D01*
X124684615Y-68742573D01*
X124692320Y-68733551D01*
X124717159Y-68707100D01*
X124722586Y-68701321D01*
X124726405Y-68694375D01*
X124726407Y-68694372D01*
X124732348Y-68683566D01*
X124743199Y-68667047D01*
X124747558Y-68661427D01*
X124755614Y-68651041D01*
X124758759Y-68643772D01*
X124758762Y-68643768D01*
X124773174Y-68610463D01*
X124778391Y-68599813D01*
X124799695Y-68561060D01*
X124804733Y-68541437D01*
X124811137Y-68522734D01*
X124816033Y-68511420D01*
X124816033Y-68511419D01*
X124819181Y-68504145D01*
X124820420Y-68496322D01*
X124820423Y-68496312D01*
X124826099Y-68460476D01*
X124828505Y-68448856D01*
X124833058Y-68431122D01*
X124869372Y-68370115D01*
X124932903Y-68338426D01*
X125003482Y-68346114D01*
G37*
%TD.AperFunction*%
M02*
