%TF.GenerationSoftware,KiCad,Pcbnew,(6.0.11)*%
%TF.CreationDate,2023-06-18T22:22:59+02:00*%
%TF.ProjectId,rd-03,72642d30-332e-46b6-9963-61645f706362,rev?*%
%TF.SameCoordinates,Original*%
%TF.FileFunction,Legend,Top*%
%TF.FilePolarity,Positive*%
%FSLAX46Y46*%
G04 Gerber Fmt 4.6, Leading zero omitted, Abs format (unit mm)*
G04 Created by KiCad (PCBNEW (6.0.11)) date 2023-06-18 22:22:59*
%MOMM*%
%LPD*%
G01*
G04 APERTURE LIST*
%ADD10C,0.250000*%
%ADD11C,0.150000*%
%ADD12C,0.100000*%
G04 APERTURE END LIST*
D10*
X128948571Y-63745428D02*
X127448571Y-63745428D01*
X128162857Y-63745428D02*
X128162857Y-63174000D01*
X128948571Y-63174000D02*
X127448571Y-63174000D01*
X127448571Y-62697809D02*
X128662857Y-62697809D01*
X128805714Y-62650190D01*
X128877142Y-62602571D01*
X128948571Y-62507333D01*
X128948571Y-62316857D01*
X128877142Y-62221619D01*
X128805714Y-62174000D01*
X128662857Y-62126380D01*
X127448571Y-62126380D01*
X128948571Y-61650190D02*
X127448571Y-61650190D01*
X128520000Y-61316857D01*
X127448571Y-60983523D01*
X128948571Y-60983523D01*
X128520000Y-60554952D02*
X128520000Y-60078761D01*
X128948571Y-60650190D02*
X127448571Y-60316857D01*
X128948571Y-59983523D01*
X128948571Y-59650190D02*
X127448571Y-59650190D01*
X128948571Y-59078761D01*
X127448571Y-59078761D01*
X128948571Y-57269238D02*
X128234285Y-57602571D01*
X128948571Y-57840666D02*
X127448571Y-57840666D01*
X127448571Y-57459714D01*
X127520000Y-57364476D01*
X127591428Y-57316857D01*
X127734285Y-57269238D01*
X127948571Y-57269238D01*
X128091428Y-57316857D01*
X128162857Y-57364476D01*
X128234285Y-57459714D01*
X128234285Y-57840666D01*
X128520000Y-56888285D02*
X128520000Y-56412095D01*
X128948571Y-56983523D02*
X127448571Y-56650190D01*
X128948571Y-56316857D01*
X128948571Y-55983523D02*
X127448571Y-55983523D01*
X127448571Y-55745428D01*
X127520000Y-55602571D01*
X127662857Y-55507333D01*
X127805714Y-55459714D01*
X128091428Y-55412095D01*
X128305714Y-55412095D01*
X128591428Y-55459714D01*
X128734285Y-55507333D01*
X128877142Y-55602571D01*
X128948571Y-55745428D01*
X128948571Y-55983523D01*
X128520000Y-55031142D02*
X128520000Y-54554952D01*
X128948571Y-55126380D02*
X127448571Y-54793047D01*
X128948571Y-54459714D01*
X128948571Y-53554952D02*
X128234285Y-53888285D01*
X128948571Y-54126380D02*
X127448571Y-54126380D01*
X127448571Y-53745428D01*
X127520000Y-53650190D01*
X127591428Y-53602571D01*
X127734285Y-53554952D01*
X127948571Y-53554952D01*
X128091428Y-53602571D01*
X128162857Y-53650190D01*
X128234285Y-53745428D01*
X128234285Y-54126380D01*
X103596285Y-61078666D02*
X103524857Y-61126285D01*
X103453428Y-61221523D01*
X103453428Y-61316761D01*
X103524857Y-61412000D01*
X103596285Y-61459619D01*
X103739142Y-61507238D01*
X103882000Y-61507238D01*
X104024857Y-61459619D01*
X104096285Y-61412000D01*
X104167714Y-61316761D01*
X104167714Y-61221523D01*
X104096285Y-61126285D01*
X104024857Y-61078666D01*
X103453428Y-61078666D02*
X104024857Y-61078666D01*
X104096285Y-61031047D01*
X104096285Y-60983428D01*
X104024857Y-60888190D01*
X103882000Y-60840571D01*
X103524857Y-60840571D01*
X103310571Y-60935809D01*
X103167714Y-61078666D01*
X103096285Y-61269142D01*
X103167714Y-61459619D01*
X103310571Y-61602476D01*
X103524857Y-61697714D01*
X103810571Y-61745333D01*
X104096285Y-61697714D01*
X104310571Y-61602476D01*
X104453428Y-61459619D01*
X104524857Y-61269142D01*
X104453428Y-61078666D01*
X104310571Y-60935809D01*
X104239142Y-60459619D02*
X104310571Y-60316761D01*
X104310571Y-60078666D01*
X104239142Y-59983428D01*
X104167714Y-59935809D01*
X104024857Y-59888190D01*
X103882000Y-59888190D01*
X103739142Y-59935809D01*
X103667714Y-59983428D01*
X103596285Y-60078666D01*
X103524857Y-60269142D01*
X103453428Y-60364380D01*
X103382000Y-60412000D01*
X103239142Y-60459619D01*
X103096285Y-60459619D01*
X102953428Y-60412000D01*
X102882000Y-60364380D01*
X102810571Y-60269142D01*
X102810571Y-60031047D01*
X102882000Y-59888190D01*
X103310571Y-59031047D02*
X104310571Y-59031047D01*
X103310571Y-59459619D02*
X104096285Y-59459619D01*
X104239142Y-59412000D01*
X104310571Y-59316761D01*
X104310571Y-59173904D01*
X104239142Y-59078666D01*
X104167714Y-59031047D01*
X104310571Y-58412000D02*
X104239142Y-58507238D01*
X104096285Y-58554857D01*
X102810571Y-58554857D01*
X103310571Y-58173904D02*
X103310571Y-57792952D01*
X104310571Y-58031047D02*
X103024857Y-58031047D01*
X102882000Y-57983428D01*
X102810571Y-57888190D01*
X102810571Y-57792952D01*
X103310571Y-57031047D02*
X104310571Y-57031047D01*
X103310571Y-57459619D02*
X104096285Y-57459619D01*
X104239142Y-57412000D01*
X104310571Y-57316761D01*
X104310571Y-57173904D01*
X104239142Y-57078666D01*
X104167714Y-57031047D01*
X104310571Y-56554857D02*
X103310571Y-56554857D01*
X103596285Y-56554857D02*
X103453428Y-56507238D01*
X103382000Y-56459619D01*
X103310571Y-56364380D01*
X103310571Y-56269142D01*
X104310571Y-55792952D02*
X104239142Y-55888190D01*
X104167714Y-55935809D01*
X104024857Y-55983428D01*
X103596285Y-55983428D01*
X103453428Y-55935809D01*
X103382000Y-55888190D01*
X103310571Y-55792952D01*
X103310571Y-55650095D01*
X103382000Y-55554857D01*
X103453428Y-55507238D01*
X103596285Y-55459619D01*
X104024857Y-55459619D01*
X104167714Y-55507238D01*
X104239142Y-55554857D01*
X104310571Y-55650095D01*
X104310571Y-55792952D01*
X104310571Y-55031047D02*
X103310571Y-55031047D01*
X102810571Y-55031047D02*
X102882000Y-55078666D01*
X102953428Y-55031047D01*
X102882000Y-54983428D01*
X102810571Y-55031047D01*
X102953428Y-55031047D01*
X104310571Y-54126285D02*
X102810571Y-54126285D01*
X104239142Y-54126285D02*
X104310571Y-54221523D01*
X104310571Y-54412000D01*
X104239142Y-54507238D01*
X104167714Y-54554857D01*
X104024857Y-54602476D01*
X103596285Y-54602476D01*
X103453428Y-54554857D01*
X103382000Y-54507238D01*
X103310571Y-54412000D01*
X103310571Y-54221523D01*
X103382000Y-54126285D01*
D11*
%TO.C,U2*%
X110201695Y-129749280D02*
X110201695Y-130558804D01*
X110249314Y-130654042D01*
X110296933Y-130701661D01*
X110392171Y-130749280D01*
X110582647Y-130749280D01*
X110677885Y-130701661D01*
X110725504Y-130654042D01*
X110773123Y-130558804D01*
X110773123Y-129749280D01*
X111201695Y-129844519D02*
X111249314Y-129796900D01*
X111344552Y-129749280D01*
X111582647Y-129749280D01*
X111677885Y-129796900D01*
X111725504Y-129844519D01*
X111773123Y-129939757D01*
X111773123Y-130034995D01*
X111725504Y-130177852D01*
X111154076Y-130749280D01*
X111773123Y-130749280D01*
D12*
X125670266Y-120500233D02*
X125703600Y-120466900D01*
X125770266Y-120433566D01*
X125936933Y-120433566D01*
X126003600Y-120466900D01*
X126036933Y-120500233D01*
X126070266Y-120566900D01*
X126070266Y-120633566D01*
X126036933Y-120733566D01*
X125636933Y-121133566D01*
X126070266Y-121133566D01*
X126736933Y-121133566D02*
X126336933Y-121133566D01*
X126536933Y-121133566D02*
X126536933Y-120433566D01*
X126470266Y-120533566D01*
X126403600Y-120600233D01*
X126336933Y-120633566D01*
X105740266Y-118593566D02*
X105340266Y-118593566D01*
X105540266Y-118593566D02*
X105540266Y-117893566D01*
X105473600Y-117993566D01*
X105406933Y-118060233D01*
X105340266Y-118093566D01*
X106406933Y-118593566D02*
X106006933Y-118593566D01*
X106206933Y-118593566D02*
X106206933Y-117893566D01*
X106140266Y-117993566D01*
X106073600Y-118060233D01*
X106006933Y-118093566D01*
X125670266Y-130626900D02*
X125603600Y-130593566D01*
X125503600Y-130593566D01*
X125403600Y-130626900D01*
X125336933Y-130693566D01*
X125303600Y-130760233D01*
X125270266Y-130893566D01*
X125270266Y-130993566D01*
X125303600Y-131126900D01*
X125336933Y-131193566D01*
X125403600Y-131260233D01*
X125503600Y-131293566D01*
X125570266Y-131293566D01*
X125670266Y-131260233D01*
X125703600Y-131226900D01*
X125703600Y-130993566D01*
X125570266Y-130993566D01*
X126003600Y-131293566D02*
X126003600Y-130593566D01*
X126403600Y-131293566D01*
X126403600Y-130593566D01*
X126736933Y-131293566D02*
X126736933Y-130593566D01*
X126903600Y-130593566D01*
X127003600Y-130626900D01*
X127070266Y-130693566D01*
X127103600Y-130760233D01*
X127136933Y-130893566D01*
X127136933Y-130993566D01*
X127103600Y-131126900D01*
X127070266Y-131193566D01*
X127003600Y-131260233D01*
X126903600Y-131293566D01*
X126736933Y-131293566D01*
X126003600Y-113046900D02*
X126003600Y-113513566D01*
X125836933Y-112780233D02*
X125670266Y-113280233D01*
X126103600Y-113280233D01*
X126703600Y-112813566D02*
X126370266Y-112813566D01*
X126336933Y-113146900D01*
X126370266Y-113113566D01*
X126436933Y-113080233D01*
X126603600Y-113080233D01*
X126670266Y-113113566D01*
X126703600Y-113146900D01*
X126736933Y-113213566D01*
X126736933Y-113380233D01*
X126703600Y-113446900D01*
X126670266Y-113480233D01*
X126603600Y-113513566D01*
X126436933Y-113513566D01*
X126370266Y-113480233D01*
X126336933Y-113446900D01*
X126003600Y-118126900D02*
X126003600Y-118593566D01*
X125836933Y-117860233D02*
X125670266Y-118360233D01*
X126103600Y-118360233D01*
X126303600Y-117893566D02*
X126770266Y-117893566D01*
X126470266Y-118593566D01*
X105740266Y-121133566D02*
X105340266Y-121133566D01*
X105540266Y-121133566D02*
X105540266Y-120433566D01*
X105473600Y-120533566D01*
X105406933Y-120600233D01*
X105340266Y-120633566D01*
X106006933Y-120500233D02*
X106040266Y-120466900D01*
X106106933Y-120433566D01*
X106273600Y-120433566D01*
X106340266Y-120466900D01*
X106373600Y-120500233D01*
X106406933Y-120566900D01*
X106406933Y-120633566D01*
X106373600Y-120733566D01*
X105973600Y-121133566D01*
X106406933Y-121133566D01*
X126086933Y-83033566D02*
X125853600Y-82700233D01*
X125686933Y-83033566D02*
X125686933Y-82333566D01*
X125953600Y-82333566D01*
X126020266Y-82366900D01*
X126053600Y-82400233D01*
X126086933Y-82466900D01*
X126086933Y-82566900D01*
X126053600Y-82633566D01*
X126020266Y-82666900D01*
X125953600Y-82700233D01*
X125686933Y-82700233D01*
X126320266Y-82333566D02*
X126786933Y-83033566D01*
X126786933Y-82333566D02*
X126320266Y-83033566D01*
X105740266Y-123673566D02*
X105340266Y-123673566D01*
X105540266Y-123673566D02*
X105540266Y-122973566D01*
X105473600Y-123073566D01*
X105406933Y-123140233D01*
X105340266Y-123173566D01*
X105973600Y-122973566D02*
X106406933Y-122973566D01*
X106173600Y-123240233D01*
X106273600Y-123240233D01*
X106340266Y-123273566D01*
X106373600Y-123306900D01*
X106406933Y-123373566D01*
X106406933Y-123540233D01*
X106373600Y-123606900D01*
X106340266Y-123640233D01*
X106273600Y-123673566D01*
X106073600Y-123673566D01*
X106006933Y-123640233D01*
X105973600Y-123606900D01*
X105806933Y-105493566D02*
X105740266Y-105460233D01*
X105706933Y-105426900D01*
X105673600Y-105360233D01*
X105673600Y-105326900D01*
X105706933Y-105260233D01*
X105740266Y-105226900D01*
X105806933Y-105193566D01*
X105940266Y-105193566D01*
X106006933Y-105226900D01*
X106040266Y-105260233D01*
X106073600Y-105326900D01*
X106073600Y-105360233D01*
X106040266Y-105426900D01*
X106006933Y-105460233D01*
X105940266Y-105493566D01*
X105806933Y-105493566D01*
X105740266Y-105526900D01*
X105706933Y-105560233D01*
X105673600Y-105626900D01*
X105673600Y-105760233D01*
X105706933Y-105826900D01*
X105740266Y-105860233D01*
X105806933Y-105893566D01*
X105940266Y-105893566D01*
X106006933Y-105860233D01*
X106040266Y-105826900D01*
X106073600Y-105760233D01*
X106073600Y-105626900D01*
X106040266Y-105560233D01*
X106006933Y-105526900D01*
X105940266Y-105493566D01*
X105640266Y-107733566D02*
X106073600Y-107733566D01*
X105840266Y-108000233D01*
X105940266Y-108000233D01*
X106006933Y-108033566D01*
X106040266Y-108066900D01*
X106073600Y-108133566D01*
X106073600Y-108300233D01*
X106040266Y-108366900D01*
X106006933Y-108400233D01*
X105940266Y-108433566D01*
X105740266Y-108433566D01*
X105673600Y-108400233D01*
X105640266Y-108366900D01*
X125636933Y-100113566D02*
X126070266Y-100113566D01*
X125836933Y-100380233D01*
X125936933Y-100380233D01*
X126003600Y-100413566D01*
X126036933Y-100446900D01*
X126070266Y-100513566D01*
X126070266Y-100680233D01*
X126036933Y-100746900D01*
X126003600Y-100780233D01*
X125936933Y-100813566D01*
X125736933Y-100813566D01*
X125670266Y-100780233D01*
X125636933Y-100746900D01*
X126470266Y-100413566D02*
X126403600Y-100380233D01*
X126370266Y-100346900D01*
X126336933Y-100280233D01*
X126336933Y-100246900D01*
X126370266Y-100180233D01*
X126403600Y-100146900D01*
X126470266Y-100113566D01*
X126603600Y-100113566D01*
X126670266Y-100146900D01*
X126703600Y-100180233D01*
X126736933Y-100246900D01*
X126736933Y-100280233D01*
X126703600Y-100346900D01*
X126670266Y-100380233D01*
X126603600Y-100413566D01*
X126470266Y-100413566D01*
X126403600Y-100446900D01*
X126370266Y-100480233D01*
X126336933Y-100546900D01*
X126336933Y-100680233D01*
X126370266Y-100746900D01*
X126403600Y-100780233D01*
X126470266Y-100813566D01*
X126603600Y-100813566D01*
X126670266Y-100780233D01*
X126703600Y-100746900D01*
X126736933Y-100680233D01*
X126736933Y-100546900D01*
X126703600Y-100480233D01*
X126670266Y-100446900D01*
X126603600Y-100413566D01*
X126003600Y-92726900D02*
X126003600Y-93193566D01*
X125836933Y-92460233D02*
X125670266Y-92960233D01*
X126103600Y-92960233D01*
X126736933Y-93193566D02*
X126336933Y-93193566D01*
X126536933Y-93193566D02*
X126536933Y-92493566D01*
X126470266Y-92593566D01*
X126403600Y-92660233D01*
X126336933Y-92693566D01*
X105740266Y-126213566D02*
X105340266Y-126213566D01*
X105540266Y-126213566D02*
X105540266Y-125513566D01*
X105473600Y-125613566D01*
X105406933Y-125680233D01*
X105340266Y-125713566D01*
X106340266Y-125746900D02*
X106340266Y-126213566D01*
X106173600Y-125480233D02*
X106006933Y-125980233D01*
X106440266Y-125980233D01*
X105490266Y-83033566D02*
X105256933Y-82700233D01*
X105090266Y-83033566D02*
X105090266Y-82333566D01*
X105356933Y-82333566D01*
X105423600Y-82366900D01*
X105456933Y-82400233D01*
X105490266Y-82466900D01*
X105490266Y-82566900D01*
X105456933Y-82633566D01*
X105423600Y-82666900D01*
X105356933Y-82700233D01*
X105090266Y-82700233D01*
X105756933Y-83000233D02*
X105856933Y-83033566D01*
X106023600Y-83033566D01*
X106090266Y-83000233D01*
X106123600Y-82966900D01*
X106156933Y-82900233D01*
X106156933Y-82833566D01*
X106123600Y-82766900D01*
X106090266Y-82733566D01*
X106023600Y-82700233D01*
X105890266Y-82666900D01*
X105823600Y-82633566D01*
X105790266Y-82600233D01*
X105756933Y-82533566D01*
X105756933Y-82466900D01*
X105790266Y-82400233D01*
X105823600Y-82366900D01*
X105890266Y-82333566D01*
X106056933Y-82333566D01*
X106156933Y-82366900D01*
X106356933Y-82333566D02*
X106756933Y-82333566D01*
X106556933Y-83033566D02*
X106556933Y-82333566D01*
X105773600Y-128053566D02*
X105440266Y-128053566D01*
X105406933Y-128386900D01*
X105440266Y-128353566D01*
X105506933Y-128320233D01*
X105673600Y-128320233D01*
X105740266Y-128353566D01*
X105773600Y-128386900D01*
X105806933Y-128453566D01*
X105806933Y-128620233D01*
X105773600Y-128686900D01*
X105740266Y-128720233D01*
X105673600Y-128753566D01*
X105506933Y-128753566D01*
X105440266Y-128720233D01*
X105406933Y-128686900D01*
X106040266Y-128286900D02*
X106206933Y-128753566D01*
X106373600Y-128286900D01*
X105740266Y-116053566D02*
X105340266Y-116053566D01*
X105540266Y-116053566D02*
X105540266Y-115353566D01*
X105473600Y-115453566D01*
X105406933Y-115520233D01*
X105340266Y-115553566D01*
X106173600Y-115353566D02*
X106240266Y-115353566D01*
X106306933Y-115386900D01*
X106340266Y-115420233D01*
X106373600Y-115486900D01*
X106406933Y-115620233D01*
X106406933Y-115786900D01*
X106373600Y-115920233D01*
X106340266Y-115986900D01*
X106306933Y-116020233D01*
X106240266Y-116053566D01*
X106173600Y-116053566D01*
X106106933Y-116020233D01*
X106073600Y-115986900D01*
X106040266Y-115920233D01*
X106006933Y-115786900D01*
X106006933Y-115620233D01*
X106040266Y-115486900D01*
X106073600Y-115420233D01*
X106106933Y-115386900D01*
X106173600Y-115353566D01*
X126136933Y-110273566D02*
X126270266Y-110273566D01*
X126336933Y-110306900D01*
X126403600Y-110373566D01*
X126436933Y-110506900D01*
X126436933Y-110740233D01*
X126403600Y-110873566D01*
X126336933Y-110940233D01*
X126270266Y-110973566D01*
X126136933Y-110973566D01*
X126070266Y-110940233D01*
X126003600Y-110873566D01*
X125970266Y-110740233D01*
X125970266Y-110506900D01*
X126003600Y-110373566D01*
X126070266Y-110306900D01*
X126136933Y-110273566D01*
X126403600Y-85573566D02*
X126003600Y-85573566D01*
X126203600Y-85573566D02*
X126203600Y-84873566D01*
X126136933Y-84973566D01*
X126070266Y-85040233D01*
X126003600Y-85073566D01*
X105740266Y-98273566D02*
X105340266Y-98273566D01*
X105540266Y-98273566D02*
X105540266Y-97573566D01*
X105473600Y-97673566D01*
X105406933Y-97740233D01*
X105340266Y-97773566D01*
X106340266Y-97573566D02*
X106206933Y-97573566D01*
X106140266Y-97606900D01*
X106106933Y-97640233D01*
X106040266Y-97740233D01*
X106006933Y-97873566D01*
X106006933Y-98140233D01*
X106040266Y-98206900D01*
X106073600Y-98240233D01*
X106140266Y-98273566D01*
X106273600Y-98273566D01*
X106340266Y-98240233D01*
X106373600Y-98206900D01*
X106406933Y-98140233D01*
X106406933Y-97973566D01*
X106373600Y-97906900D01*
X106340266Y-97873566D01*
X106273600Y-97840233D01*
X106140266Y-97840233D01*
X106073600Y-97873566D01*
X106040266Y-97906900D01*
X106006933Y-97973566D01*
X105640266Y-92493566D02*
X106106933Y-92493566D01*
X105806933Y-93193566D01*
X106006933Y-89953566D02*
X105873600Y-89953566D01*
X105806933Y-89986900D01*
X105773600Y-90020233D01*
X105706933Y-90120233D01*
X105673600Y-90253566D01*
X105673600Y-90520233D01*
X105706933Y-90586900D01*
X105740266Y-90620233D01*
X105806933Y-90653566D01*
X105940266Y-90653566D01*
X106006933Y-90620233D01*
X106040266Y-90586900D01*
X106073600Y-90520233D01*
X106073600Y-90353566D01*
X106040266Y-90286900D01*
X106006933Y-90253566D01*
X105940266Y-90220233D01*
X105806933Y-90220233D01*
X105740266Y-90253566D01*
X105706933Y-90286900D01*
X105673600Y-90353566D01*
X125670266Y-123040233D02*
X125703600Y-123006900D01*
X125770266Y-122973566D01*
X125936933Y-122973566D01*
X126003600Y-123006900D01*
X126036933Y-123040233D01*
X126070266Y-123106900D01*
X126070266Y-123173566D01*
X126036933Y-123273566D01*
X125636933Y-123673566D01*
X126070266Y-123673566D01*
X126503600Y-122973566D02*
X126570266Y-122973566D01*
X126636933Y-123006900D01*
X126670266Y-123040233D01*
X126703600Y-123106900D01*
X126736933Y-123240233D01*
X126736933Y-123406900D01*
X126703600Y-123540233D01*
X126670266Y-123606900D01*
X126636933Y-123640233D01*
X126570266Y-123673566D01*
X126503600Y-123673566D01*
X126436933Y-123640233D01*
X126403600Y-123606900D01*
X126370266Y-123540233D01*
X126336933Y-123406900D01*
X126336933Y-123240233D01*
X126370266Y-123106900D01*
X126403600Y-123040233D01*
X126436933Y-123006900D01*
X126503600Y-122973566D01*
X105740266Y-113513566D02*
X105873600Y-113513566D01*
X105940266Y-113480233D01*
X105973600Y-113446900D01*
X106040266Y-113346900D01*
X106073600Y-113213566D01*
X106073600Y-112946900D01*
X106040266Y-112880233D01*
X106006933Y-112846900D01*
X105940266Y-112813566D01*
X105806933Y-112813566D01*
X105740266Y-112846900D01*
X105706933Y-112880233D01*
X105673600Y-112946900D01*
X105673600Y-113113566D01*
X105706933Y-113180233D01*
X105740266Y-113213566D01*
X105806933Y-113246900D01*
X105940266Y-113246900D01*
X106006933Y-113213566D01*
X106040266Y-113180233D01*
X106073600Y-113113566D01*
X125636933Y-102653566D02*
X126070266Y-102653566D01*
X125836933Y-102920233D01*
X125936933Y-102920233D01*
X126003600Y-102953566D01*
X126036933Y-102986900D01*
X126070266Y-103053566D01*
X126070266Y-103220233D01*
X126036933Y-103286900D01*
X126003600Y-103320233D01*
X125936933Y-103353566D01*
X125736933Y-103353566D01*
X125670266Y-103320233D01*
X125636933Y-103286900D01*
X126303600Y-102653566D02*
X126770266Y-102653566D01*
X126470266Y-103353566D01*
X106040266Y-87413566D02*
X105706933Y-87413566D01*
X105673600Y-87746900D01*
X105706933Y-87713566D01*
X105773600Y-87680233D01*
X105940266Y-87680233D01*
X106006933Y-87713566D01*
X106040266Y-87746900D01*
X106073600Y-87813566D01*
X106073600Y-87980233D01*
X106040266Y-88046900D01*
X106006933Y-88080233D01*
X105940266Y-88113566D01*
X105773600Y-88113566D01*
X105706933Y-88080233D01*
X105673600Y-88046900D01*
X125636933Y-105193566D02*
X126070266Y-105193566D01*
X125836933Y-105460233D01*
X125936933Y-105460233D01*
X126003600Y-105493566D01*
X126036933Y-105526900D01*
X126070266Y-105593566D01*
X126070266Y-105760233D01*
X126036933Y-105826900D01*
X126003600Y-105860233D01*
X125936933Y-105893566D01*
X125736933Y-105893566D01*
X125670266Y-105860233D01*
X125636933Y-105826900D01*
X126670266Y-105193566D02*
X126536933Y-105193566D01*
X126470266Y-105226900D01*
X126436933Y-105260233D01*
X126370266Y-105360233D01*
X126336933Y-105493566D01*
X126336933Y-105760233D01*
X126370266Y-105826900D01*
X126403600Y-105860233D01*
X126470266Y-105893566D01*
X126603600Y-105893566D01*
X126670266Y-105860233D01*
X126703600Y-105826900D01*
X126736933Y-105760233D01*
X126736933Y-105593566D01*
X126703600Y-105526900D01*
X126670266Y-105493566D01*
X126603600Y-105460233D01*
X126470266Y-105460233D01*
X126403600Y-105493566D01*
X126370266Y-105526900D01*
X126336933Y-105593566D01*
X126003600Y-95266900D02*
X126003600Y-95733566D01*
X125836933Y-95000233D02*
X125670266Y-95500233D01*
X126103600Y-95500233D01*
X126503600Y-95033566D02*
X126570266Y-95033566D01*
X126636933Y-95066900D01*
X126670266Y-95100233D01*
X126703600Y-95166900D01*
X126736933Y-95300233D01*
X126736933Y-95466900D01*
X126703600Y-95600233D01*
X126670266Y-95666900D01*
X126636933Y-95700233D01*
X126570266Y-95733566D01*
X126503600Y-95733566D01*
X126436933Y-95700233D01*
X126403600Y-95666900D01*
X126370266Y-95600233D01*
X126336933Y-95466900D01*
X126336933Y-95300233D01*
X126370266Y-95166900D01*
X126403600Y-95100233D01*
X126436933Y-95066900D01*
X126503600Y-95033566D01*
X125670266Y-79793566D02*
X126070266Y-79793566D01*
X125870266Y-80493566D02*
X125870266Y-79793566D01*
X126236933Y-79793566D02*
X126703600Y-80493566D01*
X126703600Y-79793566D02*
X126236933Y-80493566D01*
X125636933Y-97573566D02*
X126070266Y-97573566D01*
X125836933Y-97840233D01*
X125936933Y-97840233D01*
X126003600Y-97873566D01*
X126036933Y-97906900D01*
X126070266Y-97973566D01*
X126070266Y-98140233D01*
X126036933Y-98206900D01*
X126003600Y-98240233D01*
X125936933Y-98273566D01*
X125736933Y-98273566D01*
X125670266Y-98240233D01*
X125636933Y-98206900D01*
X126403600Y-98273566D02*
X126536933Y-98273566D01*
X126603600Y-98240233D01*
X126636933Y-98206900D01*
X126703600Y-98106900D01*
X126736933Y-97973566D01*
X126736933Y-97706900D01*
X126703600Y-97640233D01*
X126670266Y-97606900D01*
X126603600Y-97573566D01*
X126470266Y-97573566D01*
X126403600Y-97606900D01*
X126370266Y-97640233D01*
X126336933Y-97706900D01*
X126336933Y-97873566D01*
X126370266Y-97940233D01*
X126403600Y-97973566D01*
X126470266Y-98006900D01*
X126603600Y-98006900D01*
X126670266Y-97973566D01*
X126703600Y-97940233D01*
X126736933Y-97873566D01*
X126003600Y-115586900D02*
X126003600Y-116053566D01*
X125836933Y-115320233D02*
X125670266Y-115820233D01*
X126103600Y-115820233D01*
X126470266Y-115653566D02*
X126403600Y-115620233D01*
X126370266Y-115586900D01*
X126336933Y-115520233D01*
X126336933Y-115486900D01*
X126370266Y-115420233D01*
X126403600Y-115386900D01*
X126470266Y-115353566D01*
X126603600Y-115353566D01*
X126670266Y-115386900D01*
X126703600Y-115420233D01*
X126736933Y-115486900D01*
X126736933Y-115520233D01*
X126703600Y-115586900D01*
X126670266Y-115620233D01*
X126603600Y-115653566D01*
X126470266Y-115653566D01*
X126403600Y-115686900D01*
X126370266Y-115720233D01*
X126336933Y-115786900D01*
X126336933Y-115920233D01*
X126370266Y-115986900D01*
X126403600Y-116020233D01*
X126470266Y-116053566D01*
X126603600Y-116053566D01*
X126670266Y-116020233D01*
X126703600Y-115986900D01*
X126736933Y-115920233D01*
X126736933Y-115786900D01*
X126703600Y-115720233D01*
X126670266Y-115686900D01*
X126603600Y-115653566D01*
X125636933Y-107733566D02*
X126070266Y-107733566D01*
X125836933Y-108000233D01*
X125936933Y-108000233D01*
X126003600Y-108033566D01*
X126036933Y-108066900D01*
X126070266Y-108133566D01*
X126070266Y-108300233D01*
X126036933Y-108366900D01*
X126003600Y-108400233D01*
X125936933Y-108433566D01*
X125736933Y-108433566D01*
X125670266Y-108400233D01*
X125636933Y-108366900D01*
X126703600Y-107733566D02*
X126370266Y-107733566D01*
X126336933Y-108066900D01*
X126370266Y-108033566D01*
X126436933Y-108000233D01*
X126603600Y-108000233D01*
X126670266Y-108033566D01*
X126703600Y-108066900D01*
X126736933Y-108133566D01*
X126736933Y-108300233D01*
X126703600Y-108366900D01*
X126670266Y-108400233D01*
X126603600Y-108433566D01*
X126436933Y-108433566D01*
X126370266Y-108400233D01*
X126336933Y-108366900D01*
X126003600Y-87480233D02*
X126036933Y-87446900D01*
X126103600Y-87413566D01*
X126270266Y-87413566D01*
X126336933Y-87446900D01*
X126370266Y-87480233D01*
X126403600Y-87546900D01*
X126403600Y-87613566D01*
X126370266Y-87713566D01*
X125970266Y-88113566D01*
X126403600Y-88113566D01*
X105740266Y-95733566D02*
X105340266Y-95733566D01*
X105540266Y-95733566D02*
X105540266Y-95033566D01*
X105473600Y-95133566D01*
X105406933Y-95200233D01*
X105340266Y-95233566D01*
X106373600Y-95033566D02*
X106040266Y-95033566D01*
X106006933Y-95366900D01*
X106040266Y-95333566D01*
X106106933Y-95300233D01*
X106273600Y-95300233D01*
X106340266Y-95333566D01*
X106373600Y-95366900D01*
X106406933Y-95433566D01*
X106406933Y-95600233D01*
X106373600Y-95666900D01*
X106340266Y-95700233D01*
X106273600Y-95733566D01*
X106106933Y-95733566D01*
X106040266Y-95700233D01*
X106006933Y-95666900D01*
X105673600Y-110506900D02*
X105673600Y-110973566D01*
X105506933Y-110240233D02*
X105340266Y-110740233D01*
X105773600Y-110740233D01*
X106340266Y-110273566D02*
X106206933Y-110273566D01*
X106140266Y-110306900D01*
X106106933Y-110340233D01*
X106040266Y-110440233D01*
X106006933Y-110573566D01*
X106006933Y-110840233D01*
X106040266Y-110906900D01*
X106073600Y-110940233D01*
X106140266Y-110973566D01*
X106273600Y-110973566D01*
X106340266Y-110940233D01*
X106373600Y-110906900D01*
X106406933Y-110840233D01*
X106406933Y-110673566D01*
X106373600Y-110606900D01*
X106340266Y-110573566D01*
X106273600Y-110540233D01*
X106140266Y-110540233D01*
X106073600Y-110573566D01*
X106040266Y-110606900D01*
X106006933Y-110673566D01*
X125670266Y-77286900D02*
X125603600Y-77253566D01*
X125503600Y-77253566D01*
X125403600Y-77286900D01*
X125336933Y-77353566D01*
X125303600Y-77420233D01*
X125270266Y-77553566D01*
X125270266Y-77653566D01*
X125303600Y-77786900D01*
X125336933Y-77853566D01*
X125403600Y-77920233D01*
X125503600Y-77953566D01*
X125570266Y-77953566D01*
X125670266Y-77920233D01*
X125703600Y-77886900D01*
X125703600Y-77653566D01*
X125570266Y-77653566D01*
X126003600Y-77953566D02*
X126003600Y-77253566D01*
X126403600Y-77953566D01*
X126403600Y-77253566D01*
X126736933Y-77953566D02*
X126736933Y-77253566D01*
X126903600Y-77253566D01*
X127003600Y-77286900D01*
X127070266Y-77353566D01*
X127103600Y-77420233D01*
X127136933Y-77553566D01*
X127136933Y-77653566D01*
X127103600Y-77786900D01*
X127070266Y-77853566D01*
X127003600Y-77920233D01*
X126903600Y-77953566D01*
X126736933Y-77953566D01*
X105740266Y-103353566D02*
X105340266Y-103353566D01*
X105540266Y-103353566D02*
X105540266Y-102653566D01*
X105473600Y-102753566D01*
X105406933Y-102820233D01*
X105340266Y-102853566D01*
X106140266Y-102953566D02*
X106073600Y-102920233D01*
X106040266Y-102886900D01*
X106006933Y-102820233D01*
X106006933Y-102786900D01*
X106040266Y-102720233D01*
X106073600Y-102686900D01*
X106140266Y-102653566D01*
X106273600Y-102653566D01*
X106340266Y-102686900D01*
X106373600Y-102720233D01*
X106406933Y-102786900D01*
X106406933Y-102820233D01*
X106373600Y-102886900D01*
X106340266Y-102920233D01*
X106273600Y-102953566D01*
X106140266Y-102953566D01*
X106073600Y-102986900D01*
X106040266Y-103020233D01*
X106006933Y-103086900D01*
X106006933Y-103220233D01*
X106040266Y-103286900D01*
X106073600Y-103320233D01*
X106140266Y-103353566D01*
X106273600Y-103353566D01*
X106340266Y-103320233D01*
X106373600Y-103286900D01*
X106406933Y-103220233D01*
X106406933Y-103086900D01*
X106373600Y-103020233D01*
X106340266Y-102986900D01*
X106273600Y-102953566D01*
X105340266Y-130626900D02*
X105273600Y-130593566D01*
X105173600Y-130593566D01*
X105073600Y-130626900D01*
X105006933Y-130693566D01*
X104973600Y-130760233D01*
X104940266Y-130893566D01*
X104940266Y-130993566D01*
X104973600Y-131126900D01*
X105006933Y-131193566D01*
X105073600Y-131260233D01*
X105173600Y-131293566D01*
X105240266Y-131293566D01*
X105340266Y-131260233D01*
X105373600Y-131226900D01*
X105373600Y-130993566D01*
X105240266Y-130993566D01*
X105673600Y-131293566D02*
X105673600Y-130593566D01*
X106073600Y-131293566D01*
X106073600Y-130593566D01*
X106406933Y-131293566D02*
X106406933Y-130593566D01*
X106573600Y-130593566D01*
X106673600Y-130626900D01*
X106740266Y-130693566D01*
X106773600Y-130760233D01*
X106806933Y-130893566D01*
X106806933Y-130993566D01*
X106773600Y-131126900D01*
X106740266Y-131193566D01*
X106673600Y-131260233D01*
X106573600Y-131293566D01*
X106406933Y-131293566D01*
X104873600Y-79793566D02*
X105306933Y-79793566D01*
X105073600Y-80060233D01*
X105173600Y-80060233D01*
X105240266Y-80093566D01*
X105273600Y-80126900D01*
X105306933Y-80193566D01*
X105306933Y-80360233D01*
X105273600Y-80426900D01*
X105240266Y-80460233D01*
X105173600Y-80493566D01*
X104973600Y-80493566D01*
X104906933Y-80460233D01*
X104873600Y-80426900D01*
X105606933Y-80426900D02*
X105640266Y-80460233D01*
X105606933Y-80493566D01*
X105573600Y-80460233D01*
X105606933Y-80426900D01*
X105606933Y-80493566D01*
X105873600Y-79793566D02*
X106306933Y-79793566D01*
X106073600Y-80060233D01*
X106173600Y-80060233D01*
X106240266Y-80093566D01*
X106273600Y-80126900D01*
X106306933Y-80193566D01*
X106306933Y-80360233D01*
X106273600Y-80426900D01*
X106240266Y-80460233D01*
X106173600Y-80493566D01*
X105973600Y-80493566D01*
X105906933Y-80460233D01*
X105873600Y-80426900D01*
X106540266Y-80026900D02*
X106706933Y-80493566D01*
X106873600Y-80026900D01*
X126070266Y-126213566D02*
X125670266Y-126213566D01*
X125870266Y-126213566D02*
X125870266Y-125513566D01*
X125803600Y-125613566D01*
X125736933Y-125680233D01*
X125670266Y-125713566D01*
X126403600Y-126213566D02*
X126536933Y-126213566D01*
X126603600Y-126180233D01*
X126636933Y-126146900D01*
X126703600Y-126046900D01*
X126736933Y-125913566D01*
X126736933Y-125646900D01*
X126703600Y-125580233D01*
X126670266Y-125546900D01*
X126603600Y-125513566D01*
X126470266Y-125513566D01*
X126403600Y-125546900D01*
X126370266Y-125580233D01*
X126336933Y-125646900D01*
X126336933Y-125813566D01*
X126370266Y-125880233D01*
X126403600Y-125913566D01*
X126470266Y-125946900D01*
X126603600Y-125946900D01*
X126670266Y-125913566D01*
X126703600Y-125880233D01*
X126736933Y-125813566D01*
X126003600Y-90186900D02*
X126003600Y-90653566D01*
X125836933Y-89920233D02*
X125670266Y-90420233D01*
X126103600Y-90420233D01*
X126336933Y-90020233D02*
X126370266Y-89986900D01*
X126436933Y-89953566D01*
X126603600Y-89953566D01*
X126670266Y-89986900D01*
X126703600Y-90020233D01*
X126736933Y-90086900D01*
X126736933Y-90153566D01*
X126703600Y-90253566D01*
X126303600Y-90653566D01*
X126736933Y-90653566D01*
X105740266Y-100813566D02*
X105340266Y-100813566D01*
X105540266Y-100813566D02*
X105540266Y-100113566D01*
X105473600Y-100213566D01*
X105406933Y-100280233D01*
X105340266Y-100313566D01*
X105973600Y-100113566D02*
X106440266Y-100113566D01*
X106140266Y-100813566D01*
X104873600Y-77253566D02*
X105306933Y-77253566D01*
X105073600Y-77520233D01*
X105173600Y-77520233D01*
X105240266Y-77553566D01*
X105273600Y-77586900D01*
X105306933Y-77653566D01*
X105306933Y-77820233D01*
X105273600Y-77886900D01*
X105240266Y-77920233D01*
X105173600Y-77953566D01*
X104973600Y-77953566D01*
X104906933Y-77920233D01*
X104873600Y-77886900D01*
X105606933Y-77886900D02*
X105640266Y-77920233D01*
X105606933Y-77953566D01*
X105573600Y-77920233D01*
X105606933Y-77886900D01*
X105606933Y-77953566D01*
X105873600Y-77253566D02*
X106306933Y-77253566D01*
X106073600Y-77520233D01*
X106173600Y-77520233D01*
X106240266Y-77553566D01*
X106273600Y-77586900D01*
X106306933Y-77653566D01*
X106306933Y-77820233D01*
X106273600Y-77886900D01*
X106240266Y-77920233D01*
X106173600Y-77953566D01*
X105973600Y-77953566D01*
X105906933Y-77920233D01*
X105873600Y-77886900D01*
X106540266Y-77486900D02*
X106706933Y-77953566D01*
X106873600Y-77486900D01*
X106006933Y-85106900D02*
X106006933Y-85573566D01*
X105840266Y-84840233D02*
X105673600Y-85340233D01*
X106106933Y-85340233D01*
X125670266Y-128086900D02*
X125603600Y-128053566D01*
X125503600Y-128053566D01*
X125403600Y-128086900D01*
X125336933Y-128153566D01*
X125303600Y-128220233D01*
X125270266Y-128353566D01*
X125270266Y-128453566D01*
X125303600Y-128586900D01*
X125336933Y-128653566D01*
X125403600Y-128720233D01*
X125503600Y-128753566D01*
X125570266Y-128753566D01*
X125670266Y-128720233D01*
X125703600Y-128686900D01*
X125703600Y-128453566D01*
X125570266Y-128453566D01*
X126003600Y-128753566D02*
X126003600Y-128053566D01*
X126403600Y-128753566D01*
X126403600Y-128053566D01*
X126736933Y-128753566D02*
X126736933Y-128053566D01*
X126903600Y-128053566D01*
X127003600Y-128086900D01*
X127070266Y-128153566D01*
X127103600Y-128220233D01*
X127136933Y-128353566D01*
X127136933Y-128453566D01*
X127103600Y-128586900D01*
X127070266Y-128653566D01*
X127003600Y-128720233D01*
X126903600Y-128753566D01*
X126736933Y-128753566D01*
D11*
%TO.C,U1*%
X108808095Y-48372380D02*
X108808095Y-49181904D01*
X108855714Y-49277142D01*
X108903333Y-49324761D01*
X108998571Y-49372380D01*
X109189047Y-49372380D01*
X109284285Y-49324761D01*
X109331904Y-49277142D01*
X109379523Y-49181904D01*
X109379523Y-48372380D01*
X110379523Y-49372380D02*
X109808095Y-49372380D01*
X110093809Y-49372380D02*
X110093809Y-48372380D01*
X109998571Y-48515238D01*
X109903333Y-48610476D01*
X109808095Y-48658095D01*
%TD*%
M02*
