M48
; DRILL file {KiCad (6.0.11)} date Sun Jun 18 22:23:01 2023
; FORMAT={-:-/ absolute / inch / decimal}
; #@! TF.CreationDate,2023-06-18T22:23:01+02:00
; #@! TF.GenerationSoftware,Kicad,Pcbnew,(6.0.11)
; #@! TF.FileFunction,Plated,1,2,PTH
FMAT,2
INCH
; #@! TA.AperFunction,Plated,PTH,ComponentDrill
T1C0.0394
; #@! TA.AperFunction,Plated,PTH,ComponentDrill
T2C0.0453
%
G90
G05
T1
X4.0682Y-3.0566
X4.0682Y-3.1566
X4.0682Y-3.2566
X4.0682Y-3.3566
X4.0682Y-3.4566
X4.0682Y-3.5566
X4.0682Y-3.6566
X4.0682Y-3.7566
X4.0682Y-3.8566
X4.0682Y-3.9566
X4.0682Y-4.0566
X4.0682Y-4.1566
X4.0682Y-4.2566
X4.0682Y-4.3566
X4.0682Y-4.4566
X4.0682Y-4.5566
X4.0682Y-4.6566
X4.0682Y-4.7566
X4.0682Y-4.8566
X4.0682Y-4.9566
X4.0682Y-5.0566
X4.0682Y-5.1566
X5.0682Y-3.0566
X5.0682Y-3.1566
X5.0682Y-3.2566
X5.0682Y-3.3566
X5.0682Y-3.4566
X5.0682Y-3.5566
X5.0682Y-3.6566
X5.0682Y-3.7566
X5.0682Y-3.8566
X5.0682Y-3.9566
X5.0682Y-4.0566
X5.0682Y-4.1566
X5.0682Y-4.2566
X5.0682Y-4.3566
X5.0682Y-4.4566
X5.0682Y-4.5566
X5.0682Y-4.6566
X5.0682Y-4.7566
X5.0682Y-4.8566
X5.0682Y-4.9566
X5.0682Y-5.0566
X5.0683Y-5.1566
T2
X4.8914Y-1.9567
X4.8914Y-2.0567
X4.8914Y-2.1567
X4.8914Y-2.2567
X4.8914Y-2.3567
T0
M30
