%TF.GenerationSoftware,KiCad,Pcbnew,(6.0.11)*%
%TF.CreationDate,2023-06-18T22:22:59+02:00*%
%TF.ProjectId,rd-03,72642d30-332e-46b6-9963-61645f706362,rev?*%
%TF.SameCoordinates,Original*%
%TF.FileFunction,Soldermask,Bot*%
%TF.FilePolarity,Negative*%
%FSLAX46Y46*%
G04 Gerber Fmt 4.6, Leading zero omitted, Abs format (unit mm)*
G04 Created by KiCad (PCBNEW (6.0.11)) date 2023-06-18 22:22:59*
%MOMM*%
%LPD*%
G01*
G04 APERTURE LIST*
%ADD10C,3.200000*%
%ADD11C,2.000000*%
%ADD12C,2.286000*%
G04 APERTURE END LIST*
D10*
%TO.C,H2*%
X127635000Y-71755000D03*
%TD*%
%TO.C,H1*%
X104775000Y-71755000D03*
%TD*%
D11*
%TO.C,U2*%
X103331736Y-77636900D03*
X103331736Y-80176900D03*
X103331736Y-82716900D03*
X103331736Y-85256900D03*
X103331736Y-87796900D03*
X103331736Y-90336900D03*
X103331736Y-92876900D03*
X103331736Y-95416900D03*
X103331736Y-97956900D03*
X103331736Y-100496900D03*
X103331736Y-103036900D03*
X103331736Y-105576900D03*
X103331736Y-108116900D03*
X103331736Y-110656900D03*
X103331736Y-113196900D03*
X103331736Y-115736900D03*
X103331736Y-118276900D03*
X103331736Y-120816900D03*
X103331736Y-123356900D03*
X103331736Y-125896900D03*
X103331736Y-128436900D03*
X103331736Y-130976900D03*
X128733600Y-130976900D03*
X128731736Y-128436900D03*
X128731736Y-125896900D03*
X128731736Y-123356900D03*
X128731736Y-120816900D03*
X128731736Y-118276900D03*
X128731736Y-115736900D03*
X128731736Y-113196900D03*
X128731736Y-110656900D03*
X128731736Y-108116900D03*
X128731736Y-105576900D03*
X128731736Y-103036900D03*
X128731736Y-100496900D03*
X128731736Y-97956900D03*
X128731736Y-95416900D03*
X128731736Y-92876900D03*
X128731736Y-90336900D03*
X128731736Y-87796900D03*
X128731736Y-85256900D03*
X128731736Y-82716900D03*
X128731736Y-80176900D03*
X128731736Y-77636900D03*
%TD*%
D12*
%TO.C,U1*%
X124242202Y-49700851D03*
X124242202Y-52240851D03*
X124242202Y-54780851D03*
X124242202Y-57320851D03*
X124242202Y-59860851D03*
%TD*%
M02*
